<?xml version="1.0" encoding="UTF-8"?>
<svg id="Capa_1" xmlns="http://www.w3.org/2000/svg" version="1.1" viewBox="0 0 300 300">
  <!-- Generator: Adobe Illustrator 30.3.0, SVG Export Plug-In . SVG Version: 2.1.3 Build 182)  -->
  <defs>
    <style>
      .st0 {
        fill: #ff4100;
      }
    </style>
  </defs>
  <path class="st0" d="M122.6,151.3H39.3c-15.4,0-25.7,10.3-25.7,25.6v83.4c0,15.3,10.4,25.7,25.7,25.7h83.2c15,0,25.6-10.5,25.6-25.4v-83.7c0-15-10.4-25.5-25.5-25.6ZM131.3,231.3v28.7c0,6.3-2.8,9.2-9.1,9.2H39.2c-6,0-9-3-9-9v-83c0-6.1,2.9-9,8.9-9h83.2c5.8,0,8.8,3,8.8,8.8v41.9l.2,12.4Z"/>
  <path class="st0" d="M147,24.2c-10.8-10.9-24.5-14.5-39.9-10.6-7.5,2-14.5,5.8-20.7,11.3-1.3-.8-2.5-1.6-3.7-2.3-4-2.6-8.1-5.1-12.6-7-14.8-6.3-29.2-4.4-41.4,5.5-12.1,9.7-17.2,23.2-14.5,39.2,1.6,9.6,6,18.8,14,29.1,15.3,19.8,35.5,33.9,53.3,45.3,1.2.7,2.7,1.4,4.6,1.4,1.6,0,3.4-.5,5.3-1.7,19-12.1,32.4-22.7,43.8-34.6,8-8.4,17.7-20,21.9-34.9,4.3-15.7.8-29.8-10.1-40.7ZM141.1,59.6c-3.2,11.8-10.7,20.9-18.4,28.9-9.5,9.9-21,19.1-36.2,28.9-.1,0-.2.1-.4.1-17.2-11.2-34.8-24.1-47.6-42.5-5.3-7.7-8.1-14.7-8.3-20.9,0-8.6,3.8-16.2,10.2-20.8,6.2-4.5,14.2-5.5,21.9-3,6,2.1,11.3,5.5,15.4,10.4,2.8,3.3,5.2,5.3,8.4,5.3,3.2-.1,5.5-2.1,8.3-5.2,6.4-7.3,13.9-11.3,22.5-11.9,7.7-.5,14.8,2.6,19.6,8.4,5.1,6.2,6.7,14.3,4.6,22.3Z"/>
  <path class="st0" d="M231,151.3h0c-18,0-34.9,6.9-47.7,19.7-12.8,12.7-19.8,29.6-19.9,47.5-.1,37.2,30.1,67.5,67.2,67.5h.1c37.1,0,67.3-30.1,67.4-67.2,0-18-6.9-34.9-19.7-47.7-12.5-12.7-29.5-19.7-47.4-19.8ZM281.4,218.7c0,13.5-5.3,26.1-14.9,35.6-9.6,9.5-22.3,14.7-35.7,14.7h-.2c-27.8-.1-50.3-22.9-50.3-50.6,0-13.5,5.3-26.1,14.9-35.6s22.3-14.7,35.7-14.7h.2c27.7.1,50.3,22.8,50.3,50.6Z"/>
  <path class="st0" d="M179.8,136h.2c11.3-.1,22.6-.1,33.9,0h62.4c8.5-.2,14.9-3.4,18.9-10.1,4.1-6.9,3.8-14.2-.8-21.8-8.1-13.6-16.2-27.1-24.2-40.7-8.1-13.6-16.1-27.1-24.2-40.7-4.2-6.9-10.7-11-17.9-11h0c-7.2,0-13.8,4.1-18,11.1-7,11.7-13.9,23.3-21,35.1-9.1,15.3-18.3,30.6-27.4,45.9-4.6,7.6-4.8,14.9-1,21.8,4.1,7,10.4,10.4,19.1,10.4ZM176.2,112.7c16.1-27,32.2-54,48.4-81,2.1-3.5,5-3.6,7.1-.1,16.2,27.1,32.3,54.2,48.6,81.3,1.1,1.9,1.4,3.5.8,4.6s-2.2,1.7-4.3,1.7h-97c-2.4,0-4.1-.6-4.6-1.7-.6-1-.2-2.8,1-4.8Z"/>
</svg>