<?xml version="1.0" encoding="utf-8"?>
<!-- Generator: Adobe Illustrator 30.4.0, SVG Export Plug-In . SVG Version: 9.03 Build 0)  -->
<svg version="1.0" id="Capa_1" xmlns="http://www.w3.org/2000/svg" xmlns:xlink="http://www.w3.org/1999/xlink" x="0px" y="0px"
	 viewBox="0 0 300 300" style="enable-background:new 0 0 300 300;" xml:space="preserve">
<style type="text/css">
	.st0{fill:#418FD9;}
	.st1{fill:#418FD9;stroke:#418FD9;stroke-width:4;stroke-miterlimit:10;}
	.st2{fill:#418FD9;stroke:#418FD9;stroke-miterlimit:10;}
</style>
<g>
	<path class="st0" d="M-515.27,0.2c1.76,0.96,3.72,2.15,4.5,4.26c4.84,13.24,17.21,21.95,30.96,22.27
		c13.86,0.33,26.79-7.91,32.03-21.01c1.1-2.74,2.52-4.41,5.23-5.53l3.33,0c45.81,14.45,91.3,46.18,108.24,93.04
		c0.79,2.19,0.5,4.75-1.07,6.56l-25.48,29.41c-2.25,3.16-5.74,3.49-9.02,1.86l-26.93-13.36l6.17,49.19
		c1.73,13.81,0.84,27.08,0.09,41.02c-1.35,24.91-4.66,48.84-8.25,73.51c-1.36,9.34-8.11,17.64-18.15,18.03
		c-11.62,0.45-23.19,0.52-34.82-0.04c-9.66-0.46-16.57-8.79-17.73-17.78c-2.25-13.61-3.03-26.61-3-40.4l-19.64,0
		c0.01,13.78-0.76,26.78-3,40.39c-1.17,9-8.06,17.32-17.73,17.78c-11.65,0.56-23.18,0.47-34.85,0.05
		c-9.72-0.35-16.65-8.42-18.02-17.54c-3.69-24.62-6.92-48.54-8.33-73.41c-0.8-14.14-1.71-27.6,0.06-41.62l6.19-49.11l-26.93,13.29
		c-3.14,1.55-6.47,1.38-8.75-1.55l-25.76-29.71c-1.59-1.83-1.86-4.35-1.06-6.57c16.66-46.46,62.81-78.74,108.38-93.03L-515.27,0.2z
		 M-437.74,14.55c-8.43,15.87-24.37,25.05-41.53,24.98c-17.11-0.07-32.89-9.56-41.03-25.03l-13.27,5.43
		c10.14,20.76,31.71,34.11,54.85,34.01c22.92-0.1,44.23-13.42,54.28-33.99L-437.74,14.55z M-456.36,234.66l0.65,27.08l50.16,0.01
		c4.02-31.05,7.71-62.62,5.6-94.32l-7.63-57.81c-0.43-3.23,0.15-6.29,2.76-8.47c1.35-1.13,4.23-1.16,5.89-0.35l12.64,6.11l30-34.62
		c-14.82-20.25-34.73-35.08-56.6-46.6c-12.09,23.85-35.61,39.49-62.15,40.93c-29.37,1.6-56.74-14.54-70.11-40.99
		c-21.78,11.47-42.47,26.85-56.4,46.73l30,34.56l12.46-6.15c1.63-0.8,4.58-0.72,5.89,0.38c2.61,2.2,3.19,5.25,2.77,8.48l-7.63,57.82
		c-2.13,31.69,1.57,63.28,5.6,94.32l50.16-0.01c0.54-9.14,0.68-17.87,0.64-26.81c0.39-3.22,2.14-5.77,5.31-6.5l34.2,0.03
		C-458.9,228.48-456.92,231.44-456.36,234.66z M-593.42,117.76l9.97-5.03l-25.25-29.11c-1.98,3.75-3.54,7.03-5.04,10.71
		L-593.42,117.76z M-364.54,117.74l20.29-23.4l-5.04-10.55l-25.14,29L-364.54,117.74z M-511.99,286.9c3.72,0,6.71-2.54,7.24-5.93
		l1-6.43l-46.76,0.01l0.95,6.21c0.56,3.69,3.67,6.14,7.37,6.14L-511.99,286.9z M-415.49,286.89c3.75,0,6.54-2.84,7.04-6.09
		l0.95-6.25l-46.8-0.01l0.92,5.95c0.55,3.55,3.31,6.4,7.13,6.4L-415.49,286.89z"/>
	<path class="st0" d="M-461.07,176.93l-15,13.39c-1.8,1.61-5.7,2.1-7.42,0.44l-13.98-13.56c-15.5-15.03-32.4-34.6-16.01-54.11
		c5.8-6.9,14.39-9.11,22.81-5.25c4.39,2.01,8.29,5.12,11.84,8.74c3.35-3.37,7.1-6.27,11.46-8.29c7.86-3.65,16.5-1.58,22.16,4.91
		C-428.29,142.05-444.41,162.05-461.07,176.93z M-453.87,132.71c-2.73-3.26-6.74-4.03-10.4-1.87c-7.74,4.57-9.21,12.18-14.44,12.2
		c-1.76,0.01-4.13-1.14-5.33-2.64c-5.58-6.97-12.6-16.48-19.23-9.5c-2.77,2.92-3.7,6.3-2.72,10.39
		c4.29,13.32,16.12,25.31,26.16,35.36c10.72-10.42,22.72-21.6,27.78-34.88C-451.17,138.38-451.56,135.47-453.87,132.71z"/>
</g>
<path class="st1" d="M-187.13,294.98l-12.49-0.02c-13.36-1.31-25.98-5.91-37.06-13.62c-2.08-1.45-1.88-4.55-0.3-6.21
	c1.49-1.56,3.99-1.59,5.98-0.24c25.83,17.52,59.09,15.31,82.34-5.58c11.98-10.76,20.39-25.12,24.51-40.75
	c-13.89-22.72-32.53-41.25-54.53-55.68c-17.61-11.55-36.81-19.43-57.23-23.89c-14.35-3.13-26.91,4.35-30.98,18.46
	c-9.8,33.96-2.13,70.83,22.55,96.54c1.78,1.86,1.59,4.6-0.25,6.26c-1.42,1.28-4.09,1.44-5.75-0.25
	c-26.82-27.44-35.67-68.93-24.45-105.51c1.84-5.99,4.61-11.08,8.95-15.35c-4.26-5.01-7.56-10.05-10.69-15.74
	c-18.58,3.49-35.41-10.31-36.43-28.48c-1.03-18.38,14.19-33.78,33.12-32.41c17.09-42.36,64.62-62.3,108.97-51.53
	c-0.49-3.47-2.59-6.45-5.18-8.89c-1.83-1.73-1.4-4.56,0.11-5.98c5.26-4.93,14.14,7.77,13.92,17.61
	c10.93,3.89,20.81,9.65,29.57,17.25c2.06,1.78,2.54,4.1,1.2,6.06c-1.25,1.83-4.1,2.62-5.98,1c-7.89-6.81-16.54-12.26-26.42-15.83
	c-2.86,7.72-9.57,12.98-16.79,14.5c-8.3,1.74-16.54-0.81-22.08-6.96c-1.57-1.74-0.94-4.36,0.56-5.71c1.39-1.26,3.99-1.52,5.61,0.07
	c3.77,3.7,8.63,5.44,13.94,4.31c4.34-0.92,8.59-3.85,10.73-8.82c-34.1-8.93-72.27,2.32-92.69,31.8
	c-17.84,25.76-15.4,58.93,5.38,82.67c7.05-3.99,14.7-5.14,22.64-3.67c14.47,2.69,28.05,7.26,41.35,13.59
	c13.45-6.37,27.2-11.03,41.83-13.66c7.79-1.4,15.23-0.12,22.16,3.74c20.86-23.89,23.21-57.21,5.17-83c-1.57-2.25-0.86-4.91,1-6.16
	c2.11-1.4,4.71-0.73,6.08,1.34c3.45,5.22,6.17,10.52,8.64,16.25c19.05-1.34,34.38,14.34,33.01,32.97
	c-1.32,17.91-18,31.41-36.39,27.94c-3.17,5.81-6.6,10.88-10.68,15.8c4.56,4.31,7.08,9.51,8.9,15.25c6.85,21.56,6,43.93-0.29,65.55
	c-5.21,17.89-13.99,33.97-28.11,46.23C-156.07,287.03-170.99,293.61-187.13,294.98z M-282.64,80.9
	c-13.66,0.57-22.7,11.73-21.8,24.04c0.87,11.92,11.43,21.53,24.38,20.42C-285.47,111.02-286.1,95.97-282.64,80.9z M-109.93,125.35
	c13.16,1.17,23.79-8.8,24.42-20.96c0.65-12.5-9.31-23.43-21.94-23.35C-103.72,96.24-104.63,110.98-109.93,125.35z M-121.24,217.32
	c3.89-17.81,2.72-35.17-2.57-51.64c-3.88-12.41-16.09-19.43-28.78-16.87c-11.12,2.25-21.61,5.26-32.62,10.16
	C-159.69,173.46-138.07,192.7-121.24,217.32z"/>
<path class="st2" d="M-223.09,101.83c-6.04,0.59-2.92-8.13-8.47-8.12c-5.53,0-2.48,8.06-7.96,8.14c-2.49,0.04-4.54-1.81-4.48-4.49
	c0.16-6.97,5.8-12.17,12.43-12.17c6.57,0,12.19,5.23,12.41,12.18C-219.07,99.84-220.92,101.62-223.09,101.83z"/>
<path class="st2" d="M-149.96,101.83c-6.02,0.57-2.9-8.16-8.47-8.12c-5.52,0.03-2.45,8.07-7.96,8.14c-2.46,0.03-4.54-1.81-4.45-4.48
	c0.22-6.94,5.84-12.19,12.41-12.18c6.63,0.01,12.26,5.2,12.44,12.17C-145.93,99.85-147.76,101.62-149.96,101.83z"/>
<path class="st2" d="M-189.75,104.58c1.79-1.89,4.14-2.16,6.07-0.71c1.66,1.24,2.32,4.04,0.62,6c-6.33,7.33-17.55,7.34-23.89-0.01
	c-1.54-1.79-1.1-4.43,0.31-5.73c1.85-1.69,4.5-1.59,6.25,0.31C-197.56,107.52-192.82,107.82-189.75,104.58z"/>
<g>
	<path class="st0" d="M233.99,5.02c32.25,2.82,58.47,28.98,61.29,61.17v11.89c-2.97,28.96-23.17,50.11-50.33,60.8l-28.36,11.17
		c19.07,24.5,48.07,69.69,40.44,99.94c-2.46,9.77-9.35,17.3-19,20.12c-23.04,6.73-54.48-8.88-74.88-21.3
		c-17.25,33.99-54.36,51.9-91.35,44.52c-35.45-7.07-63.23-36.92-66.61-73.77l-0.47-2.15l0.23-11.97
		c2.25-29.2,19.35-55.09,46.13-68.57c-10.44-17.22-19.57-35.39-22.55-55.37c-0.64-6.16-0.7-11.98,0.76-17.93
		c2.69-10.97,11.17-18.78,22.33-20.86c30.52-5.68,73.75,21.9,98.33,40.87l11.03-27.96c10.82-27.42,31.54-47.25,61.17-50.45
		L233.99,5.02z M166.62,168.08c13.78-13.25,29.97-23.2,47.8-30.19l25.27-9.91c9-3.53,16.96-8.14,24.13-14.28
		c24.59-21.07,25.77-58.21,3.11-80.66c-22.55-22.34-59.52-21.02-80.53,3.39c-6.16,7.16-10.77,15.11-14.31,24.09l-10.11,25.62
		c-6.96,17.66-16.9,33.65-30.09,47.31C141.16,147.23,152.66,159.02,166.62,168.08z M244.09,224.62
		c-7.36-25.53-22.74-48.76-38.8-69.29c-12.58,6.54-23.38,14.52-33.05,24.18c-2.2,2.19-5.05,2.89-7.82,1.35
		c-18.44-10.94-33.74-26.26-44.93-44.5c-1.7-2.78-1.56-5.87,0.75-8.2c9.7-9.82,17.9-20.61,24.46-33.28
		c-20.7-16.12-44.42-31.67-69.77-38.73c-6.92-1.76-13.64-2.8-20.55-1.63c-24.86,4.21-11.46,41.48-2.22,59.54
		c22.27,43.53,62.01,85.14,101.52,113.77c19.93,14.45,54.43,35.13,78.36,31.29C247.81,256.6,247.98,239.24,244.09,224.62z
		 M142.84,235.1c-11.18,25.32-37.22,39.03-63.78,34.97c-25.6-3.91-45.94-24.56-49.5-50.21c-3.67-26.48,10.68-52.15,35.28-62.69
		l-7.07-10.07c-28.7,13.57-44.89,44.26-40.05,75.52c4.68,30.25,28.8,54.5,59.06,59.34c31.38,5.02,62.16-10.81,76.15-39.78
		L142.84,235.1z M73.86,168.75c-0.81-1-1.77-1.5-2.67-1.15c-20.73,8.11-32.83,29.24-29.58,51.03c3.16,21.19,20.56,37.75,42.05,39.87
		c21.52,2.13,42.04-10.73,49.19-31.18C110.98,209.79,91.46,190.41,73.86,168.75z"/>
	<path class="st0" d="M211.85,232.33c3.87,1.37,5.66,4.69,4.57,8.01c-1.14,3.47-4.8,4.84-8.34,3.52
		c-10.63-3.96-20.68-8.47-30.21-14.58c-2.89-1.85-3.08-5.82-1.34-8.27c1.8-2.52,5.33-3.26,8.33-1.49
		C193.47,224.6,202.17,228.91,211.85,232.33z"/>
	<ellipse class="st0" cx="227.81" cy="241.61" rx="6.13" ry="6.12"/>
	<path class="st0" d="M243.71,45.38c-13.1-7.19-28.54-4.58-38.52,6.25c-2.39,2.6-6.28,2.66-8.57,0.55
		c-2.61-2.41-2.66-6.11-0.21-8.82c13.32-14.71,35.31-18.35,52.68-8.76c3.04,1.68,4.15,4.85,3.03,7.65
		C250.94,45.24,247.1,47.25,243.71,45.38z"/>
	<ellipse class="st0" cx="191.3" cy="61.89" rx="6.03" ry="6.01"/>
</g>
</svg>
