<?xml version="1.0" encoding="utf-8"?>
<!-- Generator: Adobe Illustrator 27.2.0, SVG Export Plug-In . SVG Version: 6.00 Build 0)  -->
<svg version="1.0" id="Capa_1" xmlns="http://www.w3.org/2000/svg" xmlns:xlink="http://www.w3.org/1999/xlink" x="0px" y="0px"
	 viewBox="0 0 300 300" style="enable-background:new 0 0 300 300;" xml:space="preserve">
<style type="text/css">
	.st0{fill:#FF4547;}
	.st1{fill:#FF4547;stroke:#FF4547;stroke-width:3;stroke-miterlimit:10;}
</style>
<g>
	<g>
		<path class="st0" d="M-183.7,113.5c0,51.5,0,102.9,0,154.4c-0.1,0.2-0.4,0.5-0.4,0.7c-3.5,16.8-15.3,26.4-32.3,26.4
			c-40.4,0-80.8,0-121.2,0c-1.1,0-2.3,0-3.4-0.1c-14-0.7-26.5-11.7-28.7-25.3c-0.5-3,0.3-6.4-1-8.9c-1.3-2.6-4.6-4-6.8-6.2
			c-24.3-24.2-48.5-48.5-72.8-72.7c-4.5-4.5-9.1-9-13.6-13.6c-12.6-13.1-12.7-31.8,0-44.6c34.4-34.4,68.8-68.7,103.2-103
			c1.5-1.5,3.8-2.7,5.8-3c21.4-3.2,42.9-6.2,64.3-9.3c5.8-0.8,11.6-1.9,17.5-2.8c1.7,0,3.4,0,5.1,0c2.2,1.7,4.5,3.3,6.5,5.3
			c5.1,5,10.1,10.1,15.3,15.3c4.5-4.5,8.7-8.9,13.1-13.1c2.7-2.6,5.8-5,8.7-7.4c1.5,0,3,0,4.5,0c1.2,0.8,2.6,1.5,3.6,2.5
			c3.5,3.4,3.4,8.5-0.3,12.3c-5.8,5.9-11.7,11.7-17.6,17.6c5.8,5.8,11.2,11.3,16.8,16.8c3,2.9,4.4,6.1,3.3,10.1
			c-1.2,4.4-0.5,8.2,2.9,11.5c1.2,1.2,2.1,2.7,3.1,4C-200,91.4-191.9,102.5-183.7,113.5z M-258.4,62.4c2,1.8,4,3.4,5.9,5.3
			c3.5,3.6,3.7,8.8,0.4,12.2c-3.4,3.5-8.6,3.5-12.4-0.2c-7.8-7.7-15.6-15.5-23.4-23.4c-3.6-3.6-3.7-8.8-0.4-12.2
			c3.4-3.5,8.7-3.4,12.4,0.2c1.9,1.8,3.6,3.8,5.2,5.4c4.2-4.2,8.1-8.1,12.1-12.1c-4.4-4.4-9-9.1-13.7-13.5c-0.7-0.6-2-0.9-3-0.7
			c-24.3,3.4-48.7,6.9-73,10.5c-1.2,0.2-2.5,0.8-3.4,1.7c-33.3,33.1-66.6,66.4-99.9,99.8c-6.4,6.4-6.4,14.7,0,21
			c29,29.1,58.1,58.1,87.1,87.1c6,6,14.4,6.1,20.4,0.1c33.5-33.5,67-67,100.5-100.5c0.7-0.7,1.3-1.9,1.5-2.9
			c3.6-24.5,7.1-49,10.5-73.5c0.1-0.8,0.1-1.9-0.4-2.3c-4.7-4.8-9.5-9.6-14.4-14.6c-3.7,3.8-7.2,7.4-10.7,10.9
			C-257.4,61.1-257.7,61.5-258.4,62.4z M-353.1,265.1c0.6,7.7,6.5,12.9,14.5,12.9c41.1,0,82.2,0,123.2,0c8.6,0,14.7-6,14.7-14.5
			c0-47.7,0-95.3,0-143c0-1.1-0.4-2.4-1.1-3.3c-4.9-6.7-9.9-13.3-14.9-19.9c-0.4-0.5-0.9-1-1.5-1.6c-0.2,0.5-0.4,0.8-0.4,1
			c-2.3,16.2-4.6,32.4-6.9,48.6c-0.4,2.9-1.4,5.4-3.5,7.5c-34.2,34.2-68.4,68.3-102.5,102.5c-4.5,4.5-9.8,7.6-16,9
			C-349.4,264.6-351.3,264.8-353.1,265.1z"/>
	</g>
	<path class="st0" d="M-380,170.6c0.8-5.1,1.5-11.1,2.6-17c0.8-4.2,0-7.5-3.2-10.5c-4-3.7-7.6-7.7-11.5-11.6
		c-3.8-3.7-5.2-8.2-3.6-13.2c1.6-4.9,5.3-7.6,10.4-8.4c5.5-0.9,11-1.9,16.4-2.6c3.9-0.5,6.6-2.4,8.4-6c2.4-5,5-9.9,7.6-14.8
		c2.4-4.7,6.1-7.4,11.5-7.4c5.2,0.1,8.8,2.8,11.2,7.4c2.5,4.8,5.2,9.6,7.4,14.5c1.9,4.1,4.9,5.9,9.2,6.5c5.4,0.7,10.7,1.7,16.1,2.6
		c5,0.8,8.5,3.6,10,8.3c1.6,4.9,0.3,9.3-3.3,13c-4.1,4.1-8.1,8.4-12.3,12.4c-2.6,2.5-3.4,5.4-2.9,8.8c0.9,5.4,1.7,10.7,2.6,16.1
		c0.9,5.3-0.1,10-4.6,13.3c-4.6,3.4-9.4,3.2-14.3,0.6c-4.8-2.5-9.8-4.8-14.5-7.3c-3.3-1.8-6.3-1.7-9.6,0c-5.3,2.8-10.7,5.6-16.2,8.1
		C-371.2,187.2-380.3,181-380,170.6z M-379.9,124c3.9,3.7,7.3,6.7,10.5,9.9c5.9,5.8,7.8,12.8,6.4,20.9c-0.7,4.2-1.3,8.5-2,13.4
		c4.2-2.1,8-3.8,11.5-5.8c8-4.4,15.8-4.3,23.8,0c3.6,1.9,7.3,3.6,11.4,5.7c-0.7-4.7-1.1-8.7-1.9-12.7c-1.7-8.6,0.5-16,6.9-22.1
		c3.1-3,6-6.1,9.3-9.5c-8.3-2.3-17-1.5-24-6.4c-7.2-5.1-8.9-13.8-13.7-20.7c-4.8,6.9-6.5,15.4-13.5,20.5
		C-362,122.4-370.6,121.6-379.9,124z"/>
</g>
<g>
	<g>
		<path class="st0" d="M633,8.1c3.3,1.1,5.3,3.4,6.7,6.5c2.2,4.7,4.6,9.2,6.9,13.9c2.5,5,1.1,9.9-3.3,12.1c-4.4,2.2-9,0.3-11.6-4.7
			c-2.3-4.4-4.5-8.9-6.7-13.4c-3.5-7-2.5-10.4,4.1-14.3C630.5,8.1,631.8,8.1,633,8.1z"/>
		<path class="st0" d="M700.1,8.1c6.6,3.8,7.7,7.4,4.2,14.3c-2.4,4.9-4.8,9.8-7.4,14.6c-1.8,3.4-5.3,5-8.8,4.3
			c-3.3-0.6-6.1-3.2-6.5-6.7c-0.2-1.8,0.1-3.9,0.9-5.6c2.4-5.4,4.9-10.7,7.9-15.8c1.3-2.1,3.8-3.4,5.8-5.1
			C697.5,8.1,698.8,8.1,700.1,8.1z"/>
		<path class="st0" d="M589.7,152.8c12.9-6.1,25-12.4,33.1-24.1c6.3-9.2,9.6-19.7,12.4-30.3c2.7-10.4,4.2-21,4.5-31.7
			c0.1-4.6,2.9-8,7.2-8.4c11.7-1,22.7,0.7,31.6,9.3c6.9,6.6,11,14.7,10.9,24.3c0,14.5-1.7,28.9-5.6,43c-0.6,2.1-1.4,4.1-2.3,6.6
			c1.4,0,2.5,0,3.5,0c20.2,0,40.5,0,60.7,0c6.9,0,13.1,1.7,18.4,6.2c9.5,8,11.4,23.1,4.1,33.1c-0.6,0.8-1.2,1.6-1.9,2.6
			c5.7,7.1,7.9,15,5.4,23.8c-2.5,8.9-8.6,14.4-17.1,17.3c2.8,18.8-0.5,25.3-16.5,33.4c0.4,3.2,1.2,6.4,1.1,9.6
			c-0.1,13.5-10.4,24.3-24.3,24.4c-22.9,0.3-45.8,0.2-68.7-0.4c-18.5-0.5-36.2-5.7-53.6-11.8c-0.9-0.3-1.9-0.6-3.2-1.1
			c0,1.8,0,3.2,0,4.7c-0.2,5.3-3.5,8.7-8.8,8.7c-16.4,0.1-32.7,0-49.1,0c-5.3,0-8.6-3.3-8.8-8.6c-0.1-1.7,0-3.3,0-5
			c0-41.7,0-83.3,0-125c0-1,0-2,0-3c0.2-5.4,3.2-8.8,8.6-8.8c16.4-0.1,32.9-0.1,49.3,0c5.4,0,8.5,3.4,8.7,8.8
			C589.8,150.9,589.7,151.7,589.7,152.8z M656,75.2c-0.1,0.3-0.2,0.7-0.2,1c-1.8,15.5-5.6,30.4-10.9,45.1
			c-5.9,16.1-15.8,28.7-30.6,37.4c-7.3,4.3-15,8-22.5,11.8c-1.4,0.7-2.1,1.4-2.1,3.1c0.1,28.5,0.1,56.9,0,85.4c0,1.6,0.5,2.3,2,2.7
			c2.4,0.7,4.7,1.5,7.1,2.4c19,6.7,38.4,11.3,58.7,11.3c18.8,0,37.5,0,56.3,0c5.5,0,9.1-3.4,9.1-8.3c0-5-3.6-8.3-9.3-8.4
			c-5.2,0-10.4,0.1-15.5-0.1c-6.2-0.2-10.1-6-7.8-11.4c1.5-3.6,4.4-5.2,8.4-5.2c10.6,0,21.2,0,31.9,0c4.8,0,8.4-2.9,8.9-7
			c0.7-5.3-2.9-9.6-8.5-9.6c-10.4-0.1-20.9,0-31.3-0.1c-1.7,0-3.5-0.2-5.1-0.9c-3.6-1.4-5.5-5.4-4.7-9.1c0.9-4,4-6.6,8.4-6.6
			c15.8-0.1,31.6,0,47.4,0c1.2,0,2.4,0,3.6-0.2c5.9-1,8.8-7,6.1-12.3c-1.8-3.4-4.6-4.8-8.4-4.8c-15.5,0.1-31,0-46.6,0
			c-1.4,0-2.8-0.1-4.1-0.3c-4.7-1-7.5-5.8-6.1-10.4c1.2-4,4.2-5.9,9.2-5.9c15.4,0,30.9,0,46.3,0c1.3,0,2.6,0,3.9-0.3
			c4.2-0.7,6.9-4.2,6.8-8.5c-0.1-4.1-3.1-7.3-7.2-7.8c-1.3-0.1-2.6-0.1-3.9-0.1c-25.8,0-51.5,0-77.3,0c-1,0-2,0-3,0
			c-3.5-0.2-6.2-1.7-7.7-5c-1.4-3.3-0.6-6.2,1.6-9c1.6-2,3.4-4.1,4.3-6.4c2.5-6.7,5.3-13.4,6.8-20.4c1.7-7.9,2.8-16,3.1-24.1
			C673.3,83.2,665,74.8,656,75.2z M572.9,158.3c-11.1,0-22,0-32.9,0c0,39.1,0,78,0,116.8c11.1,0,22,0,32.9,0
			C572.9,236.1,572.9,197.3,572.9,158.3z"/>
		<path class="st0" d="M722.9,74.7c-2.8,0-5.5,0.1-8.3,0c-4.7-0.2-8.1-3.6-8.2-8c-0.1-4.2,3.1-8.2,7.5-8.4c6.1-0.3,12.2-0.3,18.2,0
			c4.6,0.2,7.6,4.1,7.5,8.7c-0.2,4.3-3.5,7.6-8.1,7.8C728.6,74.8,725.7,74.7,722.9,74.7z"/>
		<path class="st0" d="M606.4,74.7c-2.9,0-5.7,0.1-8.6,0c-4.5-0.2-7.9-3.5-8-7.9c-0.1-4.4,2.9-8.3,7.3-8.5c6.2-0.3,12.4-0.3,18.5,0
			c4.4,0.2,7.6,4.3,7.4,8.5c-0.2,4.4-3.6,7.7-8.1,7.9C612.1,74.8,609.2,74.7,606.4,74.7z"/>
	</g>
	<path class="st0" d="M564.7,284.5h-16.5v-26.8c0-4.5,3.7-8.2,8.2-8.2l0,0c4.5,0,8.2,3.7,8.2,8.2V284.5z"/>
</g>
<g>
	<path class="st1" d="M78.9,816.7c-11.6,4.4-23.2,5.1-34.8,1.2c-20.1-6.9-32.4-21-35.1-42c-2.7-21.2,5.4-38.3,23.5-50
		c9.5-6.1,19.3-11.8,29.3-17c20.6-10.7,35.3-26.9,46-47.2c6.3-11.9,11.9-24.1,18.1-36c6.5-12.6,22.1-16.3,33.1-7.8
		c2.6,2,4.7,4.8,6.4,7.6c6.3,10.6,12.4,21.3,18.6,32.1c9.7-4.3,19.3-4.7,29-0.5c7.1,3.1,12.5,8.1,16.2,14.8c4.3,7.8,5.4,16,3.2,24.7
		c-1.9,7.7-3.7,10.2-14,20.7c6.3,11,12.7,21.9,19,33c5.8,10.2,3.1,22.5-6.2,29.2c-4.6,3.3-9.8,4.4-15.4,4
		c-12.3-0.8-24.6-1.8-36.9-2.3c-17.8-0.7-35.2,1.1-51.7,8.6c-0.4,0.2-0.8,0.4-1.4,0.7c0.5,1,1,1.8,1.5,2.7
		c7.3,12.6,14.7,25.1,21.8,37.8c9.1,16.3,0.6,35.7-17.3,39.8c-11.3,2.6-22.9-2.6-29.1-13.1c-7.5-12.8-14.8-25.7-22.3-38.5
		C80,818.6,79.6,817.8,78.9,816.7z M118.8,778.4c17.6-8.7,36.2-11.7,55.3-11.2c14.1,0.4,28.1,1.5,42.2,2.5c3.7,0.2,6.9-0.5,9-3.9
		c2-3.3,1.3-6.3-0.5-9.5c-23.8-41.1-47.5-82.2-71.2-123.4c-1.9-3.2-4.1-5.5-8.1-5.4c-4,0.1-6.2,2.5-7.8,5.9
		c-5,10.2-9.9,20.5-15.1,30.6c-9.9,19.4-22.4,36.6-40.6,49.1c-0.2,0.1-0.3,0.4-0.5,0.8C93.9,735.3,106.2,756.6,118.8,778.4z
		 M69.3,720.7c-10.6,6.2-21.1,11.8-31.1,18.4c-14.3,9.5-19.5,28.6-12.8,44.5c6.8,16.1,23.8,25.4,40.9,22.3
		c6.6-1.2,12.2-4.5,17.8-7.7c7.4-4.3,14.8-8.6,22.4-13C94.1,763.6,81.8,742.4,69.3,720.7z M113.3,797.4c-7.3,4.2-14.5,8.4-21.6,12.5
		c0,0.5,0,0.7,0.1,0.8c7.9,13.7,15.7,27.5,23.8,41.1c2.5,4.3,6.8,6.1,11.7,5.6c9.6-1,14.5-10.9,9.7-19.4
		c-7.5-13.1-15.1-26.2-22.6-39.2C114.1,798.4,113.7,797.9,113.3,797.4z M191.2,670.2c6.7,11.6,13.4,23.1,20,34.6
		c8.4-5.8,10.8-17.7,5.5-26.6C211.5,669.5,199.9,665.7,191.2,670.2z"/>
	<path class="st1" d="M236.1,663.3c0-2.6,1.2-4.7,3.5-6c8.4-4.9,16.9-9.8,25.4-14.7c3.7-2.1,7.8-1,9.7,2.4c2,3.4,0.9,7.5-2.7,9.7
		c-8.4,5-16.9,9.9-25.4,14.7C241.6,672.1,236,668.8,236.1,663.3z"/>
	<path class="st1" d="M235,606.7c-0.6,1.4-1,3-1.7,4.3c-4.5,7.9-9,15.7-13.5,23.5c-2.4,4.1-6.3,5.3-9.9,3.3c-3.6-2-4.5-6.1-2.2-10.2
		c4.6-8.1,9.3-16.2,14-24.2c1.9-3.2,4.8-4.3,8.1-3.4C232.6,600.8,234.6,603.4,235,606.7z"/>
	<path class="st1" d="M270.1,698c4.6,0,9.2,0,13.7,0c4.5,0,7.5,2.8,7.6,6.9c0.1,4.2-3,7.1-7.6,7.1c-9.2,0-18.3,0-27.5,0
		c-4.7,0-7.8-2.9-7.7-7c0-4.1,3.1-6.9,7.8-7C261,698,265.5,698,270.1,698z"/>
</g>
<g>
	<path class="st0" d="M227.4,141c-1.8-3.2-3.7-6.4-5.5-9.6c10.5-10.6,12.2-13.3,14.2-21.3c2.2-9.1,1.1-17.9-3.4-26.1
		c-3.9-7.2-9.7-12.5-17.2-15.7c-9.7-4.2-19.8-4.2-29.9,0.1c-1.6-2.8-3.2-5.6-4.8-8.4c-4.5-7.9-9.2-16-13.9-23.9
		c-2-3.4-4.4-6.2-6.9-8.1c-5.5-4.3-12.5-5.9-19.3-4.4c-7,1.5-13,6.2-16.4,12.8c-2.8,5.4-5.5,11-8.2,16.4
		c-3.4,6.8-6.8,13.8-10.4,20.6c-11.6,22-26.9,37.8-46.9,48.1c-10.2,5.3-20.4,11.2-30.2,17.6C9.5,151.4,1,169.5,3.8,191.6
		c2.7,21.6,15.5,36.8,36.9,44.1c11.4,3.9,23.4,3.6,35.7-0.9l0.1,0.2c0.4,0.6,0.7,1.2,1,1.7c2.4,4.1,4.7,8.2,7.1,12.2
		c5.2,9,10.5,18.3,15.9,27.4c5.4,9.2,14.9,14.7,24.9,14.7c2.1,0,4.1-0.2,6.2-0.7c9.1-2.1,16.3-8,20-16.3c3.7-8.4,3.2-18-1.5-26.3
		c-5-8.9-10.2-17.9-15.3-26.6c-2.4-4.1-4.8-8.3-7.2-12.4c-0.3-0.6-0.7-1.2-1-1.8l0,0c0.2-0.1,0.3-0.2,0.5-0.2
		c15-6.8,31.7-9.6,52.8-8.7c9.5,0.4,19.2,1.1,28.6,1.7c3.1,0.2,6.2,0.4,9.3,0.6c6.4,0.4,11.8-1,16.5-4.4
		c10.1-7.2,12.9-20.4,6.7-31.4C236.5,156.8,231.9,148.8,227.4,141z M193.9,83.1c8.3-3.6,19,0.1,23.9,8.4c5,8.4,3,19.5-4.4,25.4
		L193.9,83.1z M226.7,180.5c-1.7,2.7-4.2,3.8-8.3,3.5c-3.7-0.2-7.4-0.5-11.1-0.8c-10.6-0.7-21.6-1.5-32.4-1.8
		c-21.4-0.5-39.9,3.1-56.6,11.2l-37.6-65.1c17-11.7,30.3-27.9,42-51c5-9.9,9.9-20,14.7-29.7l0.9-1.8c1.8-3.7,4-5.4,7.1-5.5
		c3.1-0.1,5.3,1.4,7.4,5.1c23.2,40.2,47.2,81.8,73.4,127.1C228.1,175.3,228.3,177.9,226.7,180.5z M111.9,215
		c0.2,0.2,0.3,0.4,0.4,0.6c2.1,3.7,4.3,7.4,6.4,11.1c5.6,9.6,11.3,19.5,16.9,29.3c2.2,4,2.4,8.4,0.5,12.1c-1.9,3.6-5.4,5.9-9.7,6.4
		c-4.8,0.5-8.8-1.4-11.1-5.3c-6.2-10.4-12.3-21-18.2-31.4c-2.1-3.6-4.1-7.2-6.2-10.8L111.9,215z M103.8,200.6l-5.9,3.4
		c-5.5,3.2-10.9,6.3-16.3,9.4l-0.2,0.1c-5.8,3.4-11.3,6.5-17.8,7.7c-17.1,3.1-34.3-6.3-41-22.4c-6.7-16.1-1.2-35.2,12.9-44.6
		c7-4.6,14.2-8.7,21.8-13.1c3-1.7,6.2-3.5,9.3-5.3L103.8,200.6z"/>
	<path class="st0" d="M279.4,56.1c-2.4-4-7.2-5.2-11.4-2.8c-8.3,4.7-16.7,9.6-24.8,14.3l-1.3,0.8c-2.6,1.5-4.1,4-4.1,7v0
		c0,3,1.4,5.7,3.9,7.2c1.3,0.8,2.7,1.1,4.1,1.1c1.5,0,2.9-0.4,4.3-1.2c7.7-4.3,16-9.1,26.2-15.1C280.4,65,281.7,60.2,279.4,56.1z"/>
	<path class="st0" d="M211.1,50.1c1.3,0.8,2.7,1.1,4.1,1.1c2.9,0,5.7-1.7,7.5-4.9c5.2-8.8,9.7-16.8,14-24.2c0.6-1,1-2.1,1.4-3.2
		c0.2-0.5,0.3-0.9,0.5-1.4l0.1-0.2l0-0.3c-0.4-3.9-2.8-6.9-6.3-7.8c-3.9-1.1-7.3,0.4-9.5,4c-4.4,7.5-9,15.4-14.4,24.9
		C205.8,42.8,206.9,47.6,211.1,50.1z"/>
	<path class="st0" d="M287.9,110.3c-3.3,0-6.6,0-9.8,0l-4.3,0l-4.2,0c-3.3,0-6.6,0-9.9,0c-5.4,0-9,3.3-9,8.2c0,4.8,3.7,8.2,9,8.3
		c4.9,0,9.6,0,14.2,0c4.8,0,9.5,0,14.1,0c2.7,0,5.1-0.9,6.7-2.6c1.5-1.5,2.3-3.5,2.2-5.8C296.6,113.6,293.1,110.3,287.9,110.3z"/>
</g>
</svg>
