<?xml version="1.0" encoding="UTF-8"?>
<svg id="Capa_1" xmlns="http://www.w3.org/2000/svg" version="1.1" viewBox="0 0 300 300">
  <!-- Generator: Adobe Illustrator 30.3.0, SVG Export Plug-In . SVG Version: 2.1.3 Build 182)  -->
  <defs>
    <style>
      .st0, .st1 {
        fill: #fff;
      }

      .st1 {
        isolation: isolate;
        opacity: .6;
      }
    </style>
  </defs>
  <path class="st1" d="M2.7,132.9h3.4c37,0,74.1,0,111.1-.1,2.6,0,3.7.8,4.8,3.1,15.9,32.9,41,55.9,74.8,69.5,11.9,4.8,23.9,4.1,35.7-.9,26.6-11.2,47.9-28.7,63.6-52.9.3-.4.6-.9.9-1.3.1-.1.3-.2.8-.4.1,1,.2,1.9.2,2.8,0,30.9.1,61.8,0,92.7-.1,26.8-17.8,47.6-44.3,51.8-2.7.4-5.6.5-8.3.5H55.4c-27.1,0-47.9-17.7-52.2-44.3-.4-2.4-.4-4.9-.5-7.4v-110.1c-.2-.7-.1-1.6,0-3ZM109.3,222.3c-13.5,0-27-.1-40.6.1-2.2,0-4.5.6-6.4,1.6-3.9,2.2-5.7,6.9-4.6,11.1,1.3,4.8,5.3,7.8,10.5,7.8h81.1c6.5,0,11.2-4.5,11.1-10.4-.1-5.9-4.7-10.2-11.3-10.2-13.2,0-26.5,0-39.8,0ZM81.5,201.7c4.5,0,9,.1,13.5,0,5.9-.1,10.6-4.7,10.5-10.3,0-5.6-4.7-10.2-10.6-10.2-9-.1-18-.1-27,0-6,.1-10.5,4.6-10.5,10.3s4.6,10.2,10.6,10.3c4.5,0,9-.1,13.5-.1Z"/>
  <path class="st0" d="M297.9,62.5c.3,14.8.1,29.6-4,44.1-10.7,37.7-34.4,64.1-70.4,79.4-6.7,2.8-13.6,2.8-20.4-.1-42.2-18.4-67.1-50.3-73.2-95.9-1.8-13.7-.8-27.9-1-41.8,0-3.7-.1-7.6.6-11.2,2.1-10.8,8.7-18,19.3-20.6,20-4.8,40.1-9.3,60.3-13.2,5.2-1,11.1.4,16.5,1.5,16.7,3.4,33.3,7.2,49.9,11,14.7,3.3,22.5,13.3,22.3,28.3,0,6.1.1,12.3.1,18.5ZM211.3,90.2c-.6,0-1.3-.1-1.9-.1-2.9-3.3-5.7-6.7-8.9-9.7-4-3.7-10.3-3.3-14,.5s-4.1,10.1-.3,14c5.5,5.7,11.2,11.3,17,16.7,4.4,4.1,10.1,3.9,14.5-.3,10.1-9.9,20.2-19.8,30.2-29.9,1.4-1.4,2.4-3.3,2.9-5.2,1.1-4.4-1.1-8.9-4.8-11-4.1-2.3-8.9-1.8-12.4,1.7-7.6,7.6-15,15.5-22.3,23.3Z"/>
  <path class="st1" d="M2.6,112.1c-.7-16.8,5-30.7,17.3-41.8,9.6-8.6,20.9-12.9,33.8-12.9,18-.1,36.1,0,54.6,0-.2,18.4-.6,36.7,4.9,54.7-37,0-73.6,0-110.6,0Z"/>
</svg>