<?xml version="1.0" encoding="utf-8"?>
<!-- Generator: Adobe Illustrator 27.2.0, SVG Export Plug-In . SVG Version: 6.00 Build 0)  -->
<svg version="1.1" id="Capa_1" xmlns="http://www.w3.org/2000/svg" xmlns:xlink="http://www.w3.org/1999/xlink" x="0px" y="0px"
	 viewBox="0 0 300 900" style="enable-background:new 0 0 300 900;" xml:space="preserve">
<style type="text/css">
	.st0{fill:#FFFFFF;}
</style>
<g>
	<polygon class="st0" points="159.7,834.9 168.8,853.4 189.2,856.3 174.4,870.7 177.9,891 159.7,881.4 141.4,891 144.9,870.7 
		130.2,856.3 150.5,853.4 	"/>
</g>
<g>
	<g>
		<path class="st0" d="M67.8,121.7v-18.9h19.8v18.9H67.8z M84.8,194.6V96c0-5.6,1.1-10.6,3.3-14.9c2.2-4.3,5.5-7.8,9.8-10.3
			c4.3-2.5,9.7-3.7,16-3.7h18.6v18.7h-11.2c-3.5,0-6.2,1-8.3,3.1c-2.1,2.1-3.1,5.1-3.1,9v96.6H84.8z M106.9,121.7v-18.9h25.5v18.9
			H106.9z"/>
		<path class="st0" d="M197.9,197.1c-5,0-9.6-0.7-13.7-2.2c-4.2-1.5-7.8-3.6-10.9-6.4c-3.1-2.8-5.6-6.1-7.5-9.9l2.3-3.6v19.6h-25
			V67.1h25v55.2l-2.3-3.6c1.9-3.9,4.4-7.3,7.5-10c3.1-2.7,6.7-4.8,10.9-6.2c4.2-1.4,8.7-2.1,13.7-2.1c6.8,0,13,1.8,18.7,5.5
			c5.7,3.7,10.3,9.1,13.7,16.2c3.4,7.1,5.1,15.9,5.1,26.4c0,6.3-0.6,12-1.9,17.1c-1.2,5.1-3,9.6-5.4,13.6c-2.3,3.9-5.1,7.2-8.2,9.8
			c-3.2,2.6-6.6,4.6-10.4,6C205.9,196.4,202,197.1,197.9,197.1z M188.8,177.8c2.6,0,5.1-0.4,7.3-1.3c2.3-0.9,4.3-2.2,6-3.8
			c1.7-1.7,3.2-3.7,4.4-6.1c1.2-2.4,2.1-5.1,2.7-8.2c0.6-3.1,0.9-6.4,0.9-9.8c0-5.8-0.8-10.9-2.5-15.3c-1.7-4.3-4.1-7.7-7.3-10.1
			c-3.2-2.4-7-3.6-11.4-3.6c-2.6,0-5.1,0.4-7.3,1.3c-2.3,0.9-4.3,2.2-6,3.8c-1.7,1.7-3.2,3.7-4.4,6.1c-1.2,2.4-2.1,5.1-2.8,8
			c-0.7,3-1,6.2-1,9.8c0,5.8,0.9,10.9,2.6,15.3c1.7,4.3,4.2,7.7,7.4,10.2C180.6,176.6,184.4,177.8,188.8,177.8z"/>
	</g>
	<path class="st0" d="M149.7,268.4c50.8,0,94.6-30.4,114.6-74.2c-16.1,13.7-47.1,34.8-83.4,32.7c-53.3-3.1-51.2-29.3-99.6-23.4
		c-11.9,1.5-22.9,6.6-32.8,13.4C71.4,248.2,108.2,268.4,149.7,268.4z"/>
	<path class="st0" d="M149.7,14c70.3,0,127.2,57,127.2,127.2c0,70.3-57,127.2-127.2,127.2c-70.3,0-127.2-57-127.2-127.2
		C22.5,70.9,79.4,14,149.7,14 M149.7,8.5C76.5,8.5,17,68,17,141.2s59.5,132.7,132.7,132.7s132.7-59.5,132.7-132.7
		S222.8,8.5,149.7,8.5L149.7,8.5z"/>
</g>
<g>
	<path class="st0" d="M133.2,795.9c-1.2-0.3-2.5-0.4-3.7-0.8c-7.8-2.2-12.7-8.2-13.1-16.3c-0.4-8.4,0.6-16.7,3.8-24.6
		c2.1-5.1,5.1-9.5,10.1-12.2c3.1-1.7,6.4-2.5,9.9-2.4c1.1,0,2.3,0.6,3.3,1.1c1.6,0.9,3.1,2,4.7,2.9c9.1,5.6,18.3,5.6,27.4,0
		c1.3-0.8,2.6-1.5,3.8-2.4c2.2-1.6,4.6-1.8,7.2-1.5c7.1,1,12.1,4.9,15.5,11.1c3,5.5,4.4,11.5,5,17.7c0.3,3.2,0.5,6.4,0.4,9.6
		c-0.1,9.5-6.7,16.6-16.1,17.6c-0.2,0-0.5,0.1-0.7,0.2C171.4,795.9,152.3,795.9,133.2,795.9z"/>
	<path class="st0" d="M161.1,739.4c-14.7-0.1-26.4-11.9-26.3-26.4c0.1-14.6,11.9-26.2,26.4-26.2c14.3,0,26.3,11.8,26.2,26.4
		C187.5,727.8,175.4,739.5,161.1,739.4z"/>
</g>
</svg>
