<?xml version="1.0" encoding="utf-8"?>
<!-- Generator: Adobe Illustrator 27.2.0, SVG Export Plug-In . SVG Version: 6.00 Build 0)  -->
<svg version="1.1" id="Capa_1" xmlns="http://www.w3.org/2000/svg" xmlns:xlink="http://www.w3.org/1999/xlink" x="0px" y="0px"
	 viewBox="0 0 300 300" style="enable-background:new 0 0 300 300;" xml:space="preserve">
<style type="text/css">
	.st0{fill:#00B89D;}
</style>
<g>
	<g>
		<path class="st0" d="M4.1,156.6c2.3-4.9,6.2-6.7,11.5-6.3c4.6,0.3,9.3,0,14,0.1c5.8,0,9.3,3.5,9.3,9.2c0,1.6,0,3.2,0,5.1
			c2.6,0,5,0.2,7.3-0.1c1-0.1,2.1-1.1,2.8-1.9c15.9-18.7,43.5-20.5,61.6-3.9c0.4,0.4,0.9,0.7,1.2,1.2c2.6,4.7,6.8,5,11.6,4.8
			c11.9-0.3,23.8-0.2,35.7,0c8.5,0.1,15.4,6.4,16.6,14.8c1.2,7.9-3.8,16-11.6,18.4c-2,0.6-4.3,0.9-6.4,0.9c-15.6,0.1-31.2,0-46.8,0
			c-1,0-2.1,0-3.4,0c-0.1,6.1,1.4,11.6,4.3,16.7c6.7,11.4,16.8,17.5,30,17.5c25.6,0.2,51.2,0,76.8,0.1c7.2,0,12.6,3.4,15.6,10
			c3,6.5,2,12.7-2.5,18.1c-3.5,4.3-8.3,6.1-13.9,6.1c-23.5,0-47,0-70.5,0c-14.7,0-29.3,0-44,0c-1.5,0-3-0.2-4.5-0.7
			c-16-5.1-32-10.3-48.1-15.2c-3.7-1.1-7.7-1.1-12-1.7c0,6,0,11.2,0,16.4c0,6.5-3.4,9.8-9.9,9.8c-4.5,0-9-0.2-13.4,0.1
			c-5.3,0.3-9.2-1.4-11.5-6.3C4.1,231.9,4.1,194.2,4.1,156.6z"/>
	</g>
	<g>
		<path class="st0" d="M251.9,241.5c-3.5-11.2-10.3-19.4-21.4-23.3c-4-1.4-8.5-2.1-12.8-2.2c-16.7-0.2-33.5-0.1-50.2-0.1
			c-1,0-2.1,0-3.1,0c6.7-1.7,12.7-4.5,17.7-9.2c10.4-9.7,13.8-24.4,8.6-37.7c-5-12.8-17.6-21.5-31.5-21.6c-11-0.1-22.1,0-33.1-0.1
			c-1.1,0-2.5-0.3-3.3-1c-15.5-13.1-28.7-17.4-49.6-15.7c0-1,0-2,0-3c0-32.8,0-65.7,0-98.5c0-6.9,3.2-10.2,10.1-10.2
			c22.2,0,44.3,0,67,0c0,1.2,0,2.3,0,3.3c0,21.1,0,42.3,0,63.4c0,7.2,3.2,10.4,10.5,10.4c16,0,32,0,48,0c6.8,0,10.1-3.3,10.1-10.2
			c0-21.1,0-42.3,0-63.4c0-1,0-2.1,0-3.5c1.1,0,2.1,0,3.1,0c21.5,0,43,0,64.5,0c6.7,0,10,3.3,10,10c0,67.6,0,135.1,0,202.7
			c0,6.7-3.3,10-10,10c-11.2,0-22.5,0-33.7,0C252.5,241.6,252.3,241.5,251.9,241.5z"/>
	</g>
	<g>
		<path class="st0" d="M201.5,19.1c0,20,0,39.7,0,59.6c-11.3,0-22.5,0-33.9,0c0-19.8,0-39.6,0-59.6C178.8,19.1,190,19.1,201.5,19.1z
			"/>
	</g>
</g>
</svg>
