<?xml version="1.0" encoding="utf-8"?>
<!-- Generator: Adobe Illustrator 27.2.0, SVG Export Plug-In . SVG Version: 6.00 Build 0)  -->
<svg version="1.1" id="Capa_1" xmlns="http://www.w3.org/2000/svg" xmlns:xlink="http://www.w3.org/1999/xlink" x="0px" y="0px"
	 viewBox="0 0 300 300" style="enable-background:new 0 0 300 300;" xml:space="preserve">
<style type="text/css">
	.st0{fill:#FFFFFF;}
	.st1{opacity:0.6;}
</style>
<g>
	<polygon class="st0" points="50.3,222 62.2,245.9 88.7,249.9 69.5,268.5 74.1,294.8 50.3,282.4 26.6,294.8 31.2,268.5 12,249.9 
		38.5,245.9 	"/>
	<polygon class="st0" points="150.1,222 161.9,245.9 188.3,249.9 169.2,268.5 173.8,294.8 150.1,282.4 126.4,294.8 130.9,268.5 
		111.7,249.9 138.2,245.9 	"/>
	<polygon class="st0" points="249.8,222 261.6,245.9 288,249.9 268.9,268.5 273.4,294.8 249.8,282.4 226.1,294.8 230.6,268.5 
		211.4,249.9 237.9,245.9 	"/>
</g>
<g class="st1">
	<path class="st0" d="M112.9,179.2c-1.6-0.3-3.3-0.6-4.9-1c-10.1-2.8-16.5-10.6-17-21.3c-0.5-10.9,0.7-21.7,4.9-32
		c2.7-6.6,6.6-12.3,13.1-15.8c4.1-2.2,8.4-3.1,12.9-3.1c1.4,0,2.9,0.7,4.2,1.5c2.1,1.2,4.1,2.6,6,3.8c11.9,7.3,23.7,7.3,35.6,0
		c1.6-1,3.4-2,4.9-3.1c2.8-2.1,5.9-2.4,9.3-1.9c9.2,1.4,15.7,6.4,20.1,14.4c4,7.2,5.7,15,6.5,23c0.3,4.1,0.6,8.3,0.6,12.4
		c-0.1,12.3-8.6,21.5-20.9,22.9c-0.3,0-0.6,0.1-0.9,0.2C162.6,179.2,137.7,179.2,112.9,179.2z"/>
	<path class="st0" d="M149.2,105.9c-19.1-0.1-34.3-15.5-34.2-34.3c0.1-18.9,15.5-33.9,34.3-33.9c18.6,0,34.2,15.3,34,34.3
		C183.4,90.8,167.7,106,149.2,105.9z"/>
</g>
</svg>
