<?xml version="1.0" encoding="UTF-8"?>
<svg id="Capa_1" xmlns="http://www.w3.org/2000/svg" version="1.1" viewBox="0 0 300 300">
  <!-- Generator: Adobe Illustrator 30.3.0, SVG Export Plug-In . SVG Version: 2.1.3 Build 182)  -->
  <defs>
    <style>
      .st0, .st1 {
        fill: #ff3145;
      }

      .st2 {
        fill: #fff;
      }

      .st3 {
        fill: #e64446;
      }

      .st1 {
        isolation: isolate;
        opacity: .2;
      }

      .st4 {
        display: none;
      }
    </style>
  </defs>
  <g id="Capa_2" class="st4">
    <rect class="st0" width="300" height="300"/>
  </g>
  <path class="st2" d="M295.8,101.2c-.8-6.8-5.9-11.7-12.6-11.9-8.8-.2-17.6-.1-26.4,0-2.1,0-2.8-.6-3.1-2.7-2.3-14.6-4.8-29.2-7.3-43.8-3.3-19.1-19-32.9-38.3-33-39-.2-78.1-.2-117.1,0-18,.1-33.8,13.2-37.2,30.8-2.9,15.2-5,30.6-7.4,46-.3,2.1-1.1,2.7-3.1,2.7-8.6-.1-17.2-.1-25.8,0-7.5.1-13.1,5.6-13.4,12.9-.2,6.9,4.9,12.7,12,13.4h5.5c.4,8.6,1.6,33.1,1.8,36.3l1.2,14.2c1.2,14.3,2.4,35.1,3.7,49.7.2,1.9.3,3.9.4,5.8.5,6.3.9,12.8,2.3,19.4,6.8,32.8,34.2,55,68.2,55.2,11.8.1,23.7.1,35.3,0h21.5c3.5,0,7,.1,10.5.1,5.4,0,10.8.1,16.3.1,6.8,0,13.7-.1,20.6-.3,28.5-1,50-15.7,62.1-42.3,4.4-9.7,5.1-19.4,5.9-28.9,1.3-17.9,2.8-42.2,4.2-59.8.6-6.9,1.1-42.1,1.7-49.1v-.6c5.6,0,8.8-.1,9-.1,6.1-1.9,10.2-8,9.5-14.1ZM76.2,68.8c1.2-6.9,2.4-13.9,3.5-20.8,1.3-7.3,6.3-11.8,13.8-11.8,37.9-.1,75.8-.1,113.7,0,7.2,0,12.5,4.6,13.6,11.6,2.1,13.3,4.1,26.6,6.2,39.9.1.4,0,.8,0,1.5H72.9c1.1-6.9,2.2-13.7,3.3-20.4ZM256.7,116.2v.5c-.5,6.9-1.1,39.8-1.6,46.7-1.4,17.7-2.9,41.9-4.2,60-.6,7.9-1.2,15.5-4,21.8-8.9,19.6-23.4,29.5-44.2,30.3-11.9.4-24.1.3-35.9.2-5.5,0-10.9-.1-16.4-.1h-51c-24-.2-43.4-15.8-48.2-38.8-1.1-5.2-1.5-10.8-1.9-16.7-.1-2-.3-4.1-.5-6.1-1.3-14.5-2.5-35.3-3.7-49.6l-1.1-14.2c-.3-3.1-1.4-27-1.7-34.5,50.5,0,161.3,0,214.5-.2-.1.2-.1.4-.1.7Z"/>
  <path class="st3" d="M256.7,116.2v.5c-.5,6.9-1.1,39.8-1.6,46.7-1.4,17.7-2.9,41.9-4.2,60-.6,7.9-1.2,15.5-4,21.8-8.9,19.6-23.4,29.5-44.2,30.3-11.9.4-24.1.3-35.9.2-5.5,0-10.9-.1-16.4-.1h-51c-24-.2-43.4-15.8-48.2-38.8-1.1-5.2-1.5-10.8-1.9-16.7-.1-2-.3-4.1-.5-6.1-1.3-14.5-2.5-35.3-3.7-49.6l-1.1-14.2c-.3-3.1-1.4-27-1.7-34.5,50.5,0,161.3,0,214.5-.2-.1.2-.1.4-.1.7Z"/>
  <path class="st1" d="M13.3,115c.9.3,1.8.5,2.8.6h5.5c.4,8.6,1.6,33.1,1.8,36.3l1.2,14.2c1.2,14.3,2.4,35.1,3.7,49.7.2,1.9.3,3.9.4,5.8.5,6.3.9,12.8,2.3,19.4,6.8,32.8,34.2,55,68.2,55.2,11.8.1,23.7.1,35.3,0h21.5c3.5,0,7,.1,10.5.1,5.4,0,10.8.1,16.3.1,6.8,0,13.7-.1,20.6-.3,28.5-1,50-15.7,62.1-42.3,4.4-9.7,5.1-19.4,5.9-28.9,1.3-17.9,2.8-42.2,4.2-59.8.6-6.9,1.1-42.1,1.7-49.1v-.6c5.6,0,8.8-.1,9-.1.2-.1.4-.1.6-.2H13.3v-.1ZM255,163.4c-1.4,17.7-2.9,41.9-4.2,60-.6,7.9-1.2,15.5-4,21.8-8.9,19.6-23.4,29.5-44.2,30.3-11.9.4-24.1.3-35.9.2-5.5,0-10.9-.1-16.4-.1h-51c-24-.2-43.4-15.8-48.2-38.8-1.1-5.2-1.5-10.8-1.9-16.7-.1-2-.3-4.1-.5-6.1-1.3-14.5-2.5-35.3-3.7-49.6l-1.2-14.2c-.3-3.1-1.4-27-1.7-34.5,50.5,0,161.3,0,214.5-.2v1.2c-.5,6.9-1.1,39.8-1.6,46.7Z"/>
  <path class="st2" d="M173.5,39.9h-46.9c-3,0-5.3-2.4-5.3-5.3V10.3c0-3,2.4-5.3,5.3-5.3h46.9c3,0,5.3,2.4,5.3,5.3v24.2c0,3-2.4,5.4-5.3,5.4Z"/>
</svg>