<?xml version="1.0" encoding="UTF-8"?>
<svg id="Capa_1" xmlns="http://www.w3.org/2000/svg" version="1.1" viewBox="0 0 300 300">
  <!-- Generator: Adobe Illustrator 30.4.0, SVG Export Plug-In . SVG Version: 2.1.4 Build 226)  -->
  <defs>
    <style>
      .st0 {
        opacity: .89;
      }

      .st0, .st1 {
        fill: #ff4547;
      }

      .st2 {
        fill: #db3c3c;
      }

      .st3 {
        fill: #ff3145;
      }

      .st4 {
        display: none;
      }

      .st5 {
        fill: #f43c3c;
      }
    </style>
  </defs>
  <g id="Capa_2" class="st4">
    <rect class="st3" width="300" height="300"/>
  </g>
  <path class="st0" d="M149.56,275.6h.85c5.5,0,10.9.1,16.4.1,11.8.1,24,.2,35.9-.2,20.8-.8,35.3-10.7,44.2-30.3,2.8-6.3,3.4-13.9,4-21.8,1.3-18.1,2.8-42.3,4.2-60,.5-6.9,1.1-39.8,1.6-46.7v-.5c0-.3,0-.5.1-.7-26.38.1-66.92.15-107.25.17v159.93Z"/>
  <path class="st2" d="M149.56,115.67c-41,.03-81.79.03-107.25.03.3,7.5,1.4,31.4,1.7,34.5l1.1,14.2c1.2,14.3,2.4,35.1,3.7,49.6.2,2,.4,4.1.5,6.1.4,5.9.8,11.5,1.9,16.7,4.8,23,24.2,38.6,48.2,38.8h50.15V115.67Z"/>
  <path class="st5" d="M150.01,275.6h-50.6c-24-.2-43.4-15.8-48.2-38.8-1.1-5.2-1.5-10.8-1.9-16.7-.1-2-.3-4.1-.5-6.1-1.3-14.5-2.5-35.3-3.7-49.6l-1.1-14.2c-.3-3.1-1.4-27-1.7-34.5h7.29c25.67,0,62.97,0,100.41-.03v-26.47h-77.1c1.1-6.9,2.2-13.7,3.3-20.4,1.2-6.9,2.4-13.9,3.5-20.8,1.3-7.3,6.3-11.8,13.8-11.8,9.35-.02,18.71-.02,28.06-.04.66,2.15,2.61,3.74,5.04,3.74h23.4V5h-23.4c-2.7,0-4.93,2-5.24,4.69-10.12.02-20.25.06-30.36.11-18,.1-33.8,13.2-37.2,30.8-2.9,15.2-5,30.6-7.4,46-.3,2.1-1.1,2.7-3.1,2.7-8.6-.1-17.2-.1-25.8,0-7.5.1-13.1,5.6-13.4,12.9-.17,5.95,3.6,11.08,9.2,12.82v.08h.22c.82.24,1.69.41,2.58.5h5.5c.04.81.08,1.75.13,2.81.03.7.07,1.46.11,2.25.11,2.37.25,5.1.38,7.94.48,9.93,1.05,21.21,1.18,23.31l1.2,14.2c1.2,14.3,2.4,35.1,3.7,49.7.1.95.17,1.92.24,2.9.06.98.11,1.95.16,2.9.38,4.72.69,9.56,1.42,14.47.24,1.64.53,3.28.88,4.93,3.61,17.42,13.04,31.86,26.18,41.59,1.55,1.15,3.14,2.22,4.79,3.24.82.51,1.66,1,2.5,1.47,3.39,1.89,6.96,3.5,10.68,4.81.93.33,1.87.64,2.83.93,6.66,2.03,13.78,3.13,21.22,3.17,2.95.03,5.91.04,8.86.06,8.87.04,17.74.02,26.44-.06h15.5v-20.6Z"/>
  <path class="st1" d="M283.21,89.3c-8.8-.2-17.6-.1-26.4,0-2.1,0-2.8-.6-3.1-2.7-2.3-14.6-4.8-29.2-7.3-43.8-3.3-19.1-19-32.9-38.3-33-9.78-.05-19.57-.09-29.36-.11-.3-2.61-2.46-4.69-5.24-4.69h-23.5v34.9h23.5c2.33,0,4.32-1.57,5.02-3.74,9.56.01,19.12.01,28.68.04,7.2,0,12.5,4.6,13.6,11.6,2.1,13.3,4.1,26.6,6.2,39.9.1.4,0,.8,0,1.5h-77v26.47c40.08-.03,80.31-.08,106.6-.17v1.2c-.5,6.9-1.1,39.8-1.6,46.7-1.4,17.7-2.9,41.9-4.2,60-.6,7.9-1.2,15.5-4,21.8-8.9,19.6-23.4,29.5-44.2,30.3-5.94.2-11.96.27-17.97.29-5.99.01-11.96-.04-17.83-.09-5.5,0-10.9-.1-16.4-.1h-.4v20.6h6c3.5,0,7,.1,10.5.1,5.4,0,10.8.1,16.3.1,3.4,0,6.83-.03,10.26-.08s6.89-.12,10.34-.22c19.59-.69,35.88-7.85,48.08-20.9.55-.59,1.1-1.2,1.64-1.82,2.15-2.47,4.16-5.13,6.04-7.99.94-1.43,1.84-2.9,2.7-4.42.87-1.52,1.69-3.09,2.49-4.71.4-.81.78-1.63,1.16-2.46,4.4-9.7,5.1-19.4,5.9-28.9,1.3-17.9,2.8-42.2,4.2-59.8.09-1.08.19-2.85.27-5.09.04-.9.07-1.87.11-2.91.14-4.14.28-9.29.42-14.54.03-1.31.07-2.63.1-3.95.14-5.26.28-10.4.42-14.56.04-1.04.07-2.02.11-2.92.09-2.26.18-4.04.27-5.13v-.6c1.05,0,2.02,0,2.89,0,.29,0,.58,0,.85,0,1.09,0,2.02-.02,2.78-.03.19,0,.37,0,.54,0,1.19-.02,1.85-.04,1.93-.04.2-.1.4-.1.6-.2h-.05c5.79-2.09,9.62-7.99,8.95-13.9-.8-6.8-5.9-11.7-12.6-11.9Z"/>
</svg>