<?xml version="1.0" encoding="UTF-8"?>
<svg id="Capa_1" xmlns="http://www.w3.org/2000/svg" version="1.1" viewBox="0 0 300 300">
  <!-- Generator: Adobe Illustrator 30.4.0, SVG Export Plug-In . SVG Version: 2.1.4 Build 226)  -->
  <defs>
    <style>
      .st0 {
        fill: #b43d78;
      }
    </style>
  </defs>
  <path class="st0" d="M153.2,11.76c10.84,1.58,19.44,10.43,20.79,21.18,1.43,11.34-4.99,22-15.93,26l-.02,34.01c9.28-1.74,16.76-7,22.83-14.08l13.78-17.49c7.99-10.14,19.78-15.93,32.99-15.97l60.36-.17c-.24,17.34-13.78,32.23-31.32,32.28l-41.5.12v16.18s39.6.04,39.6.04c-3.87,18.06-19.3,32.13-37.98,32.22l-57.21.29,6.89.68c16.2,1.59,38,5.96,49.67,17.05,6.02,5.71,8.4,14.05,5.08,21.71-4.57,10.56-17.7,16.07-28.51,19.62,3.85,2.8,6.93,5.44,9.48,8.87,6.07,8.21,5.72,18.85-.73,26.81-4.65,5.74-10.78,9.6-17.95,12.57,5.41,4.81,8.12,11.49,6.32,18.38-3.21,12.3-19.26,18.08-31.78,19.5v16.67h-16.18v-16.66c-13.69-1.54-31.42-8.49-32.3-22.58-.37-5.97,2.25-11.21,6.86-15.33-7.32-3.01-13.55-6.95-18.21-12.87-6.15-7.81-6.49-18.12-.71-26.19,2.57-3.59,5.73-6.28,9.74-9.21-8.55-2.73-16.58-6.12-23.08-11.97-8.97-8.07-9.31-20.75-.63-29.09,11.79-11.33,33.45-15.58,49.91-17.29l6.89-.71-56.13-.17c-19.06-.06-35.14-13.78-39.07-32.32l39.6-.02v-16.21s-39.88.05-39.88.05c-16.7.02-30.39-11.99-32.88-28.11v-4.32l60.3.17c13.92.04,25.83,6.72,34.21,17.45l12.29,15.75c6.09,7.19,13.71,12.55,23.09,14.35l-.02-34c-10.96-4.02-17.35-14.68-15.94-26.01s9.89-19.35,20.81-21.19h6.47ZM108.46,168.73c11.08,3.29,21.95,5.17,33.42,5.94v-32.06c-12.21.92-23.85,2.98-35.34,6.48-4.12,1.48-7.69,3.13-11.23,5.52-.98,1.25-2.01,2.93-1.93,4.22.27,4.51,9.17,7.83,15.08,9.9ZM204.95,162.31c2.16-2.63,1.94-5.09-.23-7.36-3.52-2.62-7.5-4.4-11.84-5.93-11.43-3.63-23.12-5.66-34.83-6.39v32.04c12.64-.98,24.7-3.08,36.54-6.9,3.75-1.43,7.19-3.06,10.36-5.47ZM141.88,223.06v-31.64c-7.89.67-15.3,2.5-22.45,5.69-3.16,1.68-6.01,3.66-8.36,6.17-1.92,2.62-1.94,5.3.01,7.92,7.4,7.87,19.87,10.74,30.81,11.87ZM188.99,211.08c1.88-2.78,1.69-5.29-.13-7.8-7.41-7.92-19.83-10.72-30.81-11.87v31.66c10.92-1.17,23.4-3.89,30.94-11.99ZM141.87,255.26l.03-15.07c-5.39,1.06-10.1,2.63-14.75,5.13-.65.82-1.41,1.88-1.41,2.58-.02,2.93,10.47,6.4,16.14,7.35ZM174.22,247.52c-.8-3.4-10.88-6.39-16.17-7.26v15.02c5.95-1.08,16.9-4.64,16.17-7.77Z"/>
</svg>