<?xml version="1.0" encoding="utf-8"?>
<!-- Generator: Adobe Illustrator 27.2.0, SVG Export Plug-In . SVG Version: 6.00 Build 0)  -->
<svg version="1.1" id="Capa_1" xmlns="http://www.w3.org/2000/svg" xmlns:xlink="http://www.w3.org/1999/xlink" x="0px" y="0px"
	 viewBox="0 0 300 300" style="enable-background:new 0 0 300 300;" xml:space="preserve">
<style type="text/css">
	.st0{fill:#FFFFFF;}
</style>
<g>
	<g>
		<path class="st0" d="M298,194.3c-1.3,5.8-2.2,11.7-4.1,17.3c-10.3,30.9-40.2,51.8-73.7,49.9c-36.5-2-63.6-29.5-68.9-61.4
			c-6.7-40.7,20.7-78.9,61.4-85.3c41.2-6.5,80.1,23.1,84.7,64.3c0.1,0.8,0.4,1.7,0.5,2.5C298,185.9,298,190.1,298,194.3z
			 M194.4,172.8c-7.5,1.9-9.6,4.6-9.6,12.4c0,11.7,0,23.5,0,35.2c0,8.1,3.6,11.7,11.8,11.7c18.4,0,36.7,0,55.1,0
			c1.1,0,2.3,0,3.4-0.2c4.6-0.7,8.2-4.3,8.2-9c0.1-13.6,0.1-27.1,0-40.7c0-4.3-2.9-7.6-7-8.8c-0.9-0.3-1.8-0.5-2.8-0.8
			c0-3.6,0.1-7.1,0-10.5c-0.4-14.8-12.2-27.3-26.7-28.4c-15.2-1.2-29,8.9-31.5,23.6C194.4,162.4,194.6,167.5,194.4,172.8z"/>
	</g>
	<g>
		<path class="st0" d="M2.6,114.1c54.7,0,109,0,163.9,0c-20.3,16.8-32.4,37.6-35.3,63.3c-2.9,25.7,4.2,48.6,20.1,69.3
			c-1.3,0.1-2.2,0.1-3.1,0.1c-41.5,0-83.1,0-124.6,0c-12.9,0-21-8.2-21-21.1c0-36.2,0-72.3,0-108.5C2.6,116.3,2.6,115.4,2.6,114.1z
			 M22.4,227c29.6,0,58.9,0,88.4,0c0-4.9,0-9.6,0-14.5c-29.6,0-58.9,0-88.4,0C22.4,217.4,22.4,222.1,22.4,227z M22.2,197.5
			c21.5,0,42.7,0,63.8,0c0-5,0-9.7,0-14.5c-21.3,0-42.4,0-63.6,0c-0.1,0.5-0.2,0.9-0.2,1.2C22.2,188.6,22.2,192.9,22.2,197.5z"/>
	</g>
	<g>
		<path class="st0" d="M2.6,94c0-8.8-0.3-17.5,0.1-26.1c0.5-9.9,9-17.6,18.9-17.9c0.6,0,1.2,0,1.7,0c81.3,0,162.7,0,244,0
			c9.9,0,17.3,5.2,19.9,13.9c0.4,1.4,0.8,2.8,0.8,4.2c0.1,7.6,0.1,15.2,0.1,22.8c0,1,0,1.9,0,3.1C193,94,98,94,2.6,94z"/>
	</g>
	<g>
		<path class="st0" d="M238.7,172.9c-9.7,0-19.3,0-29.2,0c0-5.5-1.1-11.1,1.5-16.3c2.9-5.9,9.1-9,15.8-7.9c6.1,1,11.2,6,11.8,12.4
			C239,164.9,238.7,168.7,238.7,172.9z"/>
	</g>
</g>
</svg>
