<?xml version="1.0" encoding="utf-8"?>
<!-- Generator: Adobe Illustrator 30.3.0, SVG Export Plug-In . SVG Version: 9.03 Build 0)  -->
<svg version="1.0" id="Capa_1" xmlns="http://www.w3.org/2000/svg" xmlns:xlink="http://www.w3.org/1999/xlink" x="0px" y="0px"
	 viewBox="0 0 300 300" style="enable-background:new 0 0 300 300;" xml:space="preserve">
<style type="text/css">
	.st0{fill:#8CB81F;}
	.st1{fill:#FFFFFF;}
</style>
<g>
	<path class="st0" d="M-413.57,171.6c1-6.3,1.8-12.6,3-18.8c0.7-4,1.8-7.9,2.9-11.8c1-3.7,4.1-5.6,7.4-4.6c3.2,0.9,4.7,4,3.8,7.7
		c-1.4,6.3-2.8,12.6-4.2,18.9c-0.6,2.5-0.1,4.1,2.3,5.7c14.1,9.4,28.1,19,42.1,28.5c0.7,0.5,1.4,0.9,2.5,1.6
		c5.4-5.4,10.5-11,16.1-16.1c3.4-3.1,4.7-6.4,4.6-11c-0.3-11.3-0.1-24.8-0.2-36c0-1.2-0.4-2.8-1.1-3.6l-38-38.9
		c-1.8,2.9-3.5,5.8-5.3,8.7c-2.2,3.5-5.5,4.6-8.5,2.8c-3-1.8-3.6-5.2-1.5-8.8c15.1-25.5,33.7-48.3,55.4-68.6
		c3.6-3.4,6.1-3.4,9.9-0.1c24.6,21.6,44.6,46.8,59.7,75.8c0.5,0.9,1,1.8,1.7,3.2c2.3-2.4,4.4-4.6,6.6-6.8c4.6-4.6,9.2-9.3,13.9-13.9
		c17.6-17.3,45.3-17.4,62.6-0.1c17.2,17.1,17.5,44.8,0.3,62.5c-11.7,12-23.7,23.8-35.5,35.6c-0.7,0.7-1.7,1.3-2.5,1.9
		c0.1,0.4,0.3,0.7,0.4,1.1c1.1,0,2.1,0,3.2,0c16.3,0,32.6-0.1,48.9,0c22.3,0.1,39.9,14.1,44.5,35.1c5.9,27-14.7,53.2-42.4,53.5
		c-20.8,0.3-41.6,0.1-62.4,0.1c-34.9,0-69.8,0.5-104.6-0.2c-34.7-0.7-59.4-18.1-75.1-48.7c-5.7-11.2-8.8-23.2-9.9-35.7
		c-0.1-0.9-0.3-1.8-0.5-2.8C-413.57,182.4-413.57,177-413.57,171.6z M-248.47,198.1c-7.2,0-14.1,0-21,0c-18.6,0-37.2-0.3-55.8,0.2
		c-18.5,0.4-33,18.5-30.2,36.7c2.7,17,15.8,28.4,33.2,28.5c23.6,0.1,47.2,0,70.8,0c0.9,0,1.9-0.1,3-0.1
		C-248.47,241.6-248.47,220.1-248.47,198.1z M-285.47,147.2c0.9,0.6,2,1,2.7,1.7c10.9,10.9,22,21.6,32.6,32.7
		c3.4,3.6,6.9,5,11.8,4.9c4.1-0.1,7.1-1.2,10-4.2c14.3-14.7,29.2-28.9,43.3-43.7c14.2-14.9,10.3-39.4-7.3-49.9
		c-13.1-7.8-28.9-5.9-40.1,5.1c-17.2,17-34.2,34.1-51.3,51.2C-284.07,145.5-284.47,146-285.47,147.2z M-236.47,236.5
		c0,9.1,0,17.9,0,27c1.3,0,2.4,0,3.6,0c22.8,0,45.7,0,68.5,0c2.5,0,5-0.2,7.5-0.5c16.9-2.2,29.8-19.2,27.4-35.9
		c-2.5-17.5-15.6-28.9-33.4-28.9c-23.7-0.1-47.4,0-71.1,0c-0.8,0-1.7,0.1-2.5,0.2c0,8.9,0,17.6,0,26.6c1.2,0,2.2,0,3.3,0
		c16.1,0,32.2,0,48.3,0c1.3,0,2.7,0.1,4,0.5c2.6,0.8,4.1,3.5,3.8,6.1c-0.4,2.7-2.4,4.7-5.2,5c-1,0.1-1.9,0.1-2.9,0.1
		c-16,0-32,0-48,0C-234.27,236.5-235.37,236.5-236.47,236.5z M-321.37,166c0.8-0.6,1.2-0.9,1.6-1.3c16.1-16.1,32.3-32.3,48.5-48.4
		c1.5-1.5,0.9-2.6,0.2-4c-11.6-23.7-27.2-44.6-45.5-63.6c-1.4-1.5-2.8-3.1-4.2-4.6c-0.2,0.2-0.4,0.3-0.6,0.5
		C-321.37,84.9-321.37,125.2-321.37,166z M-361.27,207.9c-13.5-9.2-26.8-18.2-40.5-27.5c-0.3,35.1,19.7,64.7,41.1,74.2
		C-369.67,239.3-369.37,222.6-361.27,207.9z M-333.47,115.7c0-24.6,0-46.5,0-70.6c-0.3-0.2-0.5-0.3-0.8-0.5
		c-10.5,12.6-21.1,25.2-31.7,38L-333.47,115.7z M-262.67,186.2c-10.4-10.4-20.6-20.7-30.6-30.7c-10.1,10.1-20.4,20.4-30.6,30.7
		C-303.67,186.2-283.17,186.2-262.67,186.2z"/>
	<path class="st0" d="M-185.77,118.7c-0.4,7.1-4.4,13-10,17.8c-2.1,1.9-5.4,1.3-7.4-0.7c-2.1-2.1-2.3-5.2-0.4-7.6
		c1.4-1.9,3.2-3.6,4.5-5.6c2.4-3.7,2.2-5.8-0.3-9.2c-2.4-3.2-2.1-6.6,0.5-8.7c2.7-2.1,6.1-1.6,8.6,1.5
		C-187.47,109.6-185.87,113.5-185.77,118.7z"/>
</g>
<g>
	<path class="st1" d="M293.71,188.08c-9.86-21.31-31.94-32.09-55.74-26.94c-17.41,3.74-14.48,3.15-15.65,3.4
		c-0.2-0.4-0.49-0.68-0.69-1.08c0.71-0.83,1.64-1.7,2.22-2.62c9.8-15.37,19.82-30.79,29.47-46.35
		c14.17-22.94,7.31-52.41-15.06-66.59c-22.53-14.37-52.05-7.73-66.75,14.87c-3.93,6.02-7.73,12.11-11.55,18.1
		c-1.83,2.87-3.55,5.71-5.44,8.81c-1.08-1.33-1.82-2.17-2.57-3.01c-22.95-27.37-50.22-49.53-81.56-66.76
		c-4.83-2.62-7.5-2.03-10.54,2.44C41.5,49.14,27.04,77.85,16.95,108.61c-1.39,4.34,0.05,7.82,3.68,9.03
		c3.62,1.21,6.88-0.74,8.41-4.99c1.24-3.52,2.36-7.01,3.6-10.53l49.71,32.53c0.94,0.69,1.74,2.3,2.02,3.58
		c2.75,11.92,5.72,26.37,8.71,38.35c1.19,4.88,0.58,8.71-2.31,12.82c-4.77,6.76-8.89,13.94-13.37,20.97
		c-1.34-0.49-2.18-0.75-3.04-1.12c-17.17-6.83-34.37-13.77-51.63-20.47c-2.94-1.14-3.85-2.73-3.8-5.54
		c0.01-7.05,0.01-14.1,0.02-21.15c0.09-4.16-2.24-7.11-5.87-7.32c-3.76-0.29-6.61,2.47-6.81,6.65c-0.25,4.42-0.51,8.84-0.31,13.27
		c0.18,6.9,0.82,13.8,1.24,20.76c1.27,5.76,2.55,11.52,3.93,17.26c0.45,1.02,0.87,1.93,1.19,2.87
		c4.12,13.07,10.26,25.14,18.98,35.74c23.96,28.93,54.41,41.67,91.59,34.23c37.28-7.46,111.61-24.46,111.61-24.46
		s4.5-0.71,26.62-5.94C290.58,248.29,306.38,215.49,293.71,188.08z M181.99,69.76c9.35-14.37,25.75-20.13,41.57-14.9
		c21.25,7.05,31.19,32.26,19.56,51.5c-11.55,19.11-24.09,37.77-35.87,56.83c-2.39,3.88-5.33,5.76-9.68,6.84
		c-5.2,1.26-9.27,0.6-13.74-2.44c-13.92-9.34-28.29-18.13-42.49-27.19c-0.91-0.58-2.18-0.75-3.28-1.18
		c0.78-1.52,1.09-2.14,1.29-2.75C153.56,114.19,167.66,91.94,181.99,69.76z M171.58,175.43c-21.87,4.84-43.73,9.67-65.28,14.44
		c8.45-13.39,17.01-26.81,25.4-39.96C144.73,158.21,158.03,166.79,171.58,175.43z M36.96,89.3c8.29-16.15,16.62-32.09,24.85-48.01
		c0.37,0.14,0.6,0.2,0.97,0.34c5.69,25.7,10.85,49.06,16.66,75.3L36.96,89.3z M75.57,38.25c0.17-0.26,0.36-0.41,0.52-0.67
		c1.85,1.27,3.72,2.65,5.56,3.92c24,15.95,45.57,34.56,63.53,57.1c1.08,1.33,1.98,2.36,0.73,4.31
		c-13.48,20.99-26.94,42.09-40.31,63.06c-0.33,0.52-0.69,0.94-1.4,1.76C94.58,124.22,85.07,81.24,75.57,38.25z M21.85,202.06
		c16.81,6.69,33.12,13.15,49.68,19.78c-5.17,17.59-1.55,35.47,11.66,49.67C58.13,266.42,29.81,239.57,21.85,202.06z M201.76,255.24
		c-25.17,5.57-50.32,11.24-75.51,16.7c-18.58,4-35.24-5.07-42.13-22.57c-7.28-18.75,3.92-41.48,23.55-46.27
		c19.72-4.92,39.63-8.99,59.47-13.38c7.36-1.63,14.72-3.26,22.4-4.95c5.19,23.47,10.26,46.4,15.41,69.65
		C203.77,254.68,202.72,255.03,201.76,255.24z M262.63,241.27c-2.6,0.91-41.03,9.58-41.03,9.58s-2.45,0.54-3.84,0.85
		c-2.15-9.71-4.22-19.09-6.37-28.8c0,0,20.85-4.86,21.9-5.2c2.92-0.98,4.58-3.59,4.37-6.56c-0.29-2.84-2.53-5.37-5.49-5.61
		c-1.48-0.12-3,0.1-4.38,0.41c0,0-17.82,4.41-19.1,4.69c-2.12-9.6-4.18-18.88-6.28-28.37c0.83-0.3,1.77-0.61,2.62-0.8l35.92-7.89
		c18.99-4.2,35.65,4.87,42.44,22.95C289.88,213.77,280.14,234.94,262.63,241.27z"/>
	<path class="st1" d="M221.92,82.85c3.47,3.04,4.18,5.23,2.49,9.74c-0.91,2.44-2.43,4.68-3.48,7.03c-1.46,3.01-0.52,6.27,2.22,8.01
		c2.61,1.66,6.27,1.52,8.06-1c4.84-6.44,7.72-13.68,6.47-21.34c-1.33-5.52-3.96-9.3-7.75-12.27c-3.4-2.72-7.14-2.45-9.53,0.43
		C218.12,76.31,218.61,80,221.92,82.85z"/>
</g>
</svg>
