<?xml version="1.0" encoding="utf-8"?>
<!-- Generator: Adobe Illustrator 27.2.0, SVG Export Plug-In . SVG Version: 6.00 Build 0)  -->
<svg version="1.1" id="Capa_1" xmlns="http://www.w3.org/2000/svg" xmlns:xlink="http://www.w3.org/1999/xlink" x="0px" y="0px"
	 viewBox="0 0 300 300" style="enable-background:new 0 0 300 300;" xml:space="preserve">
<style type="text/css">
	.st0{fill:#00B89D;}
</style>
<g>
	<g>
		<path class="st0" d="M3.5,160.6c0-22.5,0-45,0-67.4c0-7,3.4-9.5,10-7.5c10,3.1,19.9,6.3,29.8,9.5c5.3,1.7,5.8,2.4,5.8,7.8
			c0,14.2,0,58.3,0,72.4c0,4.6,0.9,5,5,3c7.3-3.6,5.7-3.9,10.4,2.7c1.2,1.7,2.4,3.6,3.7,5.2c0.4,0.5,1.6,1.1,2.1,0.9
			c0.7-0.3,1.3-1.2,1.6-2c0.3-0.9,0.1-1.9,0.1-2.8c0-13.7,0-57.3,0-71c0-5.3,1.8-6.8,6.8-5.2c13.2,4.2,26.5,8.4,39.7,12.7
			c7.8,2.5,10.6,6.5,10.6,14.8c0,43.9,0,87.8,0,131.6c0,8.5-4.4,11.8-12.4,9.2c-34.5-11-68.9-22.1-103.4-33.1
			c-7.2-2.3-9.8-6-9.8-13.7C3.5,205.3,3.5,183,3.5,160.6z"/>
	</g>
	<g>
		<path class="st0" d="M151.9,198.8c0-21.9,0-43.8,0-65.6c0-8.1,2.9-12,10.5-14.4c34.9-11.1,69.9-22.1,104.9-33.2
			c6.8-2.1,10.2,0.4,10.2,7.6c0,18.7,0,37.3,0,56c0,8.4-4.5,12.1-12.8,10.5c-42.3-8.3-81.3,18.4-88.9,60.8
			c-2.2,12.2-0.9,24.2,3.2,35.8c3.1,8.9,1.1,12.9-8,15.8c-2.6,0.8-5.2,1.7-7.8,2.4c-6.5,1.9-11.2-1.6-11.2-8.3c0-21.6,0-43.3,0-64.9
			C151.9,200.5,151.9,199.6,151.9,198.8z"/>
	</g>
	<g>
		<path class="st0" d="M140.5,103.6c-3.3-0.7-6.6-1.1-9.7-2.2c-12.8-4.3-25.6-8.8-38.3-13.3c-1.2-0.4-2.2-1.8-3.2-2.8
			c1.1-0.9,2.1-2.2,3.3-2.7c36.9-13.4,73.9-26.7,110.9-40c4-1.4,7.8-1.6,11.8-0.4c14.5,4.5,29.1,8.8,43.5,13.4c1.7,0.5,3.9,2.6,4,4
			c0,1.4-2.1,3.6-3.8,4.2c-36.2,12.7-72.4,25.2-108.7,37.7C147.2,102.5,143.8,102.9,140.5,103.6z"/>
	</g>
	<g>
		<path class="st0" d="M141,20.5c5.2,1.3,10.7,2.5,16.1,4c6.7,1.9,13.5,3.8,20.1,6c1.4,0.4,2.5,1.7,3.8,2.5
			c-1.2,0.8-2.3,1.9-3.6,2.4c-27.5,9.3-55.1,18.5-82.7,27.8c-11,3.7-22,7.6-33.1,10.9c-3.1,0.9-6.9,0.9-10,0
			c-10-3-19.8-6.6-29.6-10.2c-1.7-0.6-3.7-2.5-4-4.2c-0.5-2.6,2-3.6,4.3-4.3c35.4-10.7,70.8-21.5,106.3-32.2
			C132.4,22,136.4,21.5,141,20.5z"/>
	</g>
	<g>
		<g>
			<path class="st0" d="M297,228.6c0,2,0,4,0,6c-0.1,1.1-0.3,2.3-0.4,3.4c-1.4,9.7-5.2,18.2-11.7,25.5c-7.5,8.4-16.7,13.6-27.8,15.6
				c-1.8,0.3-3.6,0.5-5.4,0.7c-2,0-4,0-6,0c-0.6-0.1-1.2-0.2-1.9-0.2c-10.1-1.1-19.2-4.9-26.8-11.7c-12.3-11-17.8-24.9-16.4-41.3
				c0.9-10.4,5-19.6,12.1-27.4c9.4-10.3,21.2-15.7,35.2-16.1c9.1-0.2,17.7,2,25.5,6.8c12.5,7.7,20.2,18.7,22.9,33.2
				C296.6,225,296.8,226.8,297,228.6z M248.8,263.3c3.6-4.4,7.2-8.6,10.5-13c4.2-5.4,8.1-11.1,11-17.3c1.9-4.2,2.9-8.5,2-13.2
				c-1.9-9.5-9.1-17-18.6-19.1c-9.3-2-19.1,1.8-24.6,9.8c-3.2,4.7-4.8,9.8-4.1,15.5c0.4,3.6,2,6.9,3.7,10.1
				c3.8,7.2,8.7,13.6,13.9,19.8C244.5,258.3,246.5,260.7,248.8,263.3z"/>
		</g>
		<g>
			<path class="st0" d="M257.7,223.7c0,5-4,9.1-9,9.1c-5,0-9.1-4.1-9.1-9.1c0-5,4.1-9,9.1-9C253.7,214.6,257.7,218.7,257.7,223.7z"
				/>
		</g>
	</g>
</g>
</svg>
