<?xml version="1.0" encoding="utf-8"?>
<!-- Generator: Adobe Illustrator 27.2.0, SVG Export Plug-In . SVG Version: 6.00 Build 0)  -->
<svg version="1.1" id="Capa_1" xmlns="http://www.w3.org/2000/svg" xmlns:xlink="http://www.w3.org/1999/xlink" x="0px" y="0px"
	 viewBox="0 0 300 300" style="enable-background:new 0 0 300 300;" xml:space="preserve">
<style type="text/css">
	.st0{fill:#FF0074;}
</style>
<path class="st0" d="M229.7,156.8c4.4,0,8.8,0,13.2,0c2.9,0,4.7,1.6,4.8,4c0.1,2.5-1.7,4.4-4.8,4.4c-8.7,0.1-17.5,0.1-26.2,0
	c-3,0-4.9-1.8-4.8-4.4c0.1-2.5,1.8-4,4.8-4C221,156.7,225.4,156.8,229.7,156.8z"/>
<path class="st0" d="M230,142.2c2.9,0,5.8-0.1,8.7,0c2.7,0.1,4.4,1.7,4.5,4c0.1,2.5-1.7,4.3-4.5,4.4c-5.8,0.1-11.6,0.1-17.5,0
	c-2.9,0-4.6-1.8-4.6-4.2c0-2.5,1.8-4.1,4.6-4.2C224.2,142.1,227.1,142.2,230,142.2z"/>
<path class="st0" d="M267.8,42.7c-0.2,3.9-1.8,5.2-4.1,6.4c-4.5,2.4-9.4,4.5-13.2,7.8c-3.5,3.1-5.8,7.7-8.5,11.7
	c-0.9,1.4-1.3,3.1-2,4.6c-1,2-2.8,3.4-5,2.8c-1.7-0.4-3.5-1.7-4.6-3s-1.4-3.2-2.2-4.8c-3.6-8.1-9.4-13.9-17.5-17.5
	c-1.5-0.7-3.1-1.3-4.7-2c-2.2-1-3.4-2.6-3.4-5s1.2-4.1,3.4-5c1.5-0.7,3.1-1.3,4.7-2c8.2-3.6,14-9.6,17.6-17.8
	c0.7-1.6,1.3-3.4,2.1-4.9c2.1-3.8,7.2-3.9,9.4-0.1c0.7,1.3,1.2,2.7,1.8,4.1c3.8,9.1,10.2,15.6,19.4,19.3c1.2,0.5,2.6,0.8,3.6,1.6
	C266.1,40.2,267.2,41.9,267.8,42.7z M254.6,43.8c-8.6-4.4-14.8-10.7-19.3-19.3c-4.5,8.5-10.7,14.8-19.3,19.3
	c8.5,4.4,14.8,10.7,19.3,19.3C239.8,54.4,246.1,48.2,254.6,43.8z"/>
<g>
	<path class="st0" d="M90,178.5c-12.6-0.1-21.7-12-18.1-24.1c2.6-8.7,7.6-16,13.2-23c2.5-3.1,7.5-3.2,9.9-0.2
		c6,7.3,11.3,15,13.6,24.2C111.7,167.2,102.4,178.6,90,178.5z M90.1,137.3c-4.4,6.3-8.8,12.3-10.8,19.3c-0.6,1.9-0.5,4.3,0.2,6.4
		c1.8,5.9,8,9,13.8,7.3c6-1.8,9.4-7.8,7.6-13.9C98.8,149.4,94.5,143.6,90.1,137.3z"/>
	<g>
		<path class="st0" d="M154,230.7c11.6,0,23.2,0,34.8,0c6.5,0,10.1,3.5,10.2,10c0.1,8,0.1,16.1,0,24.1c0,6.4-3.8,10-10.2,10.1
			c-23.2,0-46.4,0-69.5,0c-6.4,0-10.1-3.7-10.2-10.1c0-7.9,0-15.9,0-23.9c0-6.7,3.5-10.2,10.2-10.2
			C130.7,230.7,142.3,230.7,154,230.7z M153.6,267.2c11.5,0,23-0.1,34.5,0c2.3,0,3-0.7,3-3c-0.1-7.6-0.1-15.2,0-22.8
			c0-2.3-0.7-2.9-3-2.9c-22.8,0.1-45.7,0.1-68.5,0c-2.5,0-3,0.9-3,3.2c0.1,7.5,0.1,14.9,0,22.3c0,2.5,0.7,3.3,3.2,3.3
			C131.1,267.1,142.3,267.2,153.6,267.2z"/>
		<path class="st0" d="M210.4,212.6c0-4.1,0.1-8.5,0-12.8c-0.1-5.9-3.9-9.5-9.7-9.6c-1.1,0-2.2,0-3.4,0c0.6-11.1-3.2-20.2-9.9-28.3
			c-3.7-4.3-9-5.1-13.4-1.7c-6.4,5-13.8,7-21.7,7.5c-14.5,0.8-24.6,8.1-33,19.8c-1.5,2.2-3.6,2.9-5.5,2.9s-8.6-0.1-9.9,0.4
			c-4.3,1.4-6.4,4.6-6.4,9c-0.1,3.6,0,7.1,0,10.7c0,0.8-0.1,1.7-0.2,2.4c-6.3,1-9,4.2-9.1,10.2c0,3.4-0.3,37.1-0.3,37.1
			c-0.1,8.9-2,18.5,4.1,27.1c1.7,2.1,5.5,7.9,11.4,7.9s67.1,0,100,0c13.2-4.9,16.5-9.8,16.5-24c0-15.7,0-31.2,0-46.8
			C219.7,217.1,217.7,214.4,210.4,212.6z M105.2,200c0-1.9,1.4-1.8,2.8-1.8c8.6,0,17.1,0,25.7,0c0.7,0,1.5,0.1,2.1,0
			c2.2-0.4,3.5-1.6,3.6-3.8c0.2-2.1-1.4-3.9-3.6-4c-2.8-0.1-5.6,0-8.8,0c0.5-0.8,0.7-1.5,1.1-1.9c6-7.7,13.9-12.2,23.7-12.7
			c9.6-0.6,18.5-2.9,26.4-8.7c0.6-0.6,2.6-0.6,3-0.1c5.6,6.6,8.9,14.1,8.1,23.3c-1.1,0-2,0-2.9,0c-11,0-22,0-33,0
			c-2.8,0-4.4,1.3-4.7,3.5c-0.2,2.5,1.7,4.2,4.7,4.2c8.4,0,16.8,0,25.1,0c7.1,0,14.2,0.1,21.3,0c2-0.1,2.8,0.6,2.8,2.7
			c-0.1,4,0,7.9,0,12.1c-32.5,0-64.8,0-97.4,0C105.2,208.4,105.2,204.2,105.2,200z M211.9,274.1c0,8.8-4.6,13.4-13.4,13.4
			c-29.8,0-59.6,0-89.4,0c-8.7,0-13.3-4.7-13.3-13.4c0-16.6,0-33.3,0-49.8c0-3.4,0-3.4,3.5-3.4c18.1,0,36.4,0,54.5,0s36.2,0,54.3,0
			c3.8,0,3.8,0,3.8,3.9C211.9,241.2,211.9,257.6,211.9,274.1z"/>
	</g>
	<g>
		<path class="st0" d="M90.1,260c-9,0-24.5,0-30.1,0c-3.5,0-5-1.3-5.4-4.6c-3.7-27.8-8.4-50-12.2-77.8c-1.7-13.1-3.8-26.1-5.2-39.2
			c-1.1-10.4,2.2-20,8-28.5c9.7-14,23.2-21.3,40.3-21.6c8.4-0.2,16.8-0.2,24.9,2.6c18.5,6.5,31.8,23.4,32.7,43
			c0.3,5.6-1,11.2-1.6,16.8c-0.6,5.1-1.4,10.2-2,15.3l-2.2,9.8l9.2-3.1l2.9-13.7c0.5-3.7,1-7.5,1.5-11.3c1-6.8,1.8-13.5,0.5-20.4
			c-3.5-17.8-13-31.3-28.6-40.5c-0.7-0.4-1.5-1.2-1.6-1.9c-1.5-9.4-2.9-18.8-4.4-28.1c-0.4-2.5-2-3.9-4.6-3.9c-1.3,0-2.7,0-4,0V35
			c10.1,0,20,0,29.8,0c3.8,0,5.4-1.6,5.4-5.4c0-5,0-10,0-15c0-5-1.6-6.5-6.5-6.2c-21.4,1.4-42.7,2.9-64.1,4.3
			c-2.4,0.2-4,1.3-4.7,3.6c-1.4,4.1-2.8,8.2-4.1,12.3c-1.1,3.6,0.7,6.2,4.6,6.3c1.2,0,2.5,0,3.8,0v17.7c-1.2,0-2.2,0-3.2,0
			c-3.8,0-5,1.1-5.7,4.9c-0.3,1.5-0.5,2.9-0.8,4.4c-1.2,7.3-2.5,14.6-3.4,21.9c-0.2,1.5-0.5,2.2-1.8,2.9C49,91.5,42.1,98,37,106.3
			c-6.1,9.8-9.5,20.5-8.7,32.1c0.6,8.5,2.1,16.8,3.3,25.3c4.4,32.6,9.8,59.5,14.1,92.1c1.2,8.7,6.1,13.2,14.8,13.2
			c5.5,0,20.9,0,29.7,0V260z M79.5,21.2c16.2-1,32.4-2.1,48.6-3.2c2-0.1,4-0.2,6.2-0.3c0,2.8,0,5.4,0,8.3c-19.9,0-39.9,0-59.8,0
			C75.2,21.5,75.2,21.5,79.5,21.2z M98.8,35.2c0,5.7,0,11.5,0,17.5c-5.9,0-11.5,0-17.3,0c0-5.8,0-11.5,0-17.5
			C87.1,35.2,92.9,35.2,98.8,35.2z M71.7,61.7c12.5,0,24.5,0,36.8,0c1,5.8,1.9,11.6,2.9,17.5c-14.3,0-28.3,0-42.6,0
			C69.8,73.3,70.7,67.5,71.7,61.7z"/>
		<path class="st0" d="M276.4,94.4c-0.3-4.8-1.4-6.2-6.3-6.2c-27.1,0-54.1,0-81.2,0c-1.8,0-3.7-0.1-5.5,0c-2.7,0.1-4.4,1.7-4.5,4.3
			c-0.1,6.4-0.5,12.8,0.2,19.1c1.6,14.4,3.8,28.7,5.7,43.1c0.5,3.9,1,7.8,1.6,12l10.6,14.7c-1.5-10.4-3.8-31.6-5.2-41.9
			c-1.1-8-2.1-16.1-3.2-24.5c26.2,0,52.2,0,78.5,0c-5.5,41.3-11,76.9-16.5,118.2c-8.5,0-26.2,0-35,0v9.2h34.3
			c0,4.6,0.2,9.3-0.1,13.9c-0.1,2.2-1.9,3.6-4.3,3.6l-30,0v8.9l28.5,0c9.4,0,14.7-5.4,14.7-14.8c0-6.1-0.2-12.2,0.4-18.3
			c1.2-11.7,10.4-72.5,13.2-94C274.2,126,277.2,110.4,276.4,94.4z M267.4,105.8c-26.6,0-53,0-79.6,0c0-2.9,0-5.6,0-8.5
			c26.4,0,52.9,0,79.6,0C267.4,100.2,267.4,102.9,267.4,105.8z"/>
	</g>
</g>
</svg>
