<?xml version="1.0" encoding="utf-8"?>
<!-- Generator: Adobe Illustrator 30.3.0, SVG Export Plug-In . SVG Version: 9.03 Build 0)  -->
<svg version="1.0" id="Capa_1" xmlns="http://www.w3.org/2000/svg" xmlns:xlink="http://www.w3.org/1999/xlink" x="0px" y="0px"
	 viewBox="0 0 400 400" style="enable-background:new 0 0 400 400;" xml:space="preserve">
<style type="text/css">
	.st0{fill:#0B9655;}
	.st1{fill:#7ED420;}
</style>
<g>
	<path class="st0" d="M188.59,336.56c16.53-32.71,18.34-65.41,2.53-97.88c-15.69-32.47-42.24-51.53-77.85-58.9l9.53-88.47
		c0.48-4.1,1.21-8.45,3.14-12.07c4.47-8.81,11.95-14,21.97-14c23.29-0.12,31.02-0.12,60.35-0.12c0.72,0,1.45,0.12,2.9,0.36
		c-1.09,8.81-2.17,17.62-3.38,26.31c-4.1,29.69-8.21,59.26-11.95,88.95c-0.36,2.53,1.69,5.79,3.86,7.72
		c2.9,2.53,7.12,1.93,10.86,0.24c11.22-5.07,22.57-9.9,33.79-15.21c3.62-1.69,6.4-1.93,10.02,0.12c8.81,4.83,17.98,9.41,27.16,14
		c9.53,4.83,16.29,2.17,17.5-6.64c5.07-37.53,10.26-75.07,15.21-112.6c0.36-2.78,1.81-3.26,4.83-3.26
		c28.85,0.12,32.1-0.12,54.91,0.12c13.16,0.12,21.36,9.41,20.16,22.57l-24.14,225.33c-1.81,14.48-12.07,23.41-26.55,23.41H194.39
		C192.58,336.56,190.89,336.56,188.59,336.56z"/>
	<path class="st0" d="M95.9,193.66c50.09,0,91,40.91,90.88,91.12c0,50.21-40.91,91-91.12,90.88S5.14,335.11,5.14,284.91
		C5.14,234.46,45.7,193.66,95.9,193.66z M160.96,284.66c0-36.21-28.97-65.29-64.93-65.29c-36.21-0.12-65.54,29.33-65.41,65.41
		c0.12,35.97,29.57,65.29,65.29,65.17C131.87,349.96,160.96,320.75,160.96,284.66z"/>
	<path class="st1" d="M299.87,24.33L281.28,150.7c-7.84-3.98-15.33-7.36-22.09-11.22c-6.28-3.62-11.71-3.86-18.22-0.48
		c-7.48,3.86-15.57,7.12-24.38,11.1l18.35-125.76C256.54,24.33,277.78,24.33,299.87,24.33z"/>
	<path class="st1" d="M101.09,285.03c4.1,0,7.6,0,11.22,0c6.88,0,13.64-0.12,20.52,0c4.71,0.12,7.84,3.26,7.97,7.36
		c0,4.1-3.26,7.36-7.84,7.6c-1.45,0.12-2.78,0-4.22,0c-11.22,0-22.33,0-33.55,0c-6.28,0-9.05-2.78-9.05-9.17
		c-0.12-12.07,0-24.26,0-36.33c0-5.67,3.02-9.17,7.72-9.17c4.47,0.12,7.36,3.38,7.36,8.93c0.12,8.45,0,16.78,0,25.22
		C101.09,281.16,101.09,282.85,101.09,285.03z"/>
	<path class="st1" d="M100.37,113.04c5.31,0.12,8.57,3.02,8.57,7.36s-3.5,7.36-8.69,7.36H41.95c-5.31,0-8.45-3.02-8.45-7.48
		s3.14-7.24,8.57-7.24H100.37z"/>
	<path class="st1" d="M100.37,145.75c5.31,0.12,8.57,3.02,8.57,7.36s-3.5,7.36-8.69,7.36H18.66c-5.31,0-8.45-3.02-8.45-7.48
		c0-4.47,3.14-7.24,8.57-7.24H100.37z"/>
	<path class="st1" d="M95.66,80.46c5.31,0.12,8.57,3.02,8.57,7.36s-3.5,7.36-8.69,7.36H60.42c-5.31,0-8.45-3.02-8.45-7.48
		c0-4.47,3.14-7.24,8.57-7.24L95.66,80.46z"/>
</g>
</svg>
