<?xml version="1.0" encoding="utf-8"?>
<!-- Generator: Adobe Illustrator 30.4.0, SVG Export Plug-In . SVG Version: 9.03 Build 0)  -->
<svg version="1.0" id="Capa_1" xmlns="http://www.w3.org/2000/svg" xmlns:xlink="http://www.w3.org/1999/xlink" x="0px" y="0px"
	 viewBox="0 0 300 300" style="enable-background:new 0 0 300 300;" xml:space="preserve">
<style type="text/css">
	.st0{opacity:0.75;}
	.st1{fill:#050505;}
</style>
<g class="st0">
	<path class="st1" d="M56.29,7c9.32,1.42,18.97,4.73,26.12,11.89l67.55,67.6l66.09-66.25c7.25-7.27,16.16-11.7,25.89-13.24h12.27
		c20.7,3.23,37.24,20.31,38.49,41.88c0.72,12.38-3.08,24.59-11.9,33.44l-67.4,67.67l66.9,67.19c12.48,12.53,15.78,31.41,8.98,48.13
		c-6,14.76-20.4,25.83-36.73,27.69h-9.48c-9.14-1.48-18.55-4.87-25.56-11.89l-67.53-67.6l-66.95,67.08
		c-6.97,6.98-15.88,10.7-25.05,12.41H45.7c-19.93-3.07-35.76-19.11-38.47-39.1v-11.73c1.5-10.32,6.51-19.22,14.06-26.77L86.63,150
		l-64.8-64.84C13.6,76.92,8.17,66.95,7.23,55.6l0.21-7.17C9.4,26.62,26.26,9.45,48.03,7.21L56.29,7z"/>
</g>
</svg>
