<?xml version="1.0" encoding="utf-8"?>
<!-- Generator: Adobe Illustrator 27.2.0, SVG Export Plug-In . SVG Version: 6.00 Build 0)  -->
<svg version="1.1" id="Capa_1" xmlns="http://www.w3.org/2000/svg" xmlns:xlink="http://www.w3.org/1999/xlink" x="0px" y="0px"
	 viewBox="0 0 300 300" style="enable-background:new 0 0 300 300;" xml:space="preserve">
<style type="text/css">
	.st0{fill:#00B89D;}
</style>
<g>
	<g>
		<path class="st0" d="M181.2,39.7c-0.7,0.7-1.3,1.5-2,2.2c-9.6,9.9-19.1,19.8-28.7,29.7c-10.8,11.2-16.3,24.5-16.3,40.1
			c0,53.1,0,106.3,0.1,159.4c0,4.6,1,9.2,1.5,13.9c-0.9-0.5-2-1-3-1.6c-24.1-13.9-48.2-27.8-72.2-41.8c-13.5-7.8-17.3-22.5-9.6-36.1
			c2.6-4.5,5.2-9,7.8-13.5c23.8-41.2,47.7-82.4,71.4-123.7c7-12.1,16.9-20.1,30.4-23.6c6.8-1.7,13.6-3.8,20.4-5.7
			C181,39.4,181.1,39.5,181.2,39.7z"/>
		<path class="st0" d="M133.1,43.2c-0.5,0.9-0.9,1.8-1.5,2.7C102.1,97,72.5,148.1,43.1,199.2c-2.7,4.7-4.5,9.9-6.9,15
			c-3.5-3.5-7.2-7.3-11-11.1c-2.7-2.7-5.4-5.4-8.1-8.1c-10.6-10.8-10.7-26.2,0.1-36.9c36.4-36.5,73-72.8,109.4-109.3
			c2-2,3.8-4.2,5.8-6.3C132.6,42.8,132.9,43,133.1,43.2z"/>
		<g>
			<path class="st0" d="M248,203.8c-1.3,0-2.5,0.7-3.6,2.2c-1.1,1.5-1.7,4.3-1.7,8.3c0,4,0.6,6.8,1.7,8.3c1.1,1.5,2.3,2.2,3.6,2.2
				c1.4,0,2.6-0.7,3.7-2.2c1.1-1.5,1.6-4.3,1.6-8.3c0-4-0.5-6.8-1.6-8.3C250.6,204.6,249.4,203.8,248,203.8z"/>
			<path class="st0" d="M189.6,182.7c1.1-1.5,1.6-4.3,1.6-8.3c0-4-0.5-6.8-1.6-8.3c-1.1-1.5-2.3-2.2-3.7-2.2c-1.3,0-2.5,0.7-3.6,2.2
				c-1.1,1.5-1.7,4.3-1.7,8.3c0,4,0.6,6.8,1.7,8.3c1.1,1.5,2.3,2.2,3.6,2.2C187.3,185,188.5,184.2,189.6,182.7z"/>
			<path class="st0" d="M278.3,78.7c-8.6-8.8-17-17.7-25.6-26.5c-0.7-0.7-1.5-1.4-2.3-2.2c-5.8,6.2-12.2,10.8-19.5,14.6
				c-1.7,0.9-3.3,2.2-4.4,3.7c-3.4,4.5-9.5,5.8-14.1,2.7c-4.6-3.1-5.9-9.3-2.8-14c3.1-4.7,9.3-6,13.9-2.8c1.8,1.3,3.1,1.2,4.8,0.2
				c19.6-11.1,28.5-29.1,33.1-50.5c-3.6-0.5-6.8-0.9-10.3-1.4c-2.3,12.2-7.1,22.9-14.8,32.3c-0.3-0.2-0.5-0.2-0.7-0.4
				c-10.2-9.7-26.7-9.7-37.8,2.5c-13,14.2-26.6,27.9-39.9,41.8c-9,9.4-13.5,20.5-13.5,33.5c0,52.8,0,105.7,0,158.5
				c0,16.5,10.7,27.2,27.2,27.2c30.9,0,61.8,0,92.7,0c16.8,0,27.4-10.6,27.4-27.3c0-52.7,0-105.5,0-158.2
				C291.8,99.3,287.4,88.1,278.3,78.7z M166.4,187.3c-2-3.5-3-7.8-3-12.8c0-5,1-9.3,3-12.8c2-3.5,4.7-6.2,8-8
				c3.4-1.9,7.2-2.8,11.5-2.8c4.3,0,8.1,0.9,11.5,2.8c3.4,1.9,6.1,4.5,8,8c2,3.5,3,7.8,3,12.8c0,5-1,9.3-3,12.8c-2,3.6-4.7,6.2-8,8
				c-3.4,1.8-7.2,2.7-11.5,2.7c-4.3,0-8.1-0.9-11.5-2.7C171.1,193.5,168.4,190.8,166.4,187.3z M177.8,236.8l57.8-84.7h20.5
				l-57.8,84.7H177.8z M267.6,227.2c-2,3.6-4.7,6.2-8,8c-3.4,1.8-7.2,2.7-11.5,2.7s-8.1-0.9-11.5-2.7c-3.4-1.8-6.1-4.5-8-8
				c-2-3.5-3-7.8-3-12.8c0-5,1-9.3,3-12.8c2-3.5,4.7-6.2,8-8c3.4-1.9,7.2-2.8,11.5-2.8s8.1,0.9,11.5,2.8c3.4,1.9,6.1,4.5,8,8
				c2,3.5,3,7.8,3,12.8C270.5,219.4,269.5,223.7,267.6,227.2z"/>
		</g>
	</g>
</g>
</svg>
