<?xml version="1.0" encoding="utf-8"?>
<!-- Generator: Adobe Illustrator 27.2.0, SVG Export Plug-In . SVG Version: 6.00 Build 0)  -->
<svg version="1.0" id="Capa_1" xmlns="http://www.w3.org/2000/svg" xmlns:xlink="http://www.w3.org/1999/xlink" x="0px" y="0px"
	 viewBox="0 0 300 300" style="enable-background:new 0 0 300 300;" xml:space="preserve">
<style type="text/css">
	.st0{opacity:0.35;}
	.st1{fill:#FF0000;}
	.st2{fill:#FFFFFF;}
	.st3{fill:#115BEB;}
</style>
<g>
	<g class="st0">
		<circle class="st1" cx="150" cy="150" r="144.3"/>
	</g>
	<g>
		<path class="st2" d="M91.3,70.3c-4.9,2.8-8.6,6.7-11.1,11.6c-2.5,4.9-3.7,10.6-3.7,16.9v7.7H57.2V128h19.2v82.6h28.3V128h25.7
			v-21.5h-25.7V101c0-4.5,1.2-7.9,3.5-10.2c2.4-2.4,5.5-3.5,9.4-3.5h12.8V66h-21C102.3,66,96.2,67.4,91.3,70.3z"/>
		<path class="st2" d="M241.5,128.4c-3.8-8.1-9-14.2-15.5-18.4c-6.5-4.2-13.6-6.3-21.3-6.3c-5.7,0-10.9,0.8-15.6,2.4
			c-4.7,1.6-8.8,4-12.3,7.1c-2.2,2-4.2,4.3-5.9,6.8V66h-28.3v144.5h28.3v-13.8c1.7,2.5,3.6,4.8,5.9,6.8c3.5,3.2,7.6,5.6,12.3,7.3
			c4.7,1.7,9.9,2.5,15.6,2.5c4.6,0,9-0.8,13.3-2.3c4.2-1.6,8.2-3.8,11.7-6.8c3.6-3,6.7-6.7,9.3-11.1c2.6-4.5,4.7-9.6,6.1-15.4
			c1.4-5.8,2.1-12.3,2.1-19.4C247.2,146.4,245.3,136.5,241.5,128.4z M217.5,169.5c-0.7,3.5-1.7,6.6-3,9.3c-1.3,2.7-3,5-5,6.9
			c-2,1.9-4.2,3.3-6.8,4.3c-2.6,1-5.3,1.5-8.3,1.5c-5,0-9.3-1.4-13-4.1c-3.6-2.8-6.4-6.6-8.4-11.5c-2-4.9-2.9-10.7-2.9-17.3
			c0-4,0.4-7.8,1.1-11.1c0.7-3.4,1.8-6.4,3.1-9.1c1.3-2.7,3-5,5-6.9c2-1.9,4.2-3.3,6.8-4.4c2.6-1,5.3-1.5,8.3-1.5c5,0,9.3,1.3,13,4
			c3.6,2.7,6.4,6.5,8.3,11.4c1.9,4.9,2.8,10.7,2.8,17.3C218.5,162.2,218.2,165.9,217.5,169.5z"/>
	</g>
	<path class="st3" d="M150,294.3c57.7,0,107.3-34.5,129.9-84.1c-18.3,15.5-53.4,39.5-94.5,37.1c-60.5-3.5-58.1-33.2-113-26.5
		c-13.5,1.6-26,7.5-37.2,15.3C61.3,271.3,103,294.3,150,294.3z"/>
	<path class="st2" d="M150,5.7c79.7,0,144.3,64.6,144.3,144.3S229.7,294.3,150,294.3S5.7,229.7,5.7,150S70.3,5.7,150,5.7 M150,0.5
		C67.6,0.5,0.5,67.6,0.5,150S67.6,299.5,150,299.5S299.5,232.4,299.5,150S232.4,0.5,150,0.5L150,0.5z"/>
</g>
</svg>
