<?xml version="1.0" encoding="UTF-8"?>
<svg id="Capa_1" xmlns="http://www.w3.org/2000/svg" version="1.1" viewBox="0 0 300 300">
  <!-- Generator: Adobe Illustrator 30.3.0, SVG Export Plug-In . SVG Version: 2.1.3 Build 182)  -->
  <defs>
    <style>
      .st0 {
        fill: #fff;
      }
    </style>
  </defs>
  <path class="st0" d="M108.3,76.7h16.7c1.1-3.9,1.9-7.6,3.1-11.1,7.1-21,20.1-37.2,39.3-48.3,10.2-5.9,21.2-8,32.8-5.1,13.1,3.3,20.9,13.3,22.6,27.4,1.6,12.8-1.9,24.4-6.4,36-2.3,6-5,11.9-6.6,18.1-1.1,4.3-1.2,9-1,13.5.1,3.3,3,5,5.8,4.6s4.9-2.9,4.6-6c-1.1-10.6,3.5-19.7,7.7-28.8,5.5.5,8.8,3.6,9.7,9.4,1.4,8.8,2.8,17.6,4.1,26.3,5,32.1,10.1,64.1,15.1,96.2,3.1,19.5,6.1,39.1,9.1,58.6.9,5.9-1.6,10.3-7.2,12.4-22.2,8.1-44.9,14-68.4,17.1-20,2.6-40.1,3.2-60.3,2-2.7-.2-3.7-.8-3.9-3.8-2-27.2-4.2-54.3-6.4-81.5-1.9-24.1-3.7-48.1-5.6-72.2-1.6-20.7-3.2-41.5-4.9-62.2.1-.8.1-1.5.1-2.6ZM173.5,76.6c10.1,0,19.9,0,29.6-.1.7,0,1.7-.7,2-1.3,5.1-11.1,8.8-22.6,6.9-35.1-1.6-10.7-8.6-17.8-18.8-18.5-13.4-.9-23.7,6-33.8,14,7.6,12.8,12.3,26.2,14.1,41ZM151.9,44c-.8.9-1.2,1.4-1.6,2-.7.9-1.3,1.8-1.9,2.7-11.2,16.8-15.5,35.4-15.2,55.4.1,5.4,1.9,8,5.5,7.9s5.3-2.7,5.2-8.1c-.2-9.1.7-18.1,3.2-27.3h15.6c-1.6-11.7-5-22.3-10.8-32.6Z"/>
  <path class="st0" d="M113.3,279.9c-10.7-9.6-20.8-18.6-30.7-27.6-.8-.7-1.2-2.3-1.2-3.5.7-33.3,1.4-66.5,2.1-99.7.5-23.4,1.1-46.7,1.5-70.1,0-2.5-1-5.2-2.1-7.6-4-8.7-7.6-17.5-8.7-27.2-.8-7-.6-14,1.4-20.8C80.7,5.9,95-2.5,113.3,1.4c9.2,2,17.7,5.9,25.4,11.3,1.5,1.1,3.3,2.4,3.8,4,.5,1.7.3,4.3-.7,5.7-.9,1.2-3.5,1.7-5.2,1.4-1.8-.3-3.5-1.9-5.1-3-6.7-4.6-13.8-8-21.9-9.3-13-2.1-23.7,6.1-25,19.2-.7,7,.1,13.9,2.4,20.4,3,8.7,6.8,17.3,10.2,25.9.4.9.5,1.9.5,2.9,2.1,26.9,4.2,53.9,6.3,80.8,2.3,29.8,4.7,59.6,7.1,89.4.7,9.7,1.4,19.3,2.2,29.8Z"/>
  <path class="st0" d="M74.3,77v4.9c-1.1,49.1-2.1,98.3-3.2,147.4-.1,6.2-.3,12.5-.6,18.7,0,1-.6,2.5-1.4,2.9-11.1,5.9-22.2,11.7-33.4,17.4-.2.1-.4,0-1,0,1.1-7.4,2.2-14.7,3.4-22.1,5.5-34.8,10.9-69.6,16.4-104.4,2.9-18.5,5.8-37.1,8.8-55.6,1-6,5.3-9.6,11-9.2Z"/>
  <path class="st0" d="M116.9,297.8c-27-3-52.3-9.3-77.7-19,5.2-2.7,9.6-5,14.1-7.3,6.6-3.4,13.1-7,19.8-10.3.9-.4,2.7-.4,3.4.2,13.1,11.6,26,23.2,39,34.9.3.2.6.5,1.4,1.5Z"/>
</svg>