<?xml version="1.0" encoding="utf-8"?>
<!-- Generator: Adobe Illustrator 30.5.1, SVG Export Plug-In . SVG Version: 9.03 Build 0)  -->
<svg version="1.0" id="Capa_1" xmlns="http://www.w3.org/2000/svg" xmlns:xlink="http://www.w3.org/1999/xlink" x="0px" y="0px"
	 viewBox="0 0 300 300" style="enable-background:new 0 0 300 300;" xml:space="preserve">
<style type="text/css">
	.st0{opacity:0.2;}
</style>
<g class="st0">
	<path d="M264.02,187.53l-87.5-5.37c-1.29-0.43-2.28-0.87-3.29-1.46l-21.69-21.6l-0.02,136.2l112.49-10.84L264.02,187.53z
		 M231.21,246.08l16.5-1.54c2.9-0.27,4.93,2.08,5.14,4.57c0.2,2.39-1.49,4.89-4.34,5.17l-16.59,1.61c-2.95,0.29-5.17-1.93-5.42-4.48
		C226.24,248.85,228.07,246.37,231.21,246.08z M212.52,268.25l34.56-3.35c3.15-0.31,5.66,1.62,5.77,4.58
		c0.09,2.46-1.61,4.89-4.53,5.18l-35.08,3.38c-2.93,0.28-5.11-1.96-5.3-4.43C207.75,271.09,209.39,268.55,212.52,268.25z"/>
	<polygon points="51,284 141.75,295.2 141.72,159.1 120.71,179.87 50.39,184.58 	"/>
	<path d="M136.39,74.87l22.43-11.66l21.8,11.55c0.68,0.36,2.93-0.48,2.81-1.24l-4.27-25.22l17.87-17.3l0.36-2.02
		c0.08-0.46-1.2-0.94-1.68-1.06l-24.34-3.59L160.29,1.99l-1.7-0.95c-0.48-0.27-1.43,1.02-1.69,1.54l-10.83,21.78l-24.55,3.54
		c-0.58,0.35-1.53,1.06-1.58,1.57c-0.05,0.51,0.56,1.51,0.99,1.93l17.33,16.98l-4.18,24.59C133.95,73.82,135.36,75.41,136.39,74.87z
		"/>
	<polygon points="283.55,178.83 266.77,161.82 159.69,153.2 178.81,172.46 	"/>
	<polygon points="34.05,175.85 116.6,170.31 133.36,153.45 47.93,161.95 	"/>
	<path d="M243.86,74.01c4.92,2.63,8.7,4.66,14.3,7.2l-2.4-15.94l9.99-9.66c0.2-0.2,0.51-0.83,0.55-1.04
		c0.07-0.3-0.81-0.97-1.18-1.03l-13.85-2.06l-7.3-14.18c-3.03,4.95-4.96,9.17-7.43,14.12c-5.28,0.81-9.78,1.42-15.86,2.67
		l11.34,11.52c-1.02,5.6-1.84,9.77-2.37,15.65L243.86,74.01z"/>
	<path d="M73.62,74.04l12.19,6.37c0.31,0.16,1.26,0.3,1.55,0.3c0.3,0,0.5-1.1,0.44-1.41L85.48,65.4l11.26-11.39l-15.86-2.64
		l-7.27-14.11l-7.28,14.11L50.5,54.05l11.23,11.41l-2.46,15.77L73.62,74.04z"/>
	<path d="M117.05,134.24c0.86,3.01,3.32,4.24,5.7,3.8c2.56-0.47,4.7-3.13,3.87-6.02l-13.94-48.46c-0.78-2.73-3.78-3.76-6.04-3.09
		c-2.28,0.67-4.14,3.13-3.34,5.93L117.05,134.24z"/>
	<path d="M189.84,132.24c-0.9,3.14,0.9,5.54,3.57,6.3c1.92,0.54,4.96-0.52,5.73-3.2l13.47-46.7c0.81-2.82-0.21-5.34-2.68-6.39
		c-2.45-1.04-5.72,0.09-6.58,3.07L189.84,132.24z"/>
	<path d="M86.22,137.08c1.28,2.9,3.59,4.08,6.16,3.3c2.53-0.77,4.42-3.66,3.16-6.5L79.27,97.12c-1.13-2.56-4.1-3.21-6.27-2.33
		c-2.35,0.95-3.79,3.78-2.59,6.49L86.22,137.08z"/>
	<path d="M222.09,133.47c-1.26,2.84-0.07,5.35,2.1,6.58c1.83,1.03,5.38,0.68,6.49-1.84l15.96-35.92c1.15-2.58,0.04-5.27-2.24-6.48
		c-2.17-1.15-5.45-0.43-6.64,2.28L222.09,133.47z"/>
	<path d="M153.82,129.22c0,3.01,2.64,4.77,4.79,4.82c2.74,0.06,5.01-2.08,5.01-5.03l0.02-32.14c0-2.91-1.83-4.99-4.5-5.23
		c-2.51-0.22-5.32,1.75-5.32,4.78L153.82,129.22z"/>
</g>
</svg>
