<?xml version="1.0" encoding="UTF-8"?>
<svg id="Capa_1" xmlns="http://www.w3.org/2000/svg" version="1.1" viewBox="0 0 300 300">
  <!-- Generator: Adobe Illustrator 30.3.0, SVG Export Plug-In . SVG Version: 2.1.3 Build 182)  -->
  <defs>
    <style>
      .st0 {
        fill: #00b68e;
      }

      .st1 {
        fill: #fff;
      }
    </style>
  </defs>
  <path class="st0" d="M295,495.41v1.19c-.54,3.69-2.07,7.02-5.97,8.82L19.73,629.71c-4.57,2.11-9.54.73-12.52-2.99-2.63-3.28-3.11-8.62-.17-12.55l88.6-118.17L6.8,377.52c-2.82-3.77-2.05-9.14.42-12.22,2.7-3.37,7.81-5.17,12.13-3.18l270.08,124.64c3.76,1.74,4.97,5.27,5.57,8.64Z"/>
  <g>
    <path class="st0" d="M159.14,287.4c-7.55,0-14.58-2.77-20.35-8.02-5.53-5.17-8.71-12.02-8.94-19.27-.24-7.69,2.77-15.27,8.49-21.34l50.78-53.93-150.32-.24c-18.46-.02-34.05-15.85-34.05-34.57,0-19.12,15.55-34.69,34.67-34.7l149.68-.15-51.15-54.46c-5.6-5.96-8.47-13.49-8.09-21.23.36-7.44,3.77-14.34,9.58-19.43,5.65-4.88,12.46-7.47,19.7-7.47,8.75,0,17.59,3.89,24.26,10.66l104.15,105.71c10.25,10.4,10.39,31.46.28,41.73l-104.42,106.06c-6.66,6.76-15.5,10.64-24.27,10.64Z"/>
    <path class="st1" d="M159.14,11.6v2c8.48,0,17.06,3.78,23.55,10.36l104.15,105.71c9.72,9.86,9.86,30.59.28,40.32l-104.42,106.06c-6.47,6.57-15.05,10.34-23.55,10.34-7.29,0-14.1-2.68-19.65-7.74-5.35-5-8.41-11.6-8.63-18.58-.24-7.43,2.68-14.75,8.21-20.63l49.2-52.24,3.17-3.36h-4.62s-148.02-.24-148.02-.24c-17.92-.02-33.05-15.4-33.05-33.57,0-18.57,15.1-33.69,33.67-33.7l147.37-.15h4.62s-3.16-3.37-3.16-3.37l-49.57-52.77c-5.41-5.76-8.18-13.03-7.82-20.49.35-7.17,3.63-13.82,9.23-18.72,5.47-4.73,12.06-7.23,19.05-7.23v-2M159.14,11.6c-7.13,0-14.26,2.45-20.35,7.72-12.8,11.2-13.19,29.72-1.56,42.09l49.57,52.77-147.37.15c-19.64.02-35.67,16.14-35.67,35.7,0,19.05,15.64,35.54,35.05,35.57l148.02.23-49.2,52.24c-11.72,12.44-11.84,30.48.51,42.03,6.2,5.65,13.6,8.28,21.02,8.28,9,0,18.03-3.88,24.98-10.94l104.42-106.06c10.24-10.4,10.44-32.25-.28-43.13L184.11,22.56c-6.95-7.05-15.96-10.96-24.98-10.96h0Z"/>
  </g>
  <path class="st0" d="M-249.32,230.83l45.14-47.94-159.92-.21c-17.81-.02-32.16-15.16-32.16-32.64,0-17.95,14.71-32.75,32.73-32.76l159.33-.14-45.49-48.43c-10.67-11.36-10.31-28.35,1.43-38.63,12.67-10.95,30.18-8.61,41.6,2.98l95.57,97.01c9.83,9.98,9.65,30.04.26,39.58l-95.82,97.32c-11.64,11.82-29.61,13.91-42.21,2.44-11.33-10.6-11.22-27.15-.47-38.57Z"/>
  <path class="st0" d="M513.45,291.91c-11.98,12.01-31.52,9.92-42.1-1.41-11.56-12.39-10.6-30.75,1.29-42.64l97.77-97.81-99.67-100.2c-11.24-11.3-9.53-30.13,1.23-40.94,10.55-10.6,29.55-12.62,40.91-1.24l122.29,122.5c10.36,10.38,10.35,29.35,0,39.73l-121.72,122.02Z"/>
</svg>