<?xml version="1.0" encoding="utf-8"?>
<!-- Generator: Adobe Illustrator 27.2.0, SVG Export Plug-In . SVG Version: 6.00 Build 0)  -->
<svg version="1.1" id="Capa_1" xmlns="http://www.w3.org/2000/svg" xmlns:xlink="http://www.w3.org/1999/xlink" x="0px" y="0px"
	 viewBox="0 0 300 300" style="enable-background:new 0 0 300 300;" xml:space="preserve">
<style type="text/css">
	.st0{fill:#FFE898;}
	.st1{opacity:0.15;fill:#E94E1B;}
	.st2{fill:#E30613;}
</style>
<rect x="362" class="st0" width="300" height="300"/>
<path class="st1" d="M161.9,254.4c-3.9,3.8-7.7,7.6-13.9,13.9c-0.1,0-0.1-0.1-0.2-0.1c-10.5-10.5-21-20.9-31.4-31.4
	c-24.9-24.8-50.6-50.5-75.7-75.9C19.1,139.1,13.6,106,26.9,78.5C37.2,57.4,56.3,43,79.3,38.8c23-4.2,46,2.7,63,18.8
	c4.2,4,7,4.1,11,0.3c17.2-16.1,37.9-22.6,61.5-19.4c18.6,2.5,35.9,13.2,47.5,29.2c11.6,16.1,16.3,36,12.8,54.7
	c-3,15.9-10,29.1-21.5,40.4c-0.8,0.8-1.6,1.6-2.3,2.3c-2.9,0-5.8,0-8.8,0c0-2,0-3.5,0-5c0-11.4,0-22.8,0-34.2c0-6-2.3-8.5-8.2-8.5
	c-16.5-0.1-33.1-0.1-49.6,0c-5.9,0-8.3,2.5-8.3,8.4c0,11.6,0,23.1,0,34.7c0,1.5,0,3,0,4.7c-12.9,0-25.2,0-37.4,0
	c-8.5,0-10.4,1.9-10.4,10.2c0,15.5,0,31.1,0,46.6c0,7.3,2.2,9.5,9.4,9.5c11.3,0,22.5,0,33.8,0c1.5,0,3,0.2,4.7,0.2
	c0,2.8,0,5.6,0,8.4c-0.1,0.1-0.2,0.2-0.3,0.3C169.7,246.7,165.8,250.6,161.9,254.4z"/>
<g>
	<path class="st2" d="M290.4,173.2c0-5.6-2.5-8.1-8.1-8.2c-4.7-0.1-9.4,0-14.1,0c17.6-20.7,23.8-44.7,18.5-71.4
		c-5.9-29.7-26.4-53.4-54.8-63.4c-28.6-10.1-59.6-4.4-83,15.2c-0.9,0.8-0.9,0.8-1.7,0.1c-20.5-17-44.4-23.3-70.9-18.6
		C39.5,33.3,10,66.1,7.7,103.3c-1.6,26.4,6.9,49.1,25.5,67.7c29.7,29.7,59.4,59.4,89.1,89l19.8,19.8c2.2,2.2,4.1,3.3,5.9,3.3
		c1.8,0,3.6-1.1,5.7-3.2c6.8-6.8,11.1-11,15.3-15.2c2.4-2.3,4.7-4.7,7.5-7.4c0,4.3,0,8.5,0,12.8c0,6.7,2.2,8.9,9,8.9
		c16.1,0,32.2,0,48.3,0c6.5,0,8.7-2.2,8.8-8.7c0-11.4,0-22.8,0-34.2c0-1.5,0.1-3,0.2-4.8c1.8,0,3.1,0,4.3,0c11.7,0,23.4,0.1,35.1,0
		c5.7,0,8.2-2.5,8.2-8.1C290.4,206.6,290.4,189.9,290.4,173.2z M161.9,254.4c-3.9,3.8-7.7,7.6-13.9,13.9c-0.1,0-0.1-0.1-0.2-0.1
		c-10.5-10.5-21-20.9-31.4-31.4c-24.9-24.8-50.6-50.5-75.7-75.9C19.1,139.1,13.6,106,26.9,78.5C37.2,57.4,56.3,43,79.3,38.8
		c23-4.2,46,2.7,63,18.8c4.2,4,7,4.1,11,0.3c17.2-16.1,37.9-22.6,61.5-19.4c18.6,2.5,35.9,13.2,47.5,29.2
		c11.6,16.1,16.3,36,12.8,54.7c-3,15.9-10,29.1-21.5,40.4c-0.8,0.8-1.6,1.6-2.3,2.3c-2.9,0-5.8,0-8.8,0c0-2,0-3.5,0-5
		c0-11.4,0-22.8,0-34.2c0-6-2.3-8.5-8.2-8.5c-16.5-0.1-33.1-0.1-49.6,0c-5.9,0-8.3,2.5-8.3,8.4c0,11.6,0,23.1,0,34.7
		c0,1.5,0,3,0,4.7c-12.9,0-25.2,0-37.4,0c-8.5,0-10.4,1.9-10.4,10.2c0,15.5,0,31.1,0,46.6c0,7.3,2.2,9.5,9.4,9.5
		c11.3,0,22.5,0,33.8,0c1.5,0,3,0.2,4.7,0.2c0,2.8,0,5.6,0,8.4c-0.1,0.1-0.2,0.2-0.3,0.3C169.7,246.7,165.8,250.6,161.9,254.4z
		 M276.4,217.5c-1.5,0.1-3,0.2-4.5,0.2c-11.1,0-22.3,0-33.4,0c-7.7,0-9.7,2-9.7,9.6c0,11,0,22,0,32.9c0,1.5,0,3.1,0,4.9
		c-13,0-25.6,0-38.8,0c0-3.3,0-6.5,0-9.8c0-9.8,0-19.7,0-29.5c0-5.6-2.4-8.1-8.1-8.1c-11.6-0.1-23.1,0-34.7,0c-1.5,0-3.1,0-5,0
		c0-13.3,0-25.8,0-39c1.6,0,3.1,0,4.6,0c11.3,0,22.5,0,33.8,0c7.2,0,9.3-2.1,9.3-9.5c0-12.5,0-25.1,0-37.9c12.9,0,25.5,0,38.5,0
		c0.1,1.5,0.2,3,0.2,4.5c0,10.8,0,21.7,0,32.5c0,8.6,1.8,10.4,10.2,10.4c12.4,0,24.8,0,37.4,0C276.4,191.7,276.4,204.3,276.4,217.5z
		"/>
	<path class="st2" d="M66.3,62.1c-17.9,10-26.8,25.5-27.5,42c0,14,2.7,23.6,8.2,31.9c2.1,3.1,4.6,6,7.1,8.8c1.5,1.7,3.7,1.8,5.6,0.5
		c1.8-1.2,2.6-3,1.9-5c-0.4-1.2-1.4-2.3-2.2-3.3c-6.8-7.6-10.8-16.4-11.2-26.6c-0.6-17.8,7-31.2,22.5-40.1c3.2-1.8,4.2-4.4,2.9-6.9
		C72.3,60.8,69.5,60.3,66.3,62.1z"/>
	<path class="st2" d="M91.1,54.2c-3.7-0.1-6.1,2.2-6,5.6c0.1,3.4,2.2,5.3,5.9,5.4c3.7,0,5.8-1.9,5.8-5.4
		C96.8,56.4,94.7,54.3,91.1,54.2z"/>
</g>
</svg>
