<?xml version="1.0" encoding="utf-8"?>
<!-- Generator: Adobe Illustrator 27.2.0, SVG Export Plug-In . SVG Version: 6.00 Build 0)  -->
<svg version="1.1" id="Capa_1" xmlns="http://www.w3.org/2000/svg" xmlns:xlink="http://www.w3.org/1999/xlink" x="0px" y="0px"
	 viewBox="0 0 300 900" style="enable-background:new 0 0 300 900;" xml:space="preserve">
<style type="text/css">
	.st0{fill:#FFFFFF;}
</style>
<g>
	<polygon class="st0" points="81.5,815.3 91.7,835.9 114.5,839.3 98,855.3 101.9,878 81.5,867.3 61.1,878 65,855.3 48.5,839.3 
		71.3,835.9 	"/>
	<polygon class="st0" points="167.3,815.3 177.5,835.9 200.2,839.3 183.8,855.3 187.7,878 167.3,867.3 146.9,878 150.8,855.3 
		134.3,839.3 157.1,835.9 	"/>
	<polygon class="st0" points="253.1,815.3 263.3,835.9 286,839.3 269.6,855.3 273.4,878 253.1,867.3 232.7,878 236.6,855.3 
		220.1,839.3 242.9,835.9 	"/>
</g>
<g>
	<path class="st0" d="M125.4,778.5c-1.4-0.3-2.8-0.5-4.2-0.9c-8.7-2.4-14.2-9.1-14.6-18.3c-0.4-9.4,0.6-18.7,4.2-27.5
		c2.3-5.7,5.7-10.6,11.3-13.6c3.5-1.9,7.2-2.7,11.1-2.7c1.2,0,2.5,0.6,3.6,1.3c1.8,1,3.5,2.2,5.2,3.3c10.2,6.3,20.4,6.3,30.6,0
		c1.4-0.9,2.9-1.7,4.2-2.7c2.4-1.8,5.1-2.1,8-1.6c7.9,1.2,13.5,5.5,17.3,12.4c3.4,6.2,4.9,12.9,5.6,19.8c0.3,3.5,0.5,7.1,0.5,10.7
		c-0.1,10.6-7.4,18.5-18,19.7c-0.3,0-0.5,0.1-0.8,0.2C168.2,778.5,146.8,778.5,125.4,778.5z"/>
	<path class="st0" d="M156.7,715.4c-16.4-0.1-29.5-13.3-29.4-29.5c0.1-16.3,13.3-29.2,29.5-29.2c16,0,29.4,13.2,29.3,29.5
		C186.1,702.4,172.6,715.5,156.7,715.4z"/>
</g>
<g>
	<g>
		<path class="st0" d="M67.2,125.5v-18.9H87v18.9H67.2z M84.1,198.3V99.8c0-5.6,1.1-10.6,3.3-14.9c2.2-4.3,5.5-7.8,9.8-10.3
			c4.3-2.5,9.7-3.7,16-3.7h18.6v18.7h-11.2c-3.5,0-6.2,1-8.3,3.1c-2.1,2.1-3.1,5.1-3.1,9v96.6H84.1z M106.2,125.5v-18.9h25.5v18.9
			H106.2z"/>
		<path class="st0" d="M197.3,200.8c-5,0-9.6-0.7-13.7-2.2c-4.2-1.5-7.8-3.6-10.9-6.4c-3.1-2.8-5.6-6.1-7.5-9.9l2.3-3.6v19.6h-25
			V70.9h25V126l-2.3-3.6c1.9-3.9,4.4-7.3,7.5-10c3.1-2.7,6.7-4.8,10.9-6.2c4.2-1.4,8.7-2.1,13.7-2.1c6.8,0,13,1.8,18.7,5.5
			c5.7,3.7,10.3,9.1,13.7,16.2c3.4,7.1,5.1,15.9,5.1,26.4c0,6.3-0.6,12-1.9,17.1c-1.2,5.1-3,9.6-5.4,13.6c-2.3,3.9-5.1,7.2-8.2,9.8
			c-3.2,2.6-6.6,4.6-10.4,6C205.2,200.1,201.3,200.8,197.3,200.8z M188.2,181.6c2.6,0,5.1-0.4,7.3-1.3c2.3-0.9,4.3-2.2,6-3.8
			c1.7-1.7,3.2-3.7,4.4-6.1c1.2-2.4,2.1-5.1,2.7-8.2c0.6-3.1,0.9-6.4,0.9-9.8c0-5.8-0.8-10.9-2.5-15.3c-1.7-4.3-4.1-7.7-7.3-10.1
			c-3.2-2.4-7-3.6-11.4-3.6c-2.6,0-5.1,0.4-7.3,1.3c-2.3,0.9-4.3,2.2-6,3.8c-1.7,1.7-3.2,3.7-4.4,6.1c-1.2,2.4-2.1,5.1-2.8,8
			c-0.7,3-1,6.2-1,9.8c0,5.8,0.9,10.9,2.6,15.3c1.7,4.3,4.2,7.7,7.4,10.2C180,180.3,183.8,181.6,188.2,181.6z"/>
	</g>
	<path class="st0" d="M149,272.2c50.8,0,94.6-30.4,114.6-74.2c-16.1,13.7-47.1,34.8-83.4,32.7c-53.3-3.1-51.2-29.3-99.6-23.4
		c-11.9,1.5-22.9,6.6-32.8,13.4C70.8,252,107.5,272.2,149,272.2z"/>
	<path class="st0" d="M149,17.7c70.3,0,127.2,57,127.2,127.2c0,70.3-57,127.2-127.2,127.2c-70.3,0-127.2-57-127.2-127.2
		C21.8,74.7,78.7,17.7,149,17.7 M149,12.3c-73.2,0-132.7,59.5-132.7,132.7S75.8,277.6,149,277.6s132.7-59.5,132.7-132.7
		S222.2,12.3,149,12.3L149,12.3z"/>
</g>
</svg>
