<?xml version="1.0" encoding="utf-8"?>
<!-- Generator: Adobe Illustrator 27.2.0, SVG Export Plug-In . SVG Version: 6.00 Build 0)  -->
<svg version="1.1" id="Capa_1" xmlns="http://www.w3.org/2000/svg" xmlns:xlink="http://www.w3.org/1999/xlink" x="0px" y="0px"
	 viewBox="0 0 300 300" style="enable-background:new 0 0 300 300;" xml:space="preserve">
<style type="text/css">
	.st0{fill:#FFFFFF;}
</style>
<g>
	<g>
		<path class="st0" d="M72.2,297.8c-3.4-0.7-6.8-1.2-10.1-2.1c-21.1-5.9-34.4-22.2-35.4-44.3c-1-22.8,1.6-45.3,10.2-66.7
			c5.6-13.8,13.8-25.7,27.4-33c8.4-4.5,17.5-6.6,26.9-6.4c3,0.1,6.1,1.6,8.8,3c4.4,2.4,8.5,5.3,12.7,8c24.8,15.3,49.5,15.2,74.3-0.1
			c3.4-2.1,6.9-4.2,10.2-6.6c5.9-4.4,12.4-5,19.5-4c19.2,2.8,32.8,13.3,41.9,30.1c8.2,14.9,11.8,31.2,13.5,47.9
			c0.8,8.6,1.2,17.3,1.1,25.9c-0.3,25.8-18,45-43.7,47.8c-0.6,0.1-1.3,0.4-1.9,0.5C175.9,297.8,124.1,297.8,72.2,297.8z"/>
	</g>
	<g>
		<path class="st0" d="M148.1,144.6c-39.7-0.3-71.5-32.2-71.2-71.5c0.3-39.5,32.2-70.9,71.6-70.9c38.7,0,71.2,32.1,71.1,71.4
			C219.4,113.1,186.7,145,148.1,144.6z"/>
	</g>
</g>
</svg>
