<?xml version="1.0" encoding="utf-8"?>
<!-- Generator: Adobe Illustrator 30.5.1, SVG Export Plug-In . SVG Version: 9.03 Build 0)  -->
<svg version="1.0" id="Capa_1" xmlns="http://www.w3.org/2000/svg" xmlns:xlink="http://www.w3.org/1999/xlink" x="0px" y="0px"
	 viewBox="0 0 300 300" style="enable-background:new 0 0 300 300;" xml:space="preserve">
<style type="text/css">
	.st0{opacity:0.2;}
</style>
<g class="st0">
	<path d="M130.1,220.56c-5.81,3.15-10.01,6.79-14.01,11.96l-86.42,0.01l0.02-120.37l163.01-0.01l-0.01,72.28L130.1,220.56z
		 M121.87,205.13c3.36-0.38,5.39-2.87,5.39-6.02v-15.66l16.1-0.05c3.25-0.01,5.68-2.82,5.59-5.99v-10.36
		c-0.1-3.35-2.61-5.79-5.93-5.8l-15.77-0.03l-0.02-15.91c0-3.3-2.69-5.82-5.92-5.76h-10.37c-3.27-0.02-5.83,2.46-5.83,5.76
		l-0.01,15.92l-15.88,0.01c-3.31,0-5.8,2.49-5.81,5.79l-0.01,10.34c-0.04,3.47,2.56,6.03,5.96,6.04l15.75,0.03l-0.01,15.67
		c0,3.42,2.58,6.04,6,6L121.87,205.13z"/>
	<path d="M192.34,103l-162.32,0.01c0.76-9.96,4.76-18.93,11.27-26.36c4.13-4.4,8.4-8.36,13.42-11.74l16.44-11.07l80.3,0.02
		l17.49,11.95c4.88,3.33,8.91,7.35,12.89,11.7C187.77,84.65,191.55,92.99,192.34,103z"/>
	<path d="M199.27,262.54l-36.71,21.04c-14.79,8.47-33.39,1.83-41.26-12.56c-7.97-14.58-3.02-33.04,11.67-41.54l35.39-20.47
		L199.27,262.54z"/>
	<path d="M147.38,44.74l-72.24,0.01c-3.14,0-5.18-1.94-5.5-4.96V18.04c0-2.65,1.94-5.33,4.96-5.33l72.48-0.03
		c3.08,0,5.1,1.73,5.6,4.73v22.6C152.27,42.64,150.59,44.74,147.38,44.74z"/>
	<path d="M113.11,275.33l-50.54,0.01c-18.53-0.03-33.26-14.84-32.88-33.66h81.4C106.83,252.77,107.41,264.56,113.11,275.33z"/>
	<path d="M198.56,287.18l-0.14-13.54l49.48-28.61c5.13-2.97,8.95-6.95,12.29-11.62c9.58,8.85,12.77,22.26,7.86,34.51
		c-4.41,10.99-15.46,19.2-28.29,19.22L198.56,287.18z"/>
	<polygon points="189.37,287.19 175.05,287.09 189.23,278.93 	"/>
	<path d="M176.51,204.79l36.71-21.04c14.79-8.47,33.39-1.83,41.26,12.56c7.97,14.58,3.02,33.04-11.67,41.54l-35.39,20.47
		L176.51,204.79z"/>
</g>
</svg>
