<?xml version="1.0" encoding="utf-8"?>
<!-- Generator: Adobe Illustrator 30.5.1, SVG Export Plug-In . SVG Version: 9.03 Build 0)  -->
<svg version="1.0" id="Capa_1" xmlns="http://www.w3.org/2000/svg" xmlns:xlink="http://www.w3.org/1999/xlink" x="0px" y="0px"
	 viewBox="0 0 400 400" style="enable-background:new 0 0 400 400;" xml:space="preserve">
<style type="text/css">
	.st0{fill:#FEC318;}
	.st1{fill:#FE8100;}
</style>
<path class="st0" d="M384.17,183.34c7.75-16.77,3.55-35.89-10.69-47.85c-8.61-7.24-14.52-17.36-14.64-29.01
	c-0.2-19-12.12-35.26-30.82-39.83c-11.31-2.76-20.82-10.09-26.11-20.55c-8.47-16.75-26.01-25.54-44.64-21.72
	c-11.22,2.3-22.85,0.06-32.03-7.07c-14.68-11.38-34.46-11.9-49.46-0.5c-9.65,7.33-21.31,10.27-33.42,7.71
	c-17.96-3.79-35.7,4.8-43.96,21.07c-5.46,10.75-14.76,18.3-26.53,21.19c-17.64,4.33-30.21,19.56-30.48,37.83
	c-0.19,13.07-6.14,23.75-15.85,31.94c-13.65,11.51-17.1,30.65-9.77,46.65c5.01,10.94,5,22.62,0.01,33.51
	c-7.51,16.36-3.67,35.49,10.22,47.16c9.19,7.72,15.1,18.15,15.26,30.56c0.23,17.95,11.71,33.59,29.35,38.24
	c11.89,3.13,21.89,9.83,27.48,21.15c8.1,16.39,26.05,25.46,44.15,21.59c12.83-2.75,24.48,0.83,34.69,8.38
	c14.48,10.72,33.68,10,47.98-0.96c9.7-7.43,21.06-9.56,32.52-7.26c18.13,3.64,35.79-4.71,44.14-21.14
	c5.42-10.67,14.78-18.28,26.44-21.13c18.68-4.57,30.68-20.76,30.83-39.8c0.09-11.99,6.35-22.04,15.1-29.48
	c13.98-11.88,17.85-30.9,10.25-47.37C379.23,205.96,379.23,194.03,384.17,183.34z"/>
<circle class="st1" cx="200" cy="200" r="144.51"/>
</svg>
