<?xml version="1.0" encoding="utf-8"?>
<!-- Generator: Adobe Illustrator 27.2.0, SVG Export Plug-In . SVG Version: 6.00 Build 0)  -->
<svg version="1.0" id="Capa_1" xmlns="http://www.w3.org/2000/svg" xmlns:xlink="http://www.w3.org/1999/xlink" x="0px" y="0px"
	 viewBox="0 0 300 300" style="enable-background:new 0 0 300 300;" xml:space="preserve">
<style type="text/css">
	.st0{fill:#FFFFFF;}
</style>
<g>
	<path class="st0" d="M150,6.9C229,6.9,293.1,71,293.1,150S229,293.1,150,293.1S6.9,229,6.9,150S71,6.9,150,6.9 M150,2
		C68.4,2,2,68.4,2,150s66.4,148,148,148s148-66.4,148-148S231.6,2,150,2L150,2z"/>
	<g>
		<path class="st0" d="M91.8,70.9c-4.9,2.8-8.6,6.7-11,11.5C78.3,87.4,77,92.9,77,99.2v7.6H57.9v21.3H77V210h28.1v-81.9h25.5v-21.3
			h-25.5v-5.4c0-4.4,1.2-7.8,3.5-10.1c2.3-2.3,5.5-3.5,9.3-3.5h12.6V66.7h-20.9C102.6,66.7,96.7,68.1,91.8,70.9z"/>
		<path class="st0" d="M240.7,128.5c-3.8-8-8.9-14.1-15.4-18.3s-13.5-6.2-21.1-6.2c-5.6,0-10.8,0.8-15.5,2.4c-4.7,1.6-8.8,4-12.2,7
			c-2.2,2-4.1,4.2-5.8,6.8V66.7h-28.1V210h28.1v-13.7c1.7,2.5,3.6,4.7,5.8,6.8c3.5,3.1,7.6,5.6,12.2,7.2c4.7,1.7,9.8,2.5,15.5,2.5
			c4.5,0,8.9-0.8,13.1-2.3c4.2-1.5,8.1-3.8,11.6-6.7c3.5-2.9,6.6-6.6,9.2-11c2.6-4.4,4.6-9.5,6-15.3c1.4-5.8,2.1-12.2,2.1-19.3
			C246.5,146.5,244.5,136.6,240.7,128.5z M216.9,169.3c-0.7,3.5-1.7,6.6-3,9.2c-1.3,2.7-3,5-4.9,6.8c-1.9,1.9-4.2,3.3-6.7,4.3
			c-2.5,1-5.3,1.5-8.2,1.5c-5,0-9.2-1.4-12.8-4.1c-3.6-2.7-6.4-6.6-8.3-11.4c-1.9-4.9-2.9-10.6-2.9-17.2c0-4,0.4-7.7,1.1-11
			c0.7-3.3,1.8-6.4,3.1-9c1.3-2.7,3-5,4.9-6.8c1.9-1.9,4.2-3.3,6.7-4.3c2.5-1,5.3-1.5,8.2-1.5c4.9,0,9.2,1.3,12.8,4
			c3.6,2.7,6.4,6.5,8.2,11.3c1.9,4.9,2.8,10.6,2.8,17.2C217.9,162.1,217.6,165.8,216.9,169.3z"/>
	</g>
	<path class="st0" d="M150,293.1c57.2,0,106.4-34.2,128.9-83.4c-18.1,15.4-52.9,39.2-93.8,36.8c-60-3.5-57.6-33-112.1-26.3
		c-13.4,1.6-25.8,7.4-36.9,15.1C62,270.4,103.4,293.1,150,293.1z"/>
</g>
</svg>
