<?xml version="1.0" encoding="utf-8"?>
<!-- Generator: Adobe Illustrator 30.3.0, SVG Export Plug-In . SVG Version: 9.03 Build 0)  -->
<svg version="1.0" id="Capa_1" xmlns="http://www.w3.org/2000/svg" xmlns:xlink="http://www.w3.org/1999/xlink" x="0px" y="0px"
	 viewBox="0 0 400 400" style="enable-background:new 0 0 400 400;" xml:space="preserve">
<style type="text/css">
	.st0{fill:#8CC63F;}
	.st1{fill:#13A538;}
	.st2{fill:#0B9655;}
	.st3{fill:#7DC42E;}
</style>
<g>
	<path class="st0" d="M28.2,662.2c-2.1,6.3-6.5,9.7-12.7,12c-33.2,12.2-66.3,24.8-99.5,37c-20.4,7.5-41.5,8.8-63,5.7
		c-17.2-2.5-32.8-9.1-47.9-17.2c-4.1-2.2-8.3-3.2-13-3.1c-11.9,0.2-23.8,0.1-35.7,0.1c-7.3,0-11.9-4.6-11.9-11.9
		c0-15.8,0-31.6,0-47.4c0-7.5,4.5-12,12.1-12.1c4.5,0,9.1,0,13.6,0c9.3,0.1,18.4-0.3,27.7-2.6c15.8-3.8,31.2-1.5,45.8,5.7
		c19.4,9.6,38.8,19.3,58.2,29.1c5.6,2.8,7.4,8.9,4.7,14.4c-2.6,5.3-8.5,7.5-14.1,4.8c-10-4.7-19.9-9.7-29.8-14.5
		c-3.1-1.5-6.1-1.4-8.9,0.6c-2.7,1.9-3.7,4.5-3.3,7.7c0.3,2.9,1.8,5.1,4.4,6.3c10.5,5.2,20.9,10.5,31.6,15.4c10,4.5,19.7,2.9,28-4
		c8.4-6.9,11.5-16,9.5-26.8c-0.1-0.3-0.1-0.7-0.2-1.2c7.5-1.3,15-2.6,22.4-3.9c19-3.2,38-6.5,57-9.7c2.7-0.5,5.5-1,8.2-1.4
		c7.8-1.1,14,2.8,16.5,10.3c0.1,0.4,0.4,0.8,0.5,1.3C28.2,658.5,28.2,660.3,28.2,662.2z"/>
	<path class="st1" d="M-57.8,465.4c1.1-0.1,13.1-0.2,13.9-0.2c9.9,0,19.8,0,29.6,0c7.7,0,12.1,4.4,12.1,12l-0.1,153.2
		c0,0-57.8,9.8-76.8,13.2c-4.7,0.8-8.8,0.4-13.3-1.8c-20.2-10.3-56.1-24.3-76.6-34c-7.4-3.7-14.9-3.7-22-2c-2.1-0.5-2.7-1.1-2.7-3.2
		V478.2c0-8.9,4.2-13,13.1-13c9.6,0,26.7,0.1,36.3,0c2.1,0,2.7,0.6,2.7,2.7c-0.1,14-0.1,43.9,0,58c0,9,5.3,15.3,13.8,16.7
		c4,0.7,7.7-0.3,11.1-2.4c4.8-2.9,9.6-5.8,14.4-8.8c1.8-1.2,3.2-1.4,5.2-0.1c4.3,2.9,8.8,5.4,13.2,8.2c5.8,3.8,11.8,4.7,18,1.2
		s8.4-9.1,8.3-16c-0.2-13.4,0-42.6,0-56C-57.8,467.5-57.8,466.5-57.8,465.4z M-99.7,590.7c9,0,17.9,0,26.9,0c5.4,0,9.1-3.4,9.1-8.3
		c0-4.9-3.7-8.3-9.1-8.3c-17.9,0-35.8,0-53.8,0c-5.4,0-9.2,3.4-9.3,8.2c-0.1,4.9,3.8,8.4,9.3,8.4
		C-117.6,590.7-108.6,590.7-99.7,590.7z"/>
	<g>
		<g>
			<path class="st2" d="M64.1,569.4l16.4-93h42.2c7.4,0,13.3,1.8,17.6,5.5c4.4,3.6,6.6,8.6,6.6,14.8c0,4.4-1.1,8.4-3.3,12
				c-2.2,3.6-5.2,6.5-9,8.7c-3.9,2.3-8.4,3.7-13.6,4.3l-0.8-0.9c4.7,0.1,8.8,1,12.2,2.7c3.5,1.7,6.1,4,8,7s2.8,6.5,2.8,10.5
				c0,5.6-1.5,10.5-4.5,14.8c-3,4.3-7.2,7.6-12.5,10s-11.5,3.6-18.6,3.6H64.1z M86.1,554.2h21c3.4,0,6.3-0.6,8.9-1.9
				c2.5-1.3,4.5-3,5.9-5.2c1.4-2.2,2.1-4.8,2.1-7.6c0-2.2-0.4-4.1-1.3-5.7s-2.1-2.8-3.8-3.7c-1.7-0.9-3.7-1.3-5.9-1.3H90.6
				L86.1,554.2z M93.1,514.5h19.3c2.8,0,5.3-0.6,7.6-1.8c2.3-1.2,4.1-2.8,5.5-4.9c1.3-2,2-4.4,2-7c0-3-0.8-5.2-2.5-6.8
				c-1.6-1.6-4.1-2.3-7.3-2.3H97L93.1,514.5z"/>
			<path class="st2" d="M181.1,571.2c-6.3,0-11.6-1.3-16.1-3.9c-4.5-2.6-8-6.2-10.5-10.7s-3.7-9.6-3.7-15.4c0-4.4,0.6-8.7,1.7-12.8
				s2.8-7.8,4.9-11.2c2.1-3.4,4.7-6.3,7.7-8.8s6.5-4.4,10.3-5.8s8-2.1,12.5-2.1c4.7,0,9,0.8,12.9,2.5s7.2,4.2,9.8,7.5
				c2.6,3.3,4.4,7.4,5.3,12.4c0.9,4.9,0.7,10.7-0.7,17.2h-52.3v-10.9h36.9c0-2.7-0.3-5-0.9-7s-1.5-3.6-2.7-4.8
				c-1.2-1.3-2.6-2.2-4.2-2.8s-3.4-0.9-5.3-0.9c-2.3,0-4.4,0.4-6.3,1.2c-2,0.8-3.7,2-5.2,3.6s-2.8,3.4-3.8,5.6
				c-1,2.2-1.8,4.6-2.4,7.4s-0.8,5.7-0.8,8.9c0,3.4,0.5,6.4,1.4,9.1c1,2.6,2.5,4.7,4.6,6.2s4.7,2.3,7.8,2.3s5.8-0.7,8.1-2
				c2.3-1.3,4.2-3.1,5.7-5.3h18c-1.2,3.9-3.3,7.4-6.3,10.5s-6.7,5.5-11.1,7.3C191.8,570.4,186.8,571.2,181.1,571.2z"/>
			<path class="st2" d="M219.5,569.4l16.4-93h18.2l-16.4,93H219.5z"/>
			<path class="st2" d="M282.8,571.2c-6.3,0-11.6-1.3-16.1-3.9c-4.5-2.6-8-6.2-10.5-10.7s-3.7-9.6-3.7-15.4c0-4.4,0.6-8.7,1.7-12.8
				c1.1-4.1,2.8-7.8,4.9-11.2c2.1-3.4,4.7-6.3,7.7-8.8s6.5-4.4,10.3-5.8s8-2.1,12.5-2.1c4.7,0,9,0.8,12.9,2.5s7.2,4.2,9.8,7.5
				s4.4,7.4,5.3,12.4c0.9,4.9,0.7,10.7-0.7,17.2h-52.3v-10.9h36.9c0-2.7-0.3-5-0.9-7c-0.6-2-1.5-3.6-2.7-4.8
				c-1.2-1.3-2.6-2.2-4.2-2.8c-1.6-0.6-3.4-0.9-5.3-0.9c-2.3,0-4.4,0.4-6.3,1.2c-2,0.8-3.7,2-5.2,3.6s-2.8,3.4-3.8,5.6
				c-1,2.2-1.8,4.6-2.4,7.4c-0.6,2.8-0.8,5.7-0.8,8.9c0,3.4,0.5,6.4,1.4,9.1c1,2.6,2.5,4.7,4.6,6.2s4.7,2.3,7.8,2.3s5.8-0.7,8.1-2
				s4.2-3.1,5.7-5.3h18c-1.2,3.9-3.3,7.4-6.3,10.5s-6.7,5.5-11.1,7.3C293.5,570.4,288.5,571.2,282.8,571.2z M284.3,491.7l13.3-17.8
				h18l-16.3,17.8H284.3z"/>
			<path class="st2" d="M321.2,569.4l11.9-66.9h18.2l-2.7,15.8l-1.4-1.6c2.2-3.9,4.6-7,7.4-9.4c2.7-2.3,5.7-4,8.9-5.1
				c3.2-1,6.4-1.6,9.6-1.6c4.3,0,7.9,0.7,10.7,2.2s4.9,3.5,6.3,6.1c1.4,2.6,2.3,5.5,2.6,8.7c0.3,3.3,0.2,6.7-0.5,10.2l-7.2,41.5
				h-18.4l7.2-40.2c0.4-2.4,0.4-4.7-0.1-6.7s-1.5-3.7-3-5s-3.7-2-6.6-2c-3,0-5.7,0.8-8.2,2.3s-4.6,3.6-6.4,6.1
				c-1.7,2.6-2.9,5.4-3.5,8.7l-6.5,36.9H321.2z"/>
		</g>
	</g>
	<g>
		<path class="st0" d="M46.2,680.1l16.3-93h39.8c3.8,0,7.2,0.6,10.3,1.8c3,1.2,5.6,2.9,7.7,5.1s3.8,4.9,4.9,7.9
			c1.2,3.1,1.8,6.5,1.8,10.4c0,4.5-0.8,8.6-2.5,12.4c-1.7,3.7-4.1,7-7.1,9.8s-6.6,4.9-10.8,6.4c-4.2,1.5-8.7,2.3-13.7,2.3h-28
			l-6.5,36.9L46.2,680.1L46.2,680.1z M66.7,633.2h25.1c4.8,0,8.8-0.9,12.2-2.7c3.3-1.8,5.9-4.3,7.7-7.5c1.8-3.2,2.7-6.7,2.7-10.6
			c0-4.9-1.3-8.6-3.9-11.1c-2.6-2.6-6.5-3.8-11.7-3.8H73.1L66.7,633.2z"/>
		<path class="st0" d="M126.2,680.1l11.8-66.9h11.9l-3.1,18.2l-0.7-0.3c1.6-4.9,3.5-8.6,5.9-11.2s4.9-4.4,7.7-5.3
			c2.8-1,5.7-1.4,8.7-1.4h5.2l-2.1,11.7h-5.2c-3.3,0-6.5,0.9-9.6,2.8c-3.1,1.9-5.8,4.5-8.1,7.8c-2.3,3.3-3.8,7.3-4.7,11.9l-5.9,32.7
			H126.2z"/>
		<path class="st0" d="M201.1,681.8c-5.8,0-10.9-1.3-15.2-3.9c-4.3-2.6-7.7-6.2-10.1-10.7s-3.6-9.6-3.6-15.4c0-4.4,0.6-8.7,1.7-12.7
			s2.8-7.7,4.9-11.1c2.1-3.3,4.7-6.3,7.7-8.7c3-2.5,6.3-4.4,10-5.8s7.7-2.1,11.9-2.1c4.2,0,8.1,0.7,11.8,2.2
			c3.7,1.5,6.8,3.7,9.3,6.8c2.5,3,4.2,7,5.1,11.8s0.6,10.6-0.8,17.3h-54.2v-8.6H224c0.1-3.2-0.2-6.1-0.8-8.5
			c-0.6-2.5-1.6-4.5-2.9-6.2c-1.3-1.6-3.1-2.9-5.1-3.7c-2.1-0.8-4.5-1.2-7.3-1.2c-3,0-5.7,0.5-8.1,1.5c-2.5,1-4.7,2.4-6.6,4.2
			c-2,1.8-3.6,4-4.9,6.5s-2.4,5.3-3.1,8.3s-1.1,6.3-1.1,9.6c0,3.8,0.6,7.3,1.8,10.4c1.2,3.1,3.1,5.6,5.8,7.4c2.6,1.8,6,2.7,10.1,2.7
			c4.4,0,8.1-0.9,11-2.8c2.9-1.9,5.2-4.2,7-7h12c-1.4,3.9-3.5,7.3-6.3,10.3s-6.2,5.2-10.3,6.8C210.9,681,206.3,681.8,201.1,681.8z"
			/>
		<path class="st0" d="M242.1,622.5l1.7-9.4h15l-1.7,9.4H242.1z M244.8,680.1l13-74c0.8-4.3,2.1-7.9,4-10.7s4.3-4.9,7.2-6.3
			c2.9-1.3,6.4-2,10.4-2h11.3l-1.7,9.5h-8.9c-2.8,0-5.1,0.9-7,2.7s-3.1,4.3-3.6,7.3L256.6,680L244.8,680.1L244.8,680.1z
			 M264.7,622.5l1.7-9.4h19.7l-1.7,9.4H264.7z"/>
		<path class="st0" d="M313.3,681.8c-5.8,0-10.9-1.3-15.2-3.9c-4.3-2.6-7.7-6.2-10.1-10.7c-2.4-4.5-3.6-9.6-3.6-15.4
			c0-4.4,0.6-8.7,1.7-12.7c1.1-4,2.8-7.7,4.9-11.1c2.1-3.3,4.7-6.3,7.7-8.7c3-2.5,6.3-4.4,10-5.8s7.7-2.1,11.9-2.1s8.1,0.7,11.8,2.2
			s6.8,3.7,9.3,6.8c2.5,3,4.2,7,5.1,11.8c0.9,4.8,0.6,10.6-0.8,17.3h-54.2v-8.6h44.4c0.1-3.2-0.2-6.1-0.8-8.5
			c-0.6-2.5-1.6-4.5-2.9-6.2c-1.3-1.6-3.1-2.9-5.1-3.7c-2.1-0.8-4.5-1.2-7.3-1.2c-3,0-5.7,0.5-8.1,1.5c-2.5,1-4.7,2.4-6.6,4.2
			c-2,1.8-3.6,4-4.9,6.5c-1.3,2.5-2.4,5.3-3.1,8.3c-0.7,3-1.1,6.3-1.1,9.6c0,3.8,0.6,7.3,1.8,10.4c1.2,3.1,3.1,5.6,5.8,7.4
			c2.6,1.8,6,2.7,10.1,2.7c4.4,0,8.1-0.9,11-2.8c2.9-1.9,5.2-4.2,7-7h12c-1.4,3.9-3.5,7.3-6.3,10.3s-6.2,5.2-10.3,6.8
			C323.1,681,318.5,681.8,313.3,681.8z"/>
		<path class="st0" d="M352.2,680.1l11.8-66.9h11.9l-3.1,18.2l-0.7-0.3c1.6-4.9,3.5-8.6,5.9-11.2s4.9-4.4,7.7-5.3
			c2.8-1,5.7-1.4,8.7-1.4h5.2l-2.1,11.7h-5.2c-3.3,0-6.5,0.9-9.6,2.8c-3.1,1.9-5.8,4.5-8.1,7.8s-3.8,7.3-4.7,11.9l-5.9,32.7H352.2z"
			/>
		<path class="st0" d="M427.1,681.8c-5.8,0-10.9-1.3-15.2-3.9c-4.3-2.6-7.7-6.2-10.1-10.7c-2.4-4.5-3.6-9.6-3.6-15.4
			c0-4.4,0.6-8.7,1.7-12.7c1.1-4,2.8-7.7,4.9-11.1c2.1-3.3,4.7-6.3,7.7-8.7c3-2.5,6.3-4.4,10-5.8s7.7-2.1,11.9-2.1s8.1,0.7,11.8,2.2
			s6.8,3.7,9.3,6.8c2.5,3,4.2,7,5.1,11.8c0.9,4.8,0.6,10.6-0.8,17.3h-54.2v-8.6H450c0.1-3.2-0.2-6.1-0.8-8.5
			c-0.6-2.5-1.6-4.5-2.9-6.2c-1.3-1.6-3.1-2.9-5.1-3.7c-2.1-0.8-4.5-1.2-7.3-1.2c-3,0-5.7,0.5-8.1,1.5c-2.5,1-4.7,2.4-6.6,4.2
			c-2,1.8-3.6,4-4.9,6.5c-1.3,2.5-2.4,5.3-3.1,8.3c-0.7,3-1.1,6.3-1.1,9.6c0,3.8,0.6,7.3,1.8,10.4c1.2,3.1,3.1,5.6,5.8,7.4
			c2.6,1.8,6,2.7,10.1,2.7c4.4,0,8.1-0.9,11-2.8c2.9-1.9,5.2-4.2,7-7h12c-1.4,3.9-3.5,7.3-6.3,10.3s-6.2,5.2-10.3,6.8
			C436.9,681,432.3,681.8,427.1,681.8z"/>
		<path class="st0" d="M466,680.1l11.8-66.9h11.9l-2.6,15l-0.9-1.3c2.1-3.6,4.5-6.5,7.2-8.7c2.7-2.3,5.6-3.9,8.9-5
			c3.2-1.1,6.6-1.6,10-1.6c4.6,0,8.4,0.8,11.3,2.4c2.9,1.6,5.1,3.7,6.6,6.4c1.5,2.6,2.4,5.6,2.7,8.8s0.2,6.4-0.3,9.6l-7.2,41.4h-12
			l7.3-41.1c0.5-2.7,0.5-5.4,0.1-8c-0.5-2.6-1.7-4.9-3.6-6.7c-1.9-1.8-5-2.7-9.2-2.7c-3.5,0-6.9,0.9-10.2,2.7s-6.1,4.2-8.5,7.3
			c-2.3,3.1-3.9,6.6-4.7,10.6l-6.6,38h-12V680.1z"/>
		<path class="st0" d="M542.4,622.5l1.7-9.4h15.1l-1.7,9.4H542.4z M563.1,680.1c-6.3,0-10.6-1.6-12.8-4.7c-2.2-3.1-2.8-7.5-1.8-13
			l11.8-67.3h11.8L560.5,662c-0.5,3-0.2,5.1,1,6.5s3.3,2.1,6.2,2.1h7.7l-1.8,9.5H563.1z M565.3,622.5l1.6-9.4h18.6l-1.7,9.4H565.3z"
			/>
		<path class="st0" d="M613.6,681.8c-5.8,0-10.9-1.3-15.2-3.9c-4.3-2.6-7.7-6.2-10.1-10.7c-2.4-4.5-3.6-9.6-3.6-15.4
			c0-4.4,0.6-8.7,1.7-12.7c1.1-4,2.8-7.7,4.9-11.1c2.1-3.3,4.7-6.3,7.7-8.7c3-2.5,6.3-4.4,10-5.8s7.7-2.1,11.9-2.1s8.1,0.7,11.8,2.2
			s6.8,3.7,9.3,6.8c2.5,3,4.2,7,5.1,11.8c0.9,4.8,0.6,10.6-0.8,17.3h-54.2v-8.6h44.4c0.1-3.2-0.2-6.1-0.8-8.5
			c-0.6-2.5-1.6-4.5-2.9-6.2c-1.3-1.6-3.1-2.9-5.1-3.7c-2.1-0.8-4.5-1.2-7.3-1.2c-3,0-5.7,0.5-8.1,1.5c-2.5,1-4.7,2.4-6.6,4.2
			c-2,1.8-3.6,4-4.9,6.5c-1.3,2.5-2.4,5.3-3.1,8.3c-0.7,3-1.1,6.3-1.1,9.6c0,3.8,0.6,7.3,1.8,10.4c1.2,3.1,3.1,5.6,5.8,7.4
			c2.6,1.8,6,2.7,10.1,2.7c4.4,0,8.1-0.9,11-2.8c2.9-1.9,5.2-4.2,7-7h12c-1.4,3.9-3.5,7.3-6.3,10.3s-6.2,5.2-10.3,6.8
			C623.4,681,618.8,681.8,613.6,681.8z"/>
	</g>
	<path class="st0" d="M-72.3,495.2c-5.7-3.9-11.1-7.5-16.4-11.4c-7.9-5.9-15.6-6.1-23.5-0.1c-5.3,3.9-10.8,7.5-16.5,11.5
		c0-19,0-47.2,0-66c18.7,0,37.5,0,56.5,0C-72.3,447.8-72.3,476-72.3,495.2z"/>
</g>
<g>
	<path class="st3" d="M388.42,317.39c-2.76,8.28-8.68,12.89-16.83,15.91c-44.18,16.17-88.1,33-132.15,49.05
		c-27.09,9.86-55.23,11.7-83.76,7.63c-22.75-3.29-43.52-12.1-63.64-22.88c-5.39-2.89-11.05-4.21-17.22-4.08
		c-15.78,0.26-31.69,0.13-47.47,0.13c-9.73,0-15.78-6.05-15.78-15.91c0-20.91,0-41.94,0-62.85c0-9.99,6.05-15.91,16.04-16.04
		c6.05,0,11.97,0,18.01,0c12.36,0.13,24.46-0.39,36.69-3.42c20.91-5.13,41.42-1.97,60.75,7.63c25.77,12.75,51.54,25.64,77.18,38.53
		c7.36,3.68,9.86,11.83,6.31,19.07c-3.42,7.1-11.18,9.86-18.67,6.44c-13.28-6.31-26.43-12.89-39.58-19.33
		c-4.08-1.97-8.02-1.84-11.83,0.79c-3.55,2.5-4.87,6.05-4.47,10.26c0.39,3.81,2.37,6.71,5.79,8.42
		c13.94,6.84,27.74,13.94,41.94,20.38c13.28,6.05,26.03,3.94,37.21-5.26c11.04-9.2,15.25-21.3,12.62-35.5
		c-0.13-0.39-0.13-0.92-0.26-1.71c9.99-1.71,19.85-3.42,29.72-5.13c25.25-4.34,50.49-8.55,75.74-12.89
		c3.68-0.66,7.23-1.31,10.91-1.84c10.26-1.45,18.67,3.68,21.83,13.67c0.13,0.53,0.53,1.05,0.79,1.71
		C388.42,312.53,388.42,315.02,388.42,317.39z"/>
	<path class="st2" d="M274.29,56.12c1.45-0.13,17.36-0.26,18.41-0.26c13.15,0,26.3,0,39.31,0c10.12,0,16.04,5.92,16.04,15.91
		l-0.13,203.41c0,0-76.66,13.02-102.03,17.49c-6.18,1.05-11.7,0.66-17.62-2.37c-26.82-13.67-74.55-32.21-101.77-45.1
		c-9.86-5-19.72-5-29.19-2.63c-2.76-0.66-3.55-1.45-3.55-4.21V73.22c0-11.83,5.52-17.36,17.36-17.36c12.75,0,35.37,0.13,48.12,0
		c2.76,0,3.55,0.79,3.55,3.55c-0.13,18.67-0.13,58.38,0,76.92c0,11.97,6.97,20.25,18.28,22.22c5.39,0.92,10.26-0.39,14.73-3.16
		c6.44-3.94,12.75-7.76,19.07-11.7c2.37-1.58,4.21-1.97,6.84-0.13c5.65,3.81,11.7,7.1,17.49,10.91c7.76,5,15.65,6.31,23.93,1.58
		c8.15-4.6,11.18-12.1,11.04-21.3c-0.26-17.75,0-56.54,0-74.42C274.29,58.89,274.29,57.57,274.29,56.12z M218.67,222.59
		c11.83,0,23.8,0,35.63,0c7.23,0,12.1-4.6,12.1-11.04c0-6.44-5-11.04-12.1-11.04c-23.8,0-47.6,0-71.4,0
		c-7.1,0-12.23,4.6-12.36,10.91c-0.13,6.44,5,11.18,12.36,11.18C194.87,222.59,206.71,222.59,218.67,222.59z"/>
	<path class="st3" d="M254.96,130.28c-7.49-5.26-14.86-9.86-21.83-15.12c-10.52-7.89-20.64-8.02-31.29-0.13
		c-6.97,5.26-14.33,9.99-21.96,15.25c0-25.25,0-97.17,0-122.28c24.85,0,49.7,0,74.95,0C254.96,32.72,254.96,104.78,254.96,130.28z"
		/>
</g>
</svg>
