<?xml version="1.0" encoding="utf-8"?>
<!-- Generator: Adobe Illustrator 30.4.0, SVG Export Plug-In . SVG Version: 9.03 Build 0)  -->
<svg version="1.0" id="Capa_1" xmlns="http://www.w3.org/2000/svg" xmlns:xlink="http://www.w3.org/1999/xlink" x="0px" y="0px"
	 viewBox="0 0 400 400" style="enable-background:new 0 0 400 400;" xml:space="preserve">
<style type="text/css">
	.st0{fill:#FF4547;}
	.st1{fill:#E73C3C;}
	.st2{fill:#D63C3C;}
</style>
<path class="st0" d="M361.12,313.38c0,12.58-10.2,22.77-22.77,22.77H61.66c-12.58,0-22.77-10.19-22.77-22.77
	c0-4.32,1.22-8.45,3.41-11.98c2.19-3.54,5.34-6.47,9.21-8.4c8.22-4.1,14.93-10.35,19.59-17.86c4.66-7.52,7.25-16.31,7.25-25.5
	v-89.21c0-57.31,39.63-105.37,92.98-118.26c-0.14-1.12-0.2-2.25-0.2-3.4c0-15.95,12.93-28.88,28.88-28.88s28.88,12.93,28.88,28.88
	c0,1.15-0.07,2.28-0.2,3.4c22.08,5.33,41.81,16.69,57.35,32.23c22.02,22.02,35.63,52.43,35.63,86.03v89.21
	c0,18.38,10.39,35.17,26.84,43.36c3.87,1.93,7.02,4.86,9.21,8.4C359.9,304.93,361.12,309.06,361.12,313.38z"/>
<path class="st0" d="M252,346.11c0,28.72-23.28,52-52,52s-52-23.28-52-52H252z"/>
<path class="st1" d="M361.12,313.38c0,12.58-10.2,22.77-22.77,22.77H200V9.89c15.95,0,28.88,12.93,28.88,28.88
	c0,1.15-0.07,2.29-0.2,3.4c22.08,5.33,41.81,16.69,57.35,32.23c22.02,22.02,35.63,52.43,35.63,86.03v89.21
	c0,18.38,10.39,35.17,26.84,43.36c3.86,1.93,7.02,4.86,9.21,8.4C359.9,304.93,361.12,309.06,361.12,313.38z"/>
<path class="st2" d="M252,346.11c0,28.72-23.28,52-52,52v-52H252z"/>
</svg>
