<?xml version="1.0" encoding="utf-8"?>
<!-- Generator: Adobe Illustrator 30.5.1, SVG Export Plug-In . SVG Version: 9.03 Build 0)  -->
<svg version="1.0" id="Capa_1" xmlns="http://www.w3.org/2000/svg" xmlns:xlink="http://www.w3.org/1999/xlink" x="0px" y="0px"
	 viewBox="0 0 300 300" style="enable-background:new 0 0 300 300;" xml:space="preserve">
<style type="text/css">
	.st0{opacity:0.2;}
</style>
<g class="st0">
	<path d="M250.88,151.49c0.01,6.65-2.34,12.52-6.84,17.01L136.32,276.22c-10.73,10.73-28.42,11.39-39.3,0.51l-78.61-78.6
		c-10.7-10.7-10.32-28.35,0.26-38.94L126.35,51.4c4.6-4.6,10.54-7.13,17.02-7.13l46.83-0.02c-5.41,12.77-5.85,26.48-1.47,39.62
		c-1.81,10.28,4.53,19.94,14.3,22.33s19.73-3.09,22.86-12.72c3.09-9.49-1.52-19.98-11.38-23.83c-1.15-8.66,2.79-17.6,8.07-25.14
		c14.18-2.22,28.2,8.1,28.22,23.21L250.88,151.49z M154.76,121.15c0-13.26-10.75-24.01-24.01-24.01s-24.01,10.75-24.01,24.01
		s10.75,24.01,24.01,24.01S154.76,134.41,154.76,121.15z M193.4,169.21c3.32-0.34,4.71-2.66,4.6-5.09c-0.1-2.36-1.92-4.52-4.86-4.52
		H68.36c-3.16,0-5,2.45-4.86,5.08c0.12,2.36,1.9,4.53,4.87,4.53H193.4z M154.76,207.65c0-13.26-10.75-24.01-24.01-24.01
		s-24.01,10.75-24.01,24.01s10.75,24.01,24.01,24.01C144.01,231.67,154.76,220.92,154.76,207.65z"/>
	<path d="M156.19,289.37l-11.38-8.09L250.2,175.83c6.33-6.34,10.27-14.31,10.27-23.49l0.04-84.6c0-3.9-1.04-7.14-1.72-11.05
		c2.91,3.34,5.28,7.05,6.05,11.6l14.24,83.43c1.07,6.26-0.6,12.41-4.23,17.53l-79.62,112.39
		C186.28,294.29,169.31,298.69,156.19,289.37z"/>
	<path d="M248.47,16.23c-13.01,3.11-23.54,10.15-31.74,20.3c-6.58,8.16-11.22,17.57-11.95,28.09c-0.5,7.09,1.32,13.96,6.14,18.99
		c1.98,2.06,2.37,4.94,0.3,7.07c-1.84,1.89-4.98,1.95-7.1-0.27c-9.04-9.54-10.57-22.78-7.37-35.49c2.6-10.32,7.83-19.22,14.85-27.15
		c9.93-11.24,22.62-18.72,37.47-21.48c11.16-2.08,22.79,0.77,30.91,8.89c16.2,16.2,9.49,42.53-4.2,59.34l-2.62-12.79
		c7.04-12.72,10.55-29.23,0.01-39.72C266.68,15.55,257.46,14.08,248.47,16.23z"/>
	<circle cx="130.74" cy="121.15" r="14.39"/>
	<circle cx="130.75" cy="207.65" r="14.39"/>
</g>
</svg>
