<?xml version="1.0" encoding="utf-8"?>
<!-- Generator: Adobe Illustrator 30.4.0, SVG Export Plug-In . SVG Version: 9.03 Build 0)  -->
<svg version="1.0" id="Capa_1" xmlns="http://www.w3.org/2000/svg" xmlns:xlink="http://www.w3.org/1999/xlink" x="0px" y="0px"
	 viewBox="0 0 300 300" style="enable-background:new 0 0 300 300;" xml:space="preserve">
<style type="text/css">
	.st0{fill:#8CB81F;}
</style>
<g>
	<path class="st0" d="M2,171.6c1-6.3,1.8-12.6,3-18.8c0.7-4,1.8-7.9,2.9-11.8c1-3.7,4.1-5.6,7.4-4.6c3.2,0.9,4.7,4,3.8,7.7
		c-1.4,6.3-2.8,12.6-4.2,18.9c-0.6,2.5-0.1,4.1,2.3,5.7c14.1,9.4,28.1,19,42.1,28.5c0.7,0.5,1.4,0.9,2.5,1.6
		c5.4-5.4,10.5-11,16.1-16.1c3.4-3.1,4.7-6.4,4.6-11c-0.3-11.3-0.1-24.8-0.2-36c0-1.2-0.4-2.8-1.1-3.6l-38-38.9
		c-1.8,2.9-3.5,5.8-5.3,8.7c-2.2,3.5-5.5,4.6-8.5,2.8c-3-1.8-3.6-5.2-1.5-8.8C43,70.4,61.6,47.6,83.3,27.3c3.6-3.4,6.1-3.4,9.9-0.1
		c24.6,21.6,44.6,46.8,59.7,75.8c0.5,0.9,1,1.8,1.7,3.2c2.3-2.4,4.4-4.6,6.6-6.8c4.6-4.6,29.02-28.7,33.72-33.3
		c17.6-17.3,45.3-17.4,62.6-0.1c17.2,17.1,17.5,44.8,0.3,62.5c-11.7,12-43.52,43.2-55.32,55c-0.7,0.7-1.7,1.3-2.5,1.9
		c0.1,0.4,0.3,0.7,0.4,1.1c1.1,0,2.1,0,3.2,0c16.3,0,32.6-0.1,48.9,0c22.3,0.1,39.9,14.1,44.5,35.1c5.9,27-14.7,53.2-42.4,53.5
		c-20.8,0.3-41.6,0.1-62.4,0.1c-34.9,0-69.8,0.5-104.6-0.2c-34.7-0.7-59.4-18.1-75.1-48.7c-5.7-11.2-8.8-23.2-9.9-35.7
		c-0.1-0.9-0.3-1.8-0.5-2.8C2,182.4,2,177,2,171.6z M167.1,198.1c-7.2,0-14.1,0-21,0c-18.6,0-37.2-0.3-55.8,0.2
		c-18.5,0.4-33,18.5-30.2,36.7c2.7,17,15.8,28.4,33.2,28.5c23.6,0.1,47.2,0,70.8,0c0.9,0,1.9-0.1,3-0.1
		C167.1,241.6,167.1,220.1,167.1,198.1z M130.1,147.2c0.9,0.6,2,1,2.7,1.7c10.9,10.9,22,21.6,32.6,32.7c3.4,3.6,6.9,5,11.8,4.9
		c4.1-0.1,7.1-1.2,10-4.2c14.3-14.7,49.02-48.3,63.12-63.1c14.2-14.9,10.3-39.4-7.3-49.9c-13.1-7.8-28.9-5.9-40.1,5.1
		c-17.2,17-54.02,53.5-71.12,70.6C131.5,145.5,131.1,146,130.1,147.2z M179.1,236.5c0,9.1,0,17.9,0,27c1.3,0,2.4,0,3.6,0
		c22.8,0,45.7,0,68.5,0c2.5,0,5-0.2,7.5-0.5c16.9-2.2,29.8-19.2,27.4-35.9c-2.5-17.5-15.6-28.9-33.4-28.9c-23.7-0.1-47.4,0-71.1,0
		c-0.8,0-1.7,0.1-2.5,0.2c0,8.9,0,17.6,0,26.6c1.2,0,2.2,0,3.3,0c16.1,0,32.2,0,48.3,0c1.3,0,2.7,0.1,4,0.5c2.6,0.8,4.1,3.5,3.8,6.1
		c-0.4,2.7-2.4,4.7-5.2,5c-1,0.1-1.9,0.1-2.9,0.1c-16,0-32,0-48,0C181.3,236.5,180.2,236.5,179.1,236.5z M94.2,166
		c0.8-0.6,1.2-0.9,1.6-1.3c16.1-16.1,32.3-32.3,48.5-48.4c1.5-1.5,0.9-2.6,0.2-4C132.9,88.6,117.3,67.7,99,48.7
		c-1.4-1.5-2.8-3.1-4.2-4.6c-0.2,0.2-0.4,0.3-0.6,0.5C94.2,84.9,94.2,125.2,94.2,166z M54.3,207.9c-13.5-9.2-26.8-18.2-40.5-27.5
		c-0.3,35.1,19.7,64.7,41.1,74.2C45.9,239.3,46.2,222.6,54.3,207.9z M82.1,115.7c0-24.6,0-46.5,0-70.6c-0.3-0.2-0.5-0.3-0.8-0.5
		c-10.5,12.6-21.1,25.2-31.7,38L82.1,115.7z M152.9,186.2c-10.4-10.4-20.6-20.7-30.6-30.7c-10.1,10.1-20.4,20.4-30.6,30.7
		C111.9,186.2,132.4,186.2,152.9,186.2z"/>
	<path class="st0" d="M249.62,99.3c-0.4,7.1-4.4,13-10,17.8c-2.1,1.9-5.4,1.3-7.4-0.7c-2.1-2.1-2.3-5.2-0.4-7.6
		c1.4-1.9,3.2-3.6,4.5-5.6c2.4-3.7,2.2-5.8-0.3-9.2c-2.4-3.2-2.1-6.6,0.5-8.7c2.7-2.1,6.1-1.6,8.6,1.5
		C247.92,90.2,249.52,94.1,249.62,99.3z"/>
</g>
</svg>
