<?xml version="1.0" encoding="UTF-8"?>
<svg id="Capa_1" xmlns="http://www.w3.org/2000/svg" version="1.1" viewBox="0 0 300 300">
  <!-- Generator: Adobe Illustrator 30.4.0, SVG Export Plug-In . SVG Version: 2.1.4 Build 226)  -->
  <defs>
    <style>
      .st0 {
        fill: #df5252;
      }

      .st1 {
        fill: #d36767;
      }
    </style>
  </defs>
  <path class="st1" d="M184.98,15.01c12.02,1.87,21.31,10.97,21.5,23.16l.14,9.13,40.93.03c12.11.49,21.64,9.14,23.41,20.68,1.78,11.63-5.08,22.79-16.38,26.58l-14.39,173.74c-1.12,12.22-10.25,21.27-22.44,22.67H82.23c-12.19-1.4-21.33-10.46-22.44-22.66l-14.4-173.8c-11.69-3.86-18.26-15.44-16.29-26.98,1.93-11.33,11.39-19.76,23.34-20.24l40.92-.03.13-8.63c.18-12.51,9.56-21.88,21.6-23.67h69.91ZM190.38,47.3l.07-7.54c.05-5.07-3.63-8.64-8.68-8.64h-63.55c-5.06,0-8.73,3.57-8.69,8.64l.06,7.54h80.78ZM247.21,79.64c5.02,0,7.99-4.44,7.87-8.31-.13-4.15-3.44-7.85-8.13-7.85H53.04c-4.88,0-8.26,4.02-8.13,8.33.12,4.09,3.42,7.84,8.14,7.84h194.16ZM215.96,274.83c4.76-.26,7.55-3.22,8.11-7.58l14.2-171.39H61.74s14.2,171.39,14.2,171.39c.54,4.57,3.73,7.52,8.38,7.58h131.64Z"/>
  <path class="st0" d="M191.95,205.07c4.87,4.87,5.16,11.86.89,16.83-3.94,4.58-12.05,5.8-16.82,1.04l-26.03-26-26.43,26.31c-4.48,4.46-12.23,3.07-16.08-.99-4.03-4.24-4.79-11.7-.33-16.18l25.96-26.09-25.61-25.67c-4.49-4.5-4.35-11.58-.34-16.23,3.51-4.08,11.49-6.1,16-1.63l26.84,26.61,26.03-26c4.49-4.48,11.89-3.72,16.13.31s5.3,11.91.7,16.54l-25.96,26.11,25.07,25.04Z"/>
</svg>