<?xml version="1.0" encoding="utf-8"?>
<!-- Generator: Adobe Illustrator 27.2.0, SVG Export Plug-In . SVG Version: 6.00 Build 0)  -->
<svg version="1.0" id="Capa_1" xmlns="http://www.w3.org/2000/svg" xmlns:xlink="http://www.w3.org/1999/xlink" x="0px" y="0px"
	 viewBox="0 0 300 300" style="enable-background:new 0 0 300 300;" xml:space="preserve">
<style type="text/css">
	.st0{fill:#FFFFFF;}
</style>
<g>
	<path class="st0" d="M280,76H21c-9.9,0-18-8.1-18-18v0c0-9.9,8.1-18,18-18h259c9.9,0,18,8.1,18,18v0C298,67.9,289.9,76,280,76z"/>
	<path class="st0" d="M280,168H21c-9.9,0-18-8.1-18-18v0c0-9.9,8.1-18,18-18h259c9.9,0,18,8.1,18,18v0C298,159.9,289.9,168,280,168z
		"/>
	<path class="st0" d="M280,260H21c-9.9,0-18-8.1-18-18v0c0-9.9,8.1-18,18-18h259c9.9,0,18,8.1,18,18v0C298,251.9,289.9,260,280,260z
		"/>
</g>
</svg>
