<?xml version="1.0" encoding="utf-8"?>
<!-- Generator: Adobe Illustrator 30.4.0, SVG Export Plug-In . SVG Version: 9.03 Build 0)  -->
<svg version="1.0" id="Capa_1" xmlns="http://www.w3.org/2000/svg" xmlns:xlink="http://www.w3.org/1999/xlink" x="0px" y="0px"
	 viewBox="0 0 300 300" style="enable-background:new 0 0 300 300;" xml:space="preserve">
<style type="text/css">
	.st0{fill:#FFFFFF;}
</style>
<g>
	<path class="st0" d="M1.1,115.8c0.7-5,1.3-10,2.2-14.9c4.2-22.1,13.9-41.4,29-58C50,23.4,71.7,10.7,97.5,5.6
		c30.2-6,58.9-1.5,85.4,14.5c30.1,18.1,49.2,44.6,56.5,79c6.2,29.4,1.6,57.4-13.1,83.7c-2.7,4.8-2.7,4.7,1.2,8.7
		c21.1,21.1,42.2,42.3,63.4,63.4c6.8,6.8,9.8,14.8,7.4,24.3c-4.6,17.8-27,24.4-41.2,10.1c-12-12.2-24.3-24.3-36.4-36.4
		c-9.5-9.5-19.1-19.1-28.6-28.6c-0.5-0.5-1.1-1-1.4-1.3c-7.4,3.9-14.3,8.2-21.8,11.3c-32.5,13.5-65.1,13.4-97.3-1.2
		c-24.1-10.9-42.5-28.2-55.4-51.2C7.9,167,3,151.2,1.7,134.3c-0.1-0.9-0.3-1.9-0.5-2.8C1.1,126.2,1.1,121,1.1,115.8z M40.1,123.5
		c0,44.8,36.6,81.4,81.4,81.4c44.6-0.1,81.3-35.7,81.3-81.4c0-44.9-36.3-81-81.2-81.2C77,42,40.2,78.6,40.1,123.5z"/>
</g>
</svg>
