<?xml version="1.0" encoding="UTF-8"?>
<svg id="Capa_1" xmlns="http://www.w3.org/2000/svg" version="1.1" viewBox="0 0 300 300">
  <!-- Generator: Adobe Illustrator 30.3.0, SVG Export Plug-In . SVG Version: 2.1.3 Build 182)  -->
  <defs>
    <style>
      .st0, .st1, .st2 {
        fill: #fff;
      }

      .st1 {
        opacity: .8;
      }

      .st1, .st2 {
        isolation: isolate;
      }

      .st2 {
        opacity: .2;
      }
    </style>
  </defs>
  <path class="st2" d="M150,75.7c-26,0-47.9,21.7-47.6,47.7.3,26.8,20.9,47.3,47.7,47.6,26.3.2,47.8-21.8,47.7-48-.2-25.9-21.8-47.3-47.8-47.3Z"/>
  <path class="st2" d="M150.2,193c-4.4-.2-8.7.3-13,.9-29.6,4.4-52.5,19.1-68.5,44.2-3.7,5.7-3.6,5.7,1.7,9.9,27.9,21.8,59.5,30.9,94.9,26.9,24.6-2.8,46.4-12.3,65.5-27.8,4-3.2,4-3.4,1.3-7.7-18.9-30.1-46.5-45.1-81.9-46.4Z"/>
  <path class="st0" d="M249.9,226.7c-.3-.3-.6-.6-1-1.2-3.3-5.4-7.2-10.3-11.4-15.1-11.7-13.3-25.8-23.2-42-30.1-3.6-1.6-3.7-1.6-.7-4,28.3-23.4,32.7-67.4,9.5-95.9-27.2-33.6-75.7-35.4-105.4-4-26.5,28.1-23.6,75.2,6.1,99.8q3.1,2.5-.4,4c-22.3,9.5-40.2,24.4-53.3,44.9-.7,1-1.2,1.6-1.7,1.7,4.9,6.5,10.4,12.4,16.5,17.8-.2-1.3.7-2.7,2.5-5.7,16-25.4,39-40.3,68.6-44.8,4.2-.6,8.6-1.2,13-1,35.5,1.4,63.2,16.5,82,47,1,1.6,1.6,2.6,1.8,3.4,5.8-5,11.1-10.7,15.9-16.8ZM150.1,171c-26.7-.2-47.3-20.8-47.7-47.6-.3-26,21.6-47.7,47.6-47.7s47.6,21.4,47.7,47.3c.1,26.2-21.4,48.2-47.6,48Z"/>
  <path class="st1" d="M150.2,3C67.7,2.9,2.5,70.2,2.9,150.1c-.2,78,61.8,146.6,145.8,146.9,79.1.2,148.2-63.4,148.4-146.1.2-80.5-64.8-147.8-146.9-147.9ZM252.4,222.4c-.5.7-1.1,1.4-1.5,2.1-.3.5-.6.8-.9,1.1-5.2,6.8-11.1,13-17.5,18.6-.5.7-1.4,1.4-2.7,2.5-18.9,15.5-40.4,25-64.7,27.8-2.1.2-4.1.4-6.1.6-3.3.3-6.7.4-10.1.4-71.7-.2-124.6-58.8-124.4-125.4-.2-36.4,15.6-69.7,41-92.8,17.6-16.4,38.8-26.8,63.3-31,36.2-6.2,69.3,2.1,98.2,24.7,22,17.1,36.5,38.8,43.6,64.5,3.2,11.2,5,23.1,4.9,35.3-.1,26.7-8.6,51.1-22.7,71-.1.2-.3.4-.4.6Z"/>
</svg>