<?xml version="1.0" encoding="utf-8"?>
<!-- Generator: Adobe Illustrator 27.2.0, SVG Export Plug-In . SVG Version: 6.00 Build 0)  -->
<svg version="1.0" id="Capa_1" xmlns="http://www.w3.org/2000/svg" xmlns:xlink="http://www.w3.org/1999/xlink" x="0px" y="0px"
	 viewBox="0 0 300 300" style="enable-background:new 0 0 300 300;" xml:space="preserve">
<style type="text/css">
	.st0{fill:#00B89D;}
</style>
<g>
	<path class="st0" d="M-154.8,251.1c-14,0-28.1,0-42.1,0c-0.8,0-1.6,0-2.5-0.2c-2.2-0.4-3.6-2.9-3.6-6.1c0-3.3,1.5-5.9,3.7-6.3
		c0.7-0.1,1.4-0.1,2.1-0.1c28.3,0,56.6,0,84.8,0c0.8,0,1.7,0,2.5,0.2c2,0.6,3.3,3.1,3.3,6.2c0,3.1-1.4,5.5-3.4,6
		c-0.9,0.2-1.8,0.2-2.7,0.2C-126.7,251.1-140.7,251.1-154.8,251.1z"/>
	<path class="st0" d="M-154.8,225.2c-21.1,0-42.1,0-63.2,0c-1.2,0-2.5,0-3.7-0.2c-3.3-0.4-5.4-2.9-5.4-6.1c0-3.3,2.2-5.9,5.5-6.3
		c1-0.1,2.1-0.1,3.1-0.1c42.4,0,84.9,0,127.3,0c1.2,0,2.5,0,3.7,0.2c3,0.6,5,3.1,5,6.2c0,3.1-2,5.5-5.1,6c-1.3,0.2-2.7,0.2-4,0.2
		C-112.6,225.3-133.7,225.2-154.8,225.2z"/>
	<rect x="-169.4" y="82.5" class="st0" width="28.6" height="102.8"/>
	
		<rect x="-172.3" y="82.5" transform="matrix(6.123234e-17 -1 1 6.123234e-17 -289.0005 -21.2979)" class="st0" width="34.3" height="102.8"/>
	<path class="st0" d="M-35.7,64.6c0-12.7-8.7-24.3-20.9-27.8c-3.9-1.1-8.1-1.6-12.1-1.7c-5-0.2-49.9-0.2-54.9-0.1v12.9
		c4,0,47.9,0,51.9,0.1c3.5,0,7,0,10.4,0.8c7.7,1.8,12.6,8.1,13,16c0,0.7,0,1.4,0,2.2c0,70-0.1,127.8,0.1,197.8
		c0,10.9-7,16.7-13.8,18.2c-1.7,0.4-3.5,0.5-5.2,0.5c-58.2,0-116.4,0-174.5,0c-9.4,0-16.2-4.6-18.4-12.5c-0.5-1.8-0.6-3.8-0.6-5.8
		c0-70.3,0.1-128.4-0.1-198.7c0-12,9.6-18.5,18.1-18.4c5.4,0.1,45.2,0.1,50.7,0V34.9c-4.9,0-44.1,0-49.1,0.1c-3,0.1-6,0.2-8.8,1
		c-15.2,4-23.6,15-23.6,30.7c0,69.9,0,127.6,0,197.5c0,1.3-0.1,2.7,0.1,4c0.7,8,4.1,14.8,10.2,20.1c6.4,5.5,13.9,7.7,22.2,7.7
		c33.2,0,66.4,0,99.6,0c24.8,0,49.5,0.1,74.3,0c18-0.1,31.7-12.8,31.8-29.6C-35.7,195.1-35.7,135.9-35.7,64.6z"/>
	<path class="st0" d="M-203,56.4c32,0,63.7,0,95.6,0c0-10.5,0-20.9,0-31.5c-6.8,0-13.4,0-19.9,0c-5.6,0-7.3-1.2-9-6.5
		c-1.3-4.1-3.7-7.3-7.2-9.7c-11.3-7.6-25.9-2.9-30.5,9.9c-1.8,5-3.5,6.2-8.9,6.2c-1.7,0-3.5,0-5.2,0c-4.9,0-9.8,0-14.8,0
		C-203,35.6-203,45.9-203,56.4z"/>
</g>
<g>
	<path class="st0" d="M508,281c-1.8-0.1-3.7,0-5.5-0.3c-8.6-1.6-16,1.2-22.8,6.3c-6.3,4.7-13.4,7.7-21.2,8.5
		c-7.9,0.8-14.9-2.2-21.6-5.9c-1.2-0.7-2.5-1.4-3.5-2.3c-7.6-6.5-16.3-8-26.1-7.1c-19.8,2-31.6-5.2-39.6-22.3
		c-4.4-9.3-10.6-15.5-19.9-19.8c-16.7-7.8-24.1-20-22.2-39.4c0.9-9.4-0.8-17.8-6.8-25.3c-4.2-5.3-6.7-11.4-8-18
		c-2-10.2,1.1-19.4,6.9-27.3c6.6-9,8.7-18.3,7.7-29.3c-1.4-15.6,5.1-27.8,19.1-35.6c1.6-0.9,3.2-1.8,5-2.5
		c8.3-3.3,13.9-9.2,17.5-17.4c1.8-4,4.2-7.8,6.9-11.3c8.2-10.8,19.7-13.8,32.5-12.6c9.9,1,18.7-0.7,26.6-6.9
		c6.3-4.9,13.7-7.7,21.6-8.3c7.8-0.6,14.9,2.2,21.6,6.1c1.5,0.9,3,1.8,4.3,2.9c7.3,5.7,15.5,7.1,24.5,6.3
		c19.5-1.7,31.2,4.9,39.1,21.5c4.7,9.7,11.1,16.5,21,20.9c16.8,7.5,23.9,21.2,21.9,41.3c-0.9,8.8,1.4,16.1,6.4,23.1
		c2.7,3.7,4.7,8,6.5,12.3c4.5,11.2,2.1,22-4.6,31.1c-7.2,9.8-9.6,19.8-8.4,31.9c1.6,15.8-5.6,28.4-20.1,35.1
		c-11,5.1-18.3,12.4-23.4,23.4C536.3,274.7,524,281.5,508,281z M362,149.8c-0.1,51.6,41.9,93.8,93.4,93.9
		c52.2,0.1,94.4-41.7,94.4-93.9c0-51.5-42.1-93.6-93.7-93.6C404.2,56.3,362.1,98.1,362,149.8z"/>
	<path class="st0" d="M456.2,87.5c4.4,0.2,7.5,2.5,9.4,6.4c3.8,7.6,7.5,15.1,11.2,22.7c0.9,1.8,1.8,2.8,4,3.1
		c8.8,1.1,17.6,2.4,26.4,3.7c3.9,0.6,6.5,2.9,7.9,6.5c1.5,3.9,0.8,7.6-2.1,10.6c-5.4,5.5-10.8,11.1-16.6,16.1
		c-3.8,3.2-4.7,6.4-3.5,11.2c1.7,7,2.5,14.3,3.8,21.4c0.8,4.4-0.4,8-3.9,10.7c-3.6,2.8-7.6,2.9-11.6,0.8c-7.5-3.9-15-7.8-22.4-11.9
		c-1.9-1-3.4-1.2-5.4-0.1c-7.3,4-14.8,7.8-22.1,11.7c-4,2.1-7.9,2.5-11.7-0.2c-3.9-2.7-5-6.6-4.1-11.2c1.5-8.3,2.7-16.7,4.3-25
		c0.4-2.1-0.1-3.4-1.6-4.8c-6-5.7-11.8-11.5-17.8-17.2c-3.4-3.3-5.1-7.1-3.5-11.7c1.5-4.6,5.1-6.6,9.9-7.2
		c8.3-1.1,16.6-2.3,24.8-3.7c1.2-0.2,2.7-1.3,3.3-2.4c4-7.7,7.7-15.5,11.6-23.3C448.3,89.8,451.5,87.6,456.2,87.5z"/>
</g>
<g>
	<path class="st0" d="M292.3,150.1c-0.1,78.9-63.8,142.6-142.4,142.5C71.1,292.5,7.6,228.7,7.7,149.9C7.8,71,71.5,7.3,150.1,7.4
		C228.9,7.5,292.5,71.3,292.3,150.1z M149.8,264.2c62.6,0.2,114-51.2,114.1-114.1c0.1-62.7-50.6-113.7-113.6-114.3
		C87.9,35.3,36.4,86.6,36,149.8C35.7,212.5,86.9,263.9,149.8,264.2z"/>
	<path class="st0" d="M217.9,170c-9.1-15.5-22.4-22.9-40.2-19.1c-14.7,3.2-23.9,13-26.9,27.8c-3.3,16,3.3,28.9,19.1,39.1
		c-16.8,7.2-51.2,4.8-73.7-21.2c-23.4-27.1-23-68,1-94.4c24.5-27,64.6-31.4,94.1-10.4C221.3,113.3,225.7,149.9,217.9,170z"/>
</g>
</svg>
