<?xml version="1.0" encoding="utf-8"?>
<!-- Generator: Adobe Illustrator 27.2.0, SVG Export Plug-In . SVG Version: 6.00 Build 0)  -->
<svg version="1.0" id="Capa_1" xmlns="http://www.w3.org/2000/svg" xmlns:xlink="http://www.w3.org/1999/xlink" x="0px" y="0px"
	 viewBox="0 0 300 300" style="enable-background:new 0 0 300 300;" xml:space="preserve">
<style type="text/css">
	.st0{fill:#00B89D;}
</style>
<g>
	<g>
		<path class="st0" d="M184,250.9c-7.9,4.8-15.8,9.4-23.5,14.1c-9.8,5.9-19.3,5.6-29.1-0.2c-32.5-19.2-63-40.9-88.6-68.9
			c-16.5-18-30.3-37.7-36.7-61.6c-8.5-31.7-2.5-60,22.3-82.5c35.1-31.9,91.4-23.3,116.1,17.2c0.5,0.8,1,1.6,1.6,2.5
			c2.9-3.9,5.4-7.8,8.3-11.3c19.7-23.9,51.7-33.3,81.9-24.2c28.2,8.5,49.5,34.6,52.7,64.6c1.9,18.2-1.8,35.4-9.4,51.8
			c-1,2.3-0.9,3.6,0.8,5.6c17.5,20.5,22.2,43.8,12.6,68.9c-9.6,25-28.7,39.3-55.2,42.5c-19.3,2.4-36.5-3.3-51.3-16.1
			C185.8,252.4,184.9,251.6,184,250.9z M262.8,143.1c0.2-0.4,0.6-0.9,0.8-1.4c3.5-8.1,5.5-16.6,6.6-25.3
			c4.7-39.9-33.3-72.8-72.1-62.1c-24.9,6.9-41.6,28.3-42.6,54.8c-0.2,6-4,10.2-9.3,10.3c-5.3,0.1-9.2-3.9-9.8-9.9
			c-0.3-3.5-0.5-7-1.1-10.4c-4.6-26.1-27.9-46.2-54.2-46.8c-28-0.7-52.2,17.6-58.1,44.2c-4.5,20,1.1,38.2,10.6,55.6
			c0.5,0.9,2.3,1.6,3.5,1.6c16.3,0.1,32.6,0.1,48.9,0.1c5.8,0,8.1-1.9,9.7-7.6c2.4-8.2,4.7-16.4,7.1-24.5c1.5-5.2,6.1-8.6,10.8-8.5
			c5.1,0.1,8.6,3.3,10,9.1c3.2,13.1,6.3,26.1,9.5,39.2c1,4.2,2.1,8.5,3.2,12.7c1-1.2,1.4-2.3,1.8-3.4c3.3-10.8,6.7-21.5,10-32.3
			c1.7-5.6,4.6-8,9.6-8.2c5.3-0.2,8.3,1.9,10.5,7.5c2.1,5.1,4.1,10.2,6.2,15.3c1.1,2.6,2.1,5.2,3.2,7.8
			C202.1,134.6,230.2,128.5,262.8,143.1z M44.3,168.6c1.2,1.6,1.8,2.5,2.6,3.4c26.5,32.4,59.6,56.5,95.3,77.3
			c2.6,1.5,5.3,1.2,7.8-0.4c6.8-4.1,13.5-8.2,20.3-12.3c0.7-0.4,1.2-1,1.9-1.6c-0.4-0.9-0.7-1.7-1.1-2.5c-7-14.2-9.8-29.4-5.2-44.4
			c3.2-10.2,1.4-18.5-2.8-27.3c-0.9-1.8-1.5-3.8-2.3-5.7c-0.3-0.8-0.8-1.5-1.5-2.7c-4.1,13.1-8,25.6-11.9,38
			c-0.5,1.7-1.1,3.4-2.1,4.9c-2.3,3.8-5.8,5.7-10.3,5c-4.6-0.7-7.6-3.2-8.6-7.9c-0.4-1.8-0.9-3.5-1.3-5.2
			c-3.9-15.7-7.8-31.3-11.7-47c-1.7,3.5-2.8,7.2-3.9,10.8c-3.5,11.4-11.5,17.4-23.4,17.4C72.4,168.6,58.7,168.6,44.3,168.6z
			 M238.7,193c0-7-0.5-10.6,0.1-16.2c0.8-7.6-2.1-13.1-8-13.6c-5.6-0.4-9.3,4.3-9.3,12.1c0,5.8,0,11.5,0,17.6c-6.2,0-11.7,0-17.2,0
			c-1.6,0-3.3,0-4.9,0.3c-4.6,0.8-7.9,4.8-7.6,9.1c0.3,4.4,4.2,8.1,9.1,8.2c6.8,0.2,13.6,0,20.7,0c0,5.6,0,10.7,0,15.7
			c0,1.8-0.2,3.6-0.1,5.4c0.5,5.2,4.3,8.8,9,8.6c4.5-0.2,8.2-3.9,8.3-8.9c0.2-6.8,0-13.6,0-20.8c7.3,0,13.9,0,20.6,0
			c3.7,0,6.7-1.2,8.3-4.9c1.4-3.3,1.1-6.4-1.2-9.2c-2.5-3.1-6-3.7-9.7-3.3C251,193.8,245.1,192.4,238.7,193z"/>
	</g>
</g>
</svg>
