<?xml version="1.0" encoding="utf-8"?>
<!-- Generator: Adobe Illustrator 30.4.0, SVG Export Plug-In . SVG Version: 9.03 Build 0)  -->
<svg version="1.0" id="Capa_1" xmlns="http://www.w3.org/2000/svg" xmlns:xlink="http://www.w3.org/1999/xlink" x="0px" y="0px"
	 viewBox="0 0 300 300" style="enable-background:new 0 0 300 300;" xml:space="preserve">
<style type="text/css">
	.st0{fill:#FFFFFF;}
</style>
<g>
	<path class="st0" d="M-386.2,106.5h80.16c9.85,0,17.84-7.99,17.84-17.84V19.84c0-9.85,7.99-17.84,17.84-17.84h51.93
		c9.85,0,17.84,7.99,17.84,17.84v68.73c0,9.85,7.99,17.84,17.84,17.84h68.73c9.85,0,17.84,7.99,17.84,17.84v51.93
		c0,9.85-7.99,17.84-17.84,17.84h-68.73c-9.85,0-17.84,7.99-17.84,17.84v68.13c0,9.85-7.99,17.84-17.84,17.84h-51.93
		c-9.85,0-17.84-7.99-17.84-17.84v-68.13c0-9.85-7.99-17.84-17.84-17.84h-68.12c-9.85-0.02-17.84-8.01-17.84-17.86V112.2
		C-392,109.1-389.4,106.5-386.2,106.5z"/>
</g>
<g>
	<path class="st0" d="M7.9,109.31l95.19,0c3.01,0,5.45-2.44,5.45-5.44V7.9c0-3.2,2.44-5.8,5.45-5.8h71.45c3.01,0,5.45,2.6,5.45,5.8
		v95.88c0,3,2.44,5.44,5.45,5.44l95.75,0c3.2,0,5.8,2.44,5.8,5.44v71.26c0,3-2.6,5.44-5.8,5.44l-95.75,0
		c-3.01,0-5.45,2.44-5.45,5.44v95.31c0,3.2-2.44,5.8-5.45,5.8h-71.45c-3.01,0-5.45-2.6-5.45-5.8v-95.31c0-3-2.44-5.44-5.45-5.44
		l-95.19,0c-3.2,0-5.8-2.44-5.8-5.44v-71.26C2.1,111.75,4.7,109.31,7.9,109.31z"/>
</g>
</svg>
