<?xml version="1.0" encoding="UTF-8"?>
<svg id="Capa_1" xmlns="http://www.w3.org/2000/svg" version="1.1" viewBox="0 0 300 300">
  <!-- Generator: Adobe Illustrator 30.4.0, SVG Export Plug-In . SVG Version: 2.1.4 Build 226)  -->
  <defs>
    <style>
      .st0 {
        fill: #ca8400;
      }
    </style>
  </defs>
  <path class="st0" d="M162.02,2.98c36.33,5.96,63.05,36.65,63.01,73.43l-.08,70.96c0,8.89-3.46,16.83-9.38,23.66,5.51,7.04,8.86,14.9,10.9,23.51l3.1,13.05c.54,2.54-1.39,4.62-3.5,4.93-2.38.36-4.43-.96-5.04-3.34l-4.1-16.27c-3.58-14.2-14.11-25.55-28.05-31.27,3.61,5.09,6.53,10.15,8.6,15.92l5.55,15.44c.33.93.06,3.17-.52,3.98s-2.32,1.67-3.32,1.68l-6.34.12,2.58,15.54,16.4.02c2.42,0,4.39,2.01,4.38,4.41l-.04,13.39c0,2.16-2.19,4.02-4.25,4.02h-12.86s1.72,9.21,1.72,9.21c2.67,11.08,10.72,19.3,21.52,23.14,6.87-4.47,10.25-12.36,8.3-20.31l-5.59-22.79c-.63-2.57,1.36-4.89,3.61-5.21,2.35-.34,4.44,1.18,5.03,3.57l5.46,22.35c2.8,11.46-1.98,23.53-12.26,29.69-24.88,14.91-56.39,24.04-85.39,21.86-24.54-1.85-44.82-8.88-66.21-20.52-11.07-6.03-17.52-18.02-14.45-30.54l13.32-54.28c2.01-8.18,5.61-15.29,10.89-22-5.79-6.9-8.79-14.86-8.79-23.78l-.02-70.37c0-14.77,4.11-28.48,12.19-40.73,1.4-2.12,3.96-2.61,5.98-1.5,1.68.92,2.93,3.66,1.65,5.65-6.72,10.49-10.99,22.11-11,34.86l-.06,72.08c.06,6.52,2.06,12.37,6.18,17.44,7.99-7.37,17.63-11.79,28.76-13.93-17.56-10.69-28.51-28.81-28.53-49.05l-.02-15.64c0-2.65,2.4-4.24,4.86-4.12,8.54.39,16.71-.36,24.7-3.24,10.52-3.79,19.41-10.78,24.67-20.55,1.08-2.01,2.36-3.48,4.62-3.37,2.14.1,3.32,1.64,4.4,3.62,5.58,10.32,15.33,17.48,26.6,20.99,7.38,2.3,14.69,2.89,22.47,2.55,2.3-.1,4.9,1.29,4.91,3.9l.04,15.21c.05,20.46-10.84,38.97-28.62,49.69,11.46,2.16,21.25,6.77,29.53,14.57,4.16-5.08,6.5-10.9,6.63-17.5l-.11-73.26c-.03-17.04-7.35-32.7-19.55-44.35-24.97-23.81-64.54-25.28-90.4-1.4-1.9,1.75-4.47,1.88-6.29.27-1.62-1.44-2.05-4.39-.22-6.12,11.13-10.56,24.99-16.8,39.93-19.37l22.45.06ZM199.89,100.58l.04-10.52c-20.02.02-38.13-7.19-49.88-23.03-12.04,16.11-29.95,23.01-49.85,23.05l-.03,10.35c-.09,27.42,22.79,49.27,50.08,49.15,26.9-.11,49.52-21.65,49.64-48.99ZM155.42,190.04c5.37-10.43,8.72-20.99,8.02-32.33-9.64,1.92-17.93,1.54-27.04.1-.12,11.81,2.97,22.18,8.3,32.43,2.09,3.49,8.64,3.83,10.71-.2ZM132.36,194.58l.1,6.79c1.36.29,4.04-.11,4.38-1.19.57-1.8.73-4.81-.09-6.36-5.81-10.98-9.06-22.42-9.17-34.81-7.61,4.63-12.29,11.13-15.69,18.64l-4.44,12.38,20.33.02c2.69,0,4.54,1.92,4.58,4.53ZM167.74,194.31c.06-2.58,2.13-4.25,4.45-4.26l20.4-.03-4.69-12.77c-2.78-7.57-8.1-13.73-15.41-18.26-.29,11.35-2.62,22.05-7.9,32.1-1.41,2.68-2.25,5.87-1.23,8.85.33.97,3.16,1.44,4.23.98l.15-6.62ZM107.21,198.77l-6.29-.11c-2.93-.05-4.87-3.02-3.86-5.7l5.5-15.32c2.11-5.88,4.93-11.03,8.82-16.07-13.98,5.66-24.78,17.26-28.4,31.92l-13.62,55.2c-1.96,7.95,1.93,15.76,8.65,19.93l7.03-3.76c8.18-4.99,13.34-12.91,14.9-22.31l7.27-43.78ZM179.61,217.65c.05-2.99,4.13-3.81,6.94-3.2l-2.6-15.76-7.44.07-.12,16.01c-.06,7.68-6.61,13.26-14.09,13.26h-24.61c-7.83,0-14.1-5.99-14.1-13.83v-15.5s-7.48.03-7.48.03l-7.57,45.43c-2.11,12.64-9.54,22.84-21.01,29.54,41.53,20.63,83.88,20.58,125.12-.1-10.08-5.33-16.99-14.07-20.01-24.82l-2.42-12.56-7.04-.12c-1.87-.03-3.84-2.17-3.81-4.07l.23-14.37ZM145.98,219.37l8.27-.11-.06-18.09-8.2.23v17.97ZM132.76,216.16c.13,1.61,2.75,3,4.39,3.19l.06-9.55-4.93.46.48,5.9ZM167.52,215.41l.17-5.55-4.72-.24.06,9.65c1.89-.13,4.43-1.81,4.49-3.87ZM207.44,223.04h-19.3v4.43h19.3v-4.43Z"/>
  <path class="st0" d="M171.56,257.5c-9.9,10.24-33.93,10.01-43.35-.36-3.89-4.29-3.77-10.47.19-14.71,9.42-10.09,33.64-10.21,43.23-.04,4.13,4.38,4.09,10.8-.07,15.11ZM165.9,249.74c-.14-.76-1.1-2.17-1.98-2.68-13.55-7.74-30.57-1.02-29.75,3.14.15.74,1.18,2.16,2.03,2.63,13.68,7.64,30.45.99,29.71-3.09Z"/>
  <path class="st0" d="M160.87,128.57c7.36-5.25,2.66-12.92,9.3-13.05,2.6-.05,4.57,2.17,4.41,5.24-.34,6.25-4.08,11.82-9.52,15.47-8.43,5.65-19.86,5.91-28.67.86-6.16-3.53-10.53-9.49-10.9-16.31-.15-2.84,1.54-5,3.84-5.24s4.74,1.27,4.9,3.99c.21,3.64,1.82,6.83,4.93,9.03,6.4,4.52,15.29,4.6,21.72.01Z"/>
  <path class="st0" d="M134.94,103.13c-6.64,2.32-4.59-7.41-11.66-3.72-.91,2.63-2.89,4.71-5.71,3.95-2.65-.71-3.95-3.39-3.01-6.34,1.5-4.7,6.45-7.1,11.49-7.08s9.86,2.51,11.33,7.27c.78,2.52-.41,5.2-2.45,5.91Z"/>
  <path class="st0" d="M176.87,99.66c-.5-1.35-4.75-1.44-5.37-.14-1.13,2.4-2.31,4.04-4.89,3.96-2.34-.07-4.33-2.02-4.15-4.77s1.98-5.42,4.53-6.9c4.19-2.43,9.28-2.48,13.59-.34,2.86,1.42,4.96,3.95,5.19,7.2.17,2.37-1.45,4.32-3.39,4.68-2.62.48-4.38-.63-5.52-3.7Z"/>
</svg>