<?xml version="1.0" encoding="utf-8"?>
<!-- Generator: Adobe Illustrator 27.2.0, SVG Export Plug-In . SVG Version: 6.00 Build 0)  -->
<svg version="1.1" id="Capa_1" xmlns="http://www.w3.org/2000/svg" xmlns:xlink="http://www.w3.org/1999/xlink" x="0px" y="0px"
	 viewBox="0 0 600 200" style="enable-background:new 0 0 600 200;" xml:space="preserve">
<style type="text/css">
	.st0{fill:#13A538;}
	.st1{fill:#F7931E;}
	.st2{fill:#FF931E;}
</style>
<g>
	<g>
		<g>
			<path class="st0" d="M268.8,85c1.7,0.1,3.3,0.7,4.7,1.5c1.4,0.9,2.4,2.2,2.9,3.9c0.4,1.5,0.5,3,0.2,4.4c-0.3,1.5-1,2.8-2.2,3.8
				c-2.1,1.8-4.4,2.5-7.1,2.1c-1.2-0.2-2.3-0.7-3.1-1.5c-0.8-0.8-1.2-1.9-1.3-3.2c0-0.8,0.4-1.3,0.9-1.6c0.6-0.3,1.2-0.3,1.8,0
				c0.6,0.3,0.9,0.8,1,1.6c0,0,0,0.1,0,0.1c0,0.1,0,0.1,0,0.1c0,0,0,0,0,0c0,0,0,0.1,0,0.1c0,0,0,0,0,0c0,0,0.1,0.1,0.1,0.1
				c0,0.1,0.1,0.1,0.1,0.2c0,0,0,0,0,0c0,0,0.1,0.1,0.1,0.1c0.1,0,0.1,0.1,0.2,0.1c0,0,0.1,0,0.1,0c0.2,0.1,0.4,0.1,0.6,0.2
				c0.1,0,0.2,0,0.3,0c0.2,0,0.5,0,0.7,0c0,0,0.1,0,0.1,0c0.1,0,0.3-0.1,0.4-0.1c0.2-0.1,0.5-0.1,0.7-0.2c0.1,0,0.1,0,0.2-0.1
				c0,0,0.1,0,0.1,0c0,0,0.1,0,0.1,0c0.2-0.1,0.5-0.2,0.7-0.4c0.1,0,0.1-0.1,0.2-0.2c0,0,0.1,0,0.1-0.1c0,0,0,0,0.1,0
				c0.2-0.2,0.4-0.4,0.5-0.6c0,0,0,0,0.1-0.1c0,0,0.1-0.1,0.1-0.1l0,0c0-0.1,0.1-0.1,0.1-0.2c0,0,0,0,0.1-0.1c0-0.1,0.1-0.1,0.1-0.2
				c0-0.1,0.1-0.1,0.1-0.2c0-0.1,0-0.1,0.1-0.1s0,0,0,0c0.1-0.3,0.2-0.6,0.2-0.9c0,0,0,0,0-0.1c0,0,0-0.1,0-0.1c0,0,0-0.1,0-0.1
				c0-0.1,0-0.2,0-0.3c0-0.3,0-0.7,0-1c0-0.1,0-0.1,0-0.1c0,0,0-0.1,0-0.1c0,0,0,0,0-0.1c0-0.2-0.1-0.3-0.1-0.5
				c0-0.1-0.1-0.2-0.1-0.3c0,0,0,0,0-0.1c0,0,0-0.1,0-0.1c0,0,0-0.1,0-0.1c0,0,0,0,0,0c-0.1-0.1-0.2-0.3-0.2-0.4
				c0-0.1-0.1-0.1-0.1-0.1v0h0c-0.2-0.2-0.4-0.4-0.5-0.6c0,0,0,0-0.1,0c0,0-0.1,0-0.1-0.1c0,0-0.1,0-0.1-0.1
				c-0.1-0.1-0.3-0.2-0.4-0.2c-0.1-0.1-0.2-0.1-0.3-0.2h0c0,0,0,0,0,0c-0.2-0.1-0.3-0.1-0.5-0.2c-0.3-0.1-0.6-0.2-1-0.2
				c0,0,0,0-0.1,0c0,0-0.1,0-0.1,0c-0.1,0-0.1,0-0.2,0c-0.2,0-0.4,0-0.6,0c-0.3,0-0.6,0-0.9,0c-0.2,0-0.4,0-0.6,0
				c-0.1,0-0.2,0-0.3,0c-0.4,0.1-0.8,0.2-1.2,0.3c-0.2,0.1-0.5,0.2-0.7,0.3c0,0-0.1,0-0.1,0c0,0-0.1,0-0.1,0c-0.1,0-0.1,0-0.1,0
				c-0.4,0.2-0.8,0.4-1.2,0.6c-0.4,0.3-0.9,0.5-1.3,0.8c-0.2,0.1-0.4,0.3-0.6,0.4v0h0c-0.1,0.1-0.2,0.2-0.3,0.2
				c-0.8,0.7-1.6,1.4-2.4,2.2c-0.4,0.4-0.8,0.9-1.2,1.3c-0.2,0.2-0.4,0.4-0.5,0.6l0,0c-0.1,0.1-0.2,0.2-0.2,0.3c0,0,0,0,0,0.1
				c-1.5,1.9-2.7,4-3.8,6.1c-0.3,0.6-0.6,1.1-0.9,1.7c-0.1,0.3-0.3,0.5-0.4,0.8c0,0,0,0.1,0,0.1c0,0,0,0.1-0.1,0.2
				c0,0.1-0.1,0.2-0.1,0.2c0,0.1-0.1,0.1-0.1,0.1c-0.5,1.1-0.9,2.2-1.2,3.3c-0.4,1.1-0.7,2.2-0.9,3.3c-0.1,0.6-0.2,1.1-0.4,1.7
				c-0.1,0.2-0.1,0.5-0.1,0.8c0,0.1,0,0.2,0,0.3c0,0,0,0.1,0,0.1c-0.1,1-0.2,2-0.2,3c0,0.5,0,1,0.1,1.5c0,0,0,0.1,0,0.1
				c0,0.1,0,0.1,0,0.2c0,0.1,0,0.2,0,0.2c0,0.1,0,0.2,0.1,0.4c0.1,0.4,0.2,0.9,0.3,1.3c0.1,0.2,0.1,0.4,0.2,0.5c0,0,0,0.1,0,0.1
				c0,0,0,0,0,0c0.2,0.4,0.4,0.7,0.6,1c0,0,0,0.1,0.1,0.1c0,0,0.1,0.1,0.1,0.1c0,0.1,0.1,0.1,0.1,0.1c0.1,0.1,0.1,0.1,0.2,0.2
				c0.1,0.1,0.3,0.3,0.4,0.4c0,0,0.1,0.1,0.2,0.1c0.3,0.2,0.6,0.4,0.9,0.5c0,0,0,0,0.1,0s0.1,0,0.1,0c0,0,0,0,0,0c0,0,0,0,0,0
				c0.2,0.1,0.4,0.1,0.6,0.2c0.2,0.1,0.4,0.1,0.6,0.1c0.1,0,0.2,0,0.3,0c0.5,0.1,1.1,0.1,1.6,0c0.2,0,0.3,0,0.5,0c0,0,0.1,0,0.1,0
				c0,0,0.1,0,0.1,0c0,0,0.1,0,0.1,0c0.3,0,0.5-0.1,0.8-0.2c0.7-0.1,1.3-0.3,1.9-0.6c0,0,0.1,0,0.1-0.1c0,0,0.1,0,0.1,0
				c0,0,0,0,0.1,0c0.1-0.1,0.3-0.1,0.4-0.2c0.3-0.1,0.6-0.3,0.9-0.5c0.6-0.3,1.2-0.7,1.7-1.2c0,0,0.1-0.1,0.1-0.1c0,0,0,0,0.1,0
				c0.1-0.1,0.2-0.2,0.4-0.3c0.2-0.2,0.5-0.4,0.7-0.6c1-0.9,1.9-1.9,2.8-2.9c0.2-0.2,0.4-0.5,0.6-0.7c0,0,0.1-0.1,0.1-0.1
				c0,0,0-0.1,0-0.1c0,0,0,0,0,0c0.1-0.1,0.2-0.2,0.3-0.3c0.3-0.5,0.7-0.9,1-1.4c0.6-0.8,1.1-1.7,1.6-2.6c0.5-0.8,0.9-1.7,1.3-2.6
				c0.2-0.5,0.6-0.8,1.1-0.9c0.5-0.1,1,0,1.4,0.2c0.5,0.3,0.7,0.7,0.8,1.1c0.1,0.5,0,0.9-0.2,1.4c-0.7,1.4-1.4,2.8-2.2,4.1
				c-1.4,2.3-3,4.4-4.9,6.4c-1.9,2-4,3.6-6.5,4.6c-2.1,0.9-4.3,1.4-6.7,1.3c-2.4-0.1-4.4-1-6.1-2.7c-1.3-1.5-2.1-3.2-2.5-5.2
				c-0.4-1.9-0.4-3.9-0.2-5.8c0.6-4.9,2-9.5,4.2-13.9c2.1-4.4,4.8-8.3,8.3-11.7c1.6-1.5,3.4-2.7,5.3-3.7
				C264.5,85.2,266.6,84.9,268.8,85z"/>
			<path class="st0" d="M279.5,123.4c-1.4,0-2.5-0.5-3.3-1.6c-0.8-1.2-1.1-3-0.6-5.2c0.1-0.7,0.3-1.3,0.4-1.8
				c0.2-0.5,0.3-0.8,0.3-0.9l10-28.6c0.2-0.5,0.5-0.9,1-1.1c0.5-0.2,1-0.3,1.5-0.1c0.5,0.2,0.9,0.5,1.1,1c0.2,0.5,0.3,1,0.1,1.5
				l-10,28.6c0,0,0,0,0,0c-0.3,0.8-0.5,1.7-0.6,2.5c-0.1,0.8-0.1,1.4,0,1.8c0,0,0.1,0,0.1,0c0.6,0,1.2-0.4,2-1.2
				c0.8-0.8,1.6-1.8,2.5-3c0.9-1.2,1.8-2.5,2.8-3.8c0.6-0.9,1.3-1.8,2-2.8c0.4-0.5,0.8-0.7,1.3-0.8c0.5-0.1,1,0,1.5,0.3
				c0.5,0.3,0.7,0.8,0.8,1.3c0.1,0.5,0,1-0.3,1.5c-0.7,1-1.3,1.9-2,2.8c-1.3,1.9-2.5,3.6-3.7,5.1c-1.1,1.5-2.3,2.6-3.4,3.4
				C282,123,280.8,123.4,279.5,123.4z"/>
			<path class="st0" d="M287.9,121.3c-1.4-2.2-1.2-6.1,0.7-11.9c0.7-2,1.3-3.7,1.9-5.1c0.6-1.4,0.9-2.2,1-2.3c0.3-0.5,0.6-0.8,1.1-1
				c0.5-0.2,1-0.2,1.5,0.1c0.5,0.2,0.9,0.6,1,1.1c0.2,0.5,0.1,1-0.1,1.5c0,0.1-0.4,0.8-0.9,2.1c-0.6,1.3-1.2,3-1.8,4.8
				c-0.7,2.1-1.1,3.8-1.3,5c-0.2,1.2-0.2,2.1-0.1,2.6c0.1,0.5,0.2,0.8,0.3,0.9c0,0,0,0.1,0.1,0.1c0,0,0.1,0.1,0.2,0.1
				c0.1,0,0.2,0,0.3,0c1.2,0,2.4-0.6,3.4-1.8c1.1-1.2,2.1-2.8,3-4.7c0.9-1.9,1.9-3.9,2.8-5.9c0.7-1.6,1.4-3.2,2.2-4.9v0c0,0,0,0,0,0
				c0,0,0,0,0,0c0,0,0-0.1,0.1-0.1c0,0,0,0,0,0l0,0c0,0,0-0.1,0.1-0.1c0,0,0,0,0,0v0c0,0,0,0,0,0c0,0,0,0,0,0c0,0,0.1-0.1,0.1-0.1
				l0,0l0,0c0,0,0,0,0,0c0,0,0,0,0.1,0c0,0,0,0,0,0l0,0c0,0,0,0,0,0c0,0,0,0,0.1-0.1h0l0,0c0,0,0,0,0,0c0,0,0.1,0,0.1,0l0,0
				c0,0,0.1,0,0.1,0c0,0,0,0,0.1,0h0h0c0,0,0,0,0.1,0c0,0,0,0,0.1,0c0,0,0,0,0,0h0c0,0,0.1,0,0.1,0c0,0,0.1,0,0.1,0h0h0
				c0,0,0.1,0,0.1,0c0,0,0,0,0.1,0h0h0c0,0,0.1,0,0.1,0c0,0,0,0,0.1,0h0h0c0,0,0.1,0,0.1,0c0,0,0,0,0.1,0h0c0,0,0,0,0,0c0,0,0,0,0,0
				c0,0,0.1,0,0.1,0h0h0c0,0,0,0,0,0c0,0,0.1,0,0.1,0h0l0,0c0,0,0,0,0,0c0,0,0.1,0,0.1,0c0,0,0,0,0,0l0,0c0,0,0,0,0.1,0c0,0,0,0,0,0
				l0,0h0c0,0,0.1,0,0.1,0c0,0,0,0,0,0h0c0,0,0,0,0,0c0,0,0.1,0,0.1,0.1c0,0,0,0,0,0c0,0,0,0,0,0l0,0c0,0,0,0,0,0c0,0,0.1,0,0.1,0.1
				l0,0h0c0,0,0,0,0,0.1c0,0,0,0,0,0.1h0c0,0,0,0,0,0c0,0,0,0,0,0c0,0,0,0.1,0.1,0.1c0,0,0,0,0,0c0,0,0,0.1,0,0.1c0,0,0,0,0,0.1v0
				c0,0,0,0,0,0c0,0,0,0,0,0.1c0,0,0,0,0,0.1v0c0,0,0,0.1,0,0.1c0,0,0,0,0,0l0,0v0c0,0,0,0.1,0,0.1c0,0,0,0,0,0.1v0v0
				c0,0,0,0.1,0,0.1c0,0,0,0,0,0v0v0c0,0,0,0.1,0,0.1c0,0,0,0.1,0,0.1s0,0,0,0v0c0,0,0,0.1,0,0.1c0,0,0,0.1,0,0.1c0,0,0,0,0,0v0
				c0,0,0,0.1,0,0.1c0,0,0,0.1,0,0.1v0v0c0,0,0,0,0,0c0,0,0,0.1,0,0.1v0l0,0c0,0,0,0,0,0l-4,11.5v0c-0.3,0.8-0.5,1.7-0.6,2.5
				s-0.1,1.4,0,1.8c0,0,0,0,0.1,0c0.6,0,1.2-0.4,2-1.2c0.8-0.8,1.6-1.8,2.5-3c0.9-1.2,1.8-2.5,2.8-3.8c0.6-0.9,1.3-1.8,2-2.8
				c0.3-0.5,0.8-0.7,1.3-0.8c0.5-0.1,1,0,1.5,0.3c0.5,0.3,0.7,0.8,0.8,1.3c0.1,0.5,0,1-0.3,1.5c-0.7,1-1.3,1.9-2,2.8
				c-1.3,1.9-2.5,3.6-3.7,5.1c-1.1,1.5-2.3,2.6-3.4,3.4c-1.1,0.8-2.3,1.3-3.5,1.3c-1.4,0-2.5-0.5-3.3-1.6c-0.3-0.5-0.6-1-0.7-1.7
				c-2,2.2-4.1,3.3-6.5,3.3C290.2,123.4,288.9,122.7,287.9,121.3z"/>
			<path class="st0" d="M308.7,123.2c-0.5-0.2-0.9-0.5-1.1-1c-0.2-0.5-0.3-1-0.1-1.5l12.4-35.5c0.2-0.5,0.5-0.9,1-1.1
				c0.5-0.2,1-0.3,1.5-0.1c0.5,0.2,0.9,0.5,1.1,1c0.2,0.5,0.3,1,0.1,1.5l-5.3,15c1-0.4,2-0.7,3-0.7c1.9,0,3.4,0.8,4.5,2.5
				c0.8,1.3,1.2,2.9,1.2,4.8c0,2.8-0.8,5.7-2.3,8.7c1.4-0.7,2.6-1.7,3.8-3c1.2-1.3,2.4-3,3.9-5.1l0.3-0.4c0.3-0.5,0.8-0.7,1.3-0.8
				c0.5-0.1,1,0,1.5,0.3c0.5,0.3,0.7,0.8,0.8,1.3c0.1,0.5,0,1-0.3,1.5l-0.3,0.4c-1.1,1.6-2.2,3-3.2,4.3c-1,1.3-2.1,2.4-3.2,3.3
				c-2.3,1.9-5.2,2.9-8.6,3c-1.4,1-2.9,1.5-4.5,1.5c-1.2,0-2.2-0.2-3-0.6c-0.8-0.4-1.4-0.8-1.8-1.3l-0.2,0.5
				c-0.4,0.9-1.1,1.3-1.9,1.3C309.1,123.4,308.9,123.3,308.7,123.2z M321.4,104.9c-1,0-1.9,0.4-2.7,1.1c-0.8,0.7-1.6,1.6-2.2,2.6
				c-0.6,1-1.1,1.9-1.5,2.7l-0.8,2.2c-0.2,0.9-0.4,1.8-0.4,2.8c-0.1,1,0.1,1.8,0.5,2.4c0,0.1,0.1,0.2,0.2,0.3
				c0.1,0.1,0.3,0.2,0.6,0.3c0.3,0.1,0.6,0.1,1.1,0.1c0.9,0,1.8-0.3,2.5-1c0,0,0.1-0.1,0.1-0.1c0.9-0.8,1.6-1.7,2.1-2.5
				c1.5-2.6,2.2-5.2,2.2-7.6c0-1.2-0.2-2.1-0.6-2.7C322.3,105.1,322,104.9,321.4,104.9z"/>
			<path class="st1" d="M357.8,123.3L344.2,92h7.9l11.8,27.8h-4.6l12-27.8h7.2l-13.6,31.4H357.8z"/>
			<path class="st1" d="M384.8,95.9c-1.3,0-2.4-0.4-3.2-1.1c-0.8-0.7-1.2-1.7-1.2-2.8s0.4-2,1.2-2.8c0.8-0.7,1.9-1.1,3.2-1.1
				c1.3,0,2.3,0.4,3.2,1.1c0.8,0.7,1.2,1.6,1.2,2.7c0,1.2-0.4,2.1-1.2,2.9C387.1,95.5,386.1,95.9,384.8,95.9z M381.3,123.3V99.2h7
				v24.1H381.3z"/>
			<path class="st1" d="M405.1,123.7c-2.3,0-4.3-0.5-6.1-1.5c-1.8-1-3.3-2.5-4.3-4.3c-1-1.9-1.6-4-1.6-6.5s0.5-4.7,1.6-6.5
				c1-1.9,2.5-3.3,4.3-4.3c1.8-1,3.9-1.5,6.1-1.5c2,0,3.8,0.4,5.3,1.3c1.5,0.9,2.7,2.3,3.5,4.1c0.8,1.8,1.3,4.2,1.3,7
				c0,2.8-0.4,5.1-1.2,7c-0.8,1.9-2,3.2-3.5,4.1C409,123.3,407.2,123.7,405.1,123.7z M406.3,118c1.2,0,2.2-0.3,3.1-0.8
				c0.9-0.5,1.7-1.3,2.2-2.3c0.6-1,0.8-2.2,0.8-3.6c0-1.4-0.3-2.6-0.8-3.6c-0.6-1-1.3-1.7-2.2-2.3c-0.9-0.5-2-0.8-3.1-0.8
				c-1.1,0-2.2,0.3-3.1,0.8c-0.9,0.5-1.7,1.3-2.2,2.3c-0.6,1-0.8,2.2-0.8,3.6c0,1.4,0.3,2.6,0.8,3.6c0.6,1,1.3,1.8,2.2,2.3
				C404.1,117.7,405.1,118,406.3,118z M412.6,123.3v-4.9l0.1-7.2l-0.4-7.1v-14h7v33.2H412.6z"/>
			<path class="st1" d="M433.2,123.7c-1.9,0-3.4-0.3-4.8-1c-1.3-0.6-2.4-1.5-3.1-2.6c-0.7-1.1-1.1-2.3-1.1-3.7
				c0-1.4,0.3-2.7,1.1-3.7c0.7-1.1,1.8-1.9,3.3-2.5c1.5-0.6,3.5-0.9,6-0.9h6.4v4h-5.6c-1.6,0-2.8,0.3-3.4,0.8
				c-0.6,0.5-0.9,1.2-0.9,2c0,0.9,0.4,1.6,1.1,2.1c0.7,0.5,1.7,0.8,2.8,0.8c1.2,0,2.3-0.3,3.2-0.8c0.9-0.5,1.6-1.4,2-2.5l1.1,3.3
				c-0.5,1.5-1.4,2.7-2.8,3.5C437,123.3,435.3,123.7,433.2,123.7z M440.5,123.3v-4.7l-0.4-1v-8.4c0-1.5-0.5-2.7-1.4-3.5
				c-0.9-0.8-2.3-1.3-4.2-1.3c-1.3,0-2.5,0.2-3.8,0.6c-1.2,0.4-2.3,0.9-3.2,1.6l-2.5-4.9c1.3-1,2.9-1.7,4.7-2.2
				c1.9-0.5,3.7-0.7,5.6-0.7c3.7,0,6.5,0.9,8.6,2.6c2,1.7,3,4.4,3,8.1v13.8H440.5z"/>
			<path class="st1" d="M466.6,123.3V92h15.3c3.9,0,6.9,0.7,8.9,2.2c2,1.5,3,3.5,3,5.9c0,1.6-0.4,3.1-1.2,4.3
				c-0.8,1.2-1.9,2.1-3.3,2.8c-1.4,0.7-3,1-4.8,1l0.9-1.9c2,0,3.7,0.3,5.2,1c1.5,0.7,2.7,1.6,3.6,2.9c0.9,1.3,1.3,2.8,1.3,4.6
				c0,2.7-1.1,4.8-3.2,6.3c-2.1,1.5-5.2,2.3-9.4,2.3H466.6z M473.8,117.9h8.5c1.8,0,3.3-0.3,4.3-0.9c1-0.6,1.5-1.6,1.5-2.9
				c0-1.3-0.5-2.3-1.5-3c-1-0.6-2.4-0.9-4.3-0.9h-9v-5.3h7.7c1.8,0,3.1-0.3,4.1-0.9c0.9-0.6,1.4-1.5,1.4-2.8c0-1.3-0.5-2.2-1.4-2.8
				c-0.9-0.6-2.3-0.9-4.1-0.9h-7.2V117.9z"/>
			<path class="st1" d="M512.3,123.7c-2.7,0-5.1-0.5-7.2-1.6c-2.1-1.1-3.7-2.5-4.8-4.4c-1.1-1.9-1.7-4-1.7-6.4
				c0-2.4,0.5-4.5,1.6-6.4c1.1-1.9,2.6-3.4,4.6-4.4c2-1.1,4.2-1.6,6.6-1.6c2.4,0,4.5,0.5,6.4,1.5c1.9,1,3.4,2.4,4.5,4.3
				c1.1,1.9,1.7,4.1,1.7,6.7c0,0.3,0,0.6,0,0.9s-0.1,0.7-0.1,1h-19.6v-4.1h15.9l-2.7,1.2c0-1.3-0.2-2.3-0.7-3.3
				c-0.5-0.9-1.2-1.6-2.1-2.2c-0.9-0.5-1.9-0.8-3.1-0.8c-1.2,0-2.2,0.3-3.2,0.8c-0.9,0.5-1.6,1.3-2.1,2.2c-0.5,0.9-0.8,2.1-0.8,3.3
				v1.1c0,1.3,0.3,2.5,0.9,3.5c0.6,1,1.4,1.7,2.5,2.3c1,0.5,2.3,0.8,3.8,0.8c1.3,0,2.4-0.2,3.3-0.6c1-0.4,1.9-1,2.7-1.7l3.7,4
				c-1.1,1.3-2.5,2.2-4.2,2.9C516.4,123.4,514.5,123.7,512.3,123.7z"/>
			<path class="st1" d="M528.6,123.3V90.1h7v33.2H528.6z"/>
			<path class="st1" d="M554.1,123.7c-2.7,0-5.2-0.5-7.2-1.6c-2.1-1.1-3.7-2.5-4.8-4.4c-1.1-1.9-1.7-4-1.7-6.4
				c0-2.4,0.5-4.5,1.6-6.4c1.1-1.9,2.6-3.4,4.6-4.4c2-1.1,4.2-1.6,6.6-1.6c2.4,0,4.5,0.5,6.4,1.5c1.9,1,3.4,2.4,4.5,4.3
				c1.1,1.9,1.7,4.1,1.7,6.7c0,0.3,0,0.6,0,0.9c0,0.3-0.1,0.7-0.1,1H546v-4.1h15.9l-2.7,1.2c0-1.3-0.2-2.3-0.7-3.3
				c-0.5-0.9-1.2-1.6-2.1-2.2c-0.9-0.5-1.9-0.8-3.1-0.8s-2.2,0.3-3.2,0.8c-0.9,0.5-1.6,1.3-2.1,2.2s-0.8,2.1-0.8,3.3v1.1
				c0,1.3,0.3,2.5,0.9,3.5c0.6,1,1.4,1.7,2.5,2.3c1,0.5,2.3,0.8,3.8,0.8c1.3,0,2.4-0.2,3.3-0.6c1-0.4,1.9-1,2.7-1.7l3.7,4
				c-1.1,1.3-2.5,2.2-4.2,2.9C558.2,123.4,556.2,123.7,554.1,123.7z M548.9,96.1l6-6.5h7.5l-8.1,6.5H548.9z"/>
			<path class="st1" d="M585,98.9c1.9,0,3.6,0.4,5.1,1.1c1.5,0.8,2.7,1.9,3.6,3.5c0.9,1.6,1.3,3.6,1.3,6v13.8h-7v-12.7
				c0-1.9-0.4-3.4-1.3-4.3c-0.9-0.9-2.1-1.4-3.6-1.4c-1.1,0-2.1,0.2-3,0.7c-0.9,0.5-1.6,1.2-2.1,2.1c-0.5,0.9-0.7,2.2-0.7,3.7v11.9
				h-7V99.2h6.7v6.7l-1.3-2c0.9-1.6,2.1-2.9,3.7-3.7C581.1,99.3,583,98.9,585,98.9z"/>
		</g>
	</g>
	<path class="st0" d="M153.4,151.5c-16.1,12.7-36.4,20.2-58.4,20.2c-38.4,0-71.3-22.8-86.2-55.7L5,117.3c15.4,34.4,50,58.5,90,58.5
		c22.8,0,43.9-7.8,60.6-20.9L153.4,151.5z"/>
	<g>
		<path class="st2" d="M34.2,62.7V48.7h14.7v14.1H34.2z M46.8,116.9V43.6c0-4.2,0.8-7.8,2.5-11.1c1.6-3.2,4.1-5.8,7.3-7.6
			c3.2-1.9,7.2-2.8,11.9-2.8h13.8v13.9h-8.4c-2.6,0-4.6,0.8-6.2,2.3c-1.5,1.5-2.3,3.8-2.3,6.7v71.8H46.8z M63.3,62.7V48.7h19v14.1
			H63.3z"/>
		<path class="st2" d="M130.9,118.7c-3.7,0-7.1-0.6-10.2-1.7c-3.1-1.1-5.8-2.7-8.1-4.8c-2.3-2.1-4.2-4.5-5.6-7.4l1.7-2.7v14.6H90.2
			V22.2h18.6v41l-1.7-2.7c1.4-2.9,3.3-5.4,5.6-7.4c2.3-2,5-3.6,8.1-4.6c3.1-1.1,6.5-1.6,10.2-1.6c5,0,9.7,1.4,13.9,4.1
			c4.2,2.7,7.6,6.8,10.1,12.1c2.5,5.3,3.8,11.9,3.8,19.6c0,4.7-0.5,8.9-1.4,12.7c-0.9,3.8-2.3,7.2-4,10.1c-1.7,2.9-3.8,5.4-6.1,7.3
			c-2.3,1.9-4.9,3.4-7.7,4.4C136.8,118.2,133.9,118.7,130.9,118.7z M124.2,104.4c1.9,0,3.8-0.3,5.4-1c1.7-0.7,3.2-1.6,4.4-2.9
			c1.3-1.2,2.4-2.7,3.3-4.5c0.9-1.8,1.5-3.8,2-6.1c0.4-2.3,0.7-4.7,0.7-7.3c0-4.3-0.6-8.1-1.9-11.3c-1.2-3.2-3.1-5.7-5.4-7.5
			c-2.4-1.8-5.2-2.7-8.5-2.7c-1.9,0-3.8,0.3-5.4,1c-1.7,0.7-3.2,1.6-4.4,2.9c-1.3,1.2-2.4,2.7-3.2,4.5c-0.9,1.8-1.6,3.8-2.1,6
			c-0.5,2.2-0.7,4.6-0.7,7.3c0,4.3,0.6,8.1,1.9,11.3c1.3,3.2,3.1,5.7,5.5,7.6C118,103.5,120.9,104.4,124.2,104.4z"/>
	</g>
	<path class="st0" d="M95,177.8c37.8,0,70.3-22.6,85.1-55.1c-12,10.2-35,25.9-61.9,24.3c-39.6-2.3-38-21.8-74.1-17.4
		c-8.9,1.1-17,4.9-24.4,10C36.9,162.8,64.2,177.8,95,177.8z"/>
</g>
</svg>
