<?xml version="1.0" encoding="utf-8"?>
<!-- Generator: Adobe Illustrator 30.4.0, SVG Export Plug-In . SVG Version: 9.03 Build 0)  -->
<svg version="1.0" id="Capa_1" xmlns="http://www.w3.org/2000/svg" xmlns:xlink="http://www.w3.org/1999/xlink" x="0px" y="0px"
	 viewBox="0 0 300 300" style="enable-background:new 0 0 300 300;" xml:space="preserve">
<style type="text/css">
	.st0{fill:#EAEDED;}
	.st1{fill:#FFFFFF;}
	.st2{fill:#D5D9D9;}
	.st3{fill:#97E599;}
	.st4{fill:#769696;}
</style>
<g id="Capa_3">
	<rect x="0.57" y="0.26" class="st0" width="299.43" height="301.8"/>
</g>
<path class="st1" d="M133.34,155.27c0,5.83,4.16,10.69,9.67,11.79l-5.08,14.03l39.14,14.35l9.51-28.33l-29.48-9.27
	c0.18-0.83,0.28-1.69,0.28-2.57c0-6.64-5.38-12.02-12.02-12.02C138.72,143.25,133.34,148.63,133.34,155.27z"/>
<polygon class="st1" points="102.33,152.38 69.15,125.35 66.84,116.96 86.86,114.54 93.6,135.6 117.8,136.44 114.45,156.67 "/>
<polygon class="st1" points="115.56,253.61 152.23,268.13 159.37,255.02 131.78,242.97 143.34,217.76 131.05,214.08 "/>
<polygon class="st1" points="183.04,228.11 159.96,221.16 163.96,213.33 188.04,218.36 "/>
<polygon class="st1" points="148.61,302.06 121.93,290.5 126.86,275.96 110.04,268.5 113.54,260.35 159.96,281.74 "/>
<polygon class="st1" points="105.64,52.38 96.97,29.37 129.79,19.48 137.47,42.88 "/>
<polygon class="st1" points="248.02,196.7 293.06,207.21 301.79,186.78 315.81,181.03 312.24,172.1 286.8,182.19 253.91,177.45 "/>
<polygon class="st1" points="295.24,215.74 302.18,198.09 306.55,199.48 300.4,217.33 "/>
<polygon class="st1" points="225.62,255.02 236.5,231.42 245.44,233.4 237.7,256.81 "/>
<path class="st2" d="M22.3,177.55l3.72-2.31c0.25-0.15,0.4-0.43,0.4-0.72v-12.65l0,0c0-0.03,0-0.06,0-0.09
	c0-0.02-0.01-0.03-0.01-0.04c0-0.03,0-0.06-0.01-0.09L11.45,106.7l2.71-2.05c12.28,10.98,22.64,19.91,25.71,22.54
	c13.36,36.58,19.73,49.86,26.97,56.44l-2.33,1.46l-42.86-0.59L22.3,177.55z"/>
<path class="st2" d="M17.03,268.77c-2.16,11.16-5.65,28.1-6.88,31.43l-17.78-7.94c3.33-8.77,6.15-17.65,8.47-26.64L17.03,268.77z"/>
<path class="st2" d="M171.34,96.35l-6.42-14.95l10.66-5.29c0.3-0.15,0.47-0.45,0.47-0.76c0-0.13-0.03-0.25-0.09-0.38
	c-0.21-0.42-0.72-0.59-1.14-0.38l-10.57,5.25l-14.53-33.85l40.16-13.42c12.27,28.26,21.01,48.48,21.58,50.1
	c0.09,0.26,0.3,0.63,0.55,1.03L171.34,96.35z"/>
<path class="st2" d="M169.32-14.73c4.11,9.45,8.13,18.68,11.95,27.47l-13.54,4.27c-0.22,0.07-0.41,0.23-0.51,0.45
	c-0.1,0.21-0.11,0.46-0.02,0.68l7.12,17.85l-25.26,8.44L129.53-1.06L169.32-14.73z"/>
<path class="st2" d="M278.2,82.06c-7.51,13.02-14.7,29.71-21.16,47.02c-13.22-13.13-37.8-38.03-43.02-45.4
	c-0.01-0.02-0.03-0.04-0.04-0.06c-0.46-0.65-0.78-1.17-0.9-1.52c-0.59-1.66-9.32-21.86-21.57-50.06L239.5,16l22.81,49.08
	c0.02,0.03,0.04,0.06,0.06,0.09c0.03,0.05,0.06,0.09,0.1,0.13c0.01,0.02,0.02,0.04,0.04,0.05l16.57,15.19
	C278.78,81.04,278.49,81.54,278.2,82.06z"/>
<polygon class="st3" points="301.84,221.18 251.64,220.94 308.92,236.15 321.95,246.2 321.95,224.3 305.26,217.85 "/>
<polygon class="st3" points="268.14,263.65 307.14,236.62 264.86,228.54 252.87,261.23 "/>
<path class="st3" d="M159.35,241.14c3.34,0,12.05-9.74,8.64-12.59C164.58,225.69,153.65,241.14,159.35,241.14z"/>
<polygon class="st3" points="137.12,171.51 102.32,156.7 64.3,127.79 58.12,133.97 48.61,135.15 70.71,180.54 92.71,191.01 
	198.19,210.96 133.45,183.39 "/>
<polygon class="st3" points="245.78,215.24 261.32,204.7 246.8,200.03 242.1,212.62 "/>
<polygon class="st3" points="59.43,115.38 13.83,43.32 -15.97,6.73 -8.78,2.84 17.78,24.87 31.63,52.87 40.23,57.32 49.16,56.43 
	84.7,86.48 92.39,110.43 "/>
<polygon class="st3" points="181.95,14.3 168.64,17.87 175.3,36.26 189.87,30.92 "/>
<g>
	<path class="st4" d="M60.4,305.58l-1.3,3.1h1.84l0.71-1.69l4.61,1.69h4.93l-9.72-3.57C61.05,304.96,60.58,305.17,60.4,305.58z"/>
	<path class="st4" d="M6.15-5.84h-9.48v6.21l9.19-5.99C5.97-5.69,6.06-5.77,6.15-5.84z"/>
	<path class="st4" d="M296.85,96.83c0.22,0.21,0.54,0.28,0.83,0.18l9.46-3v-1.78l-9.51,3.01L286.35,84.9
		c7.5-13.1,13.72-25.38,18.77-37.25l2.03,0.75v-1.8l-1.37-0.51c0.47-1.12,0.92-2.23,1.37-3.34V16.38
		c-2.51,9.03-5.7,18.09-9.63,27.41l-21.64-4.04c-0.37-0.07-0.73,0.11-0.91,0.44L263.12,62.8l-22-47.34L284.7,0.88l1.5,5.33
		c0.25,0.9,1.19,1.43,2.09,1.17c0.75-0.21,1.24-0.89,1.24-1.63c0-0.15-0.02-0.31-0.06-0.46l-1.53-5.43l19-5.7h-5.91l-13.55,4.06
		l-1.15-4.06h-3.53l1.44,5.09L240.4,13.9l-9.17-19.74h-1.87l9.42,20.28l-47.95,16.02C186,19.35,180.65,7.04,175.04-5.84h-1.85
		c2.76,6.35,5.47,12.57,8.08,18.58l-13.54,4.27c-0.22,0.07-0.41,0.23-0.51,0.45c-0.1,0.21-0.11,0.46-0.02,0.68l7.12,17.85
		l-25.26,8.44L129.53-1.06l13.91-4.78h-5.23l-9.36,3.21l-1.38-3.21h-1.85l1.62,3.77l-43.9,15.08l-8.7-18.85h-1.87l8.57,18.56
		L17.98-5.84h-6.04L21.3-3.1l27.63,59.23c0.02,0.03,0.05,0.06,0.07,0.09c0.03,0.05,0.07,0.11,0.11,0.15
		c0.01,0.01,0.02,0.03,0.03,0.04L84,86.85c3.16,10.57,13.23,43.82,15.18,45.33c1.92,1.49,26.87,0.64,37.76,0.19l51.3,25.09
		c0.12,0.06,0.24,0.09,0.37,0.09h29.06l7.95,3.23l-25.15,48.79C147.02,199.2,95.5,188.58,87.55,184.86
		c-2.33-1.09-4.39-1.92-6.2-2.65c-11.16-4.5-14.52-5.85-33.88-58.96c-0.25-0.69-0.67-1.3-1.23-1.77
		c-0.4-0.34-27.22-23.3-49.56-44.37v11.64c5.44,5.05,10.98,10.07,16.2,14.76l-2.75,2.08l-13.45,2.68V110l13.2-2.63l14.63,53.77
		L5.86,163.2c-0.93-6.44-2.07-12.91-3.45-19.42c-1.73-8.18-3.65-16.15-5.74-23.93v39.43c4.77,29.33,4.77,57.85,0,85.37v35.34
		c1.53-4.76,2.93-9.55,4.17-14.37l16.19,3.15c-2.16,11.16-5.65,28.1-6.88,31.43l-13.48-6.02v1.86l12.52,5.59
		c-0.79,1.12-2.02,3.23-4.1,7.06h1.95c1.77-3.25,3.05-5.52,3.65-6.38l7.59,3.39l0.45,3h1.72l-0.56-3.71
		c-0.04-0.29-0.23-0.53-0.49-0.65l-7.76-3.46c0.54-1.41,1.46-4.65,3.11-12.21l9.42,2.18c0.46,0.11,0.91-0.18,1.02-0.64
		c0.01-0.06,0.02-0.13,0.02-0.19c0-0.39-0.27-0.74-0.66-0.83L15.11,287c0.96-4.48,2.14-10.31,3.6-17.89l11.06,2.15
		c0.03,0,0.05,0,0.08,0c0.02,0,0.03,0.01,0.05,0.01c0.02,0,0.03-0.01,0.05-0.01c0.03,0,0.05,0.01,0.08,0l26.44-3.07l-16.93,40.5
		h1.84l17.02-40.72l13.63-1.58l17.7,5.06l-5.77,14.22c-0.18,0.43,0.03,0.93,0.47,1.11c0.43,0.18,0.93-0.03,1.11-0.47l5.83-14.39
		l11.08,3.16l-3,9.37c-0.13,0.41,0.07,0.85,0.46,1.03l12.7,5.76l-8.45,17.45h1.89l8.11-16.75l35.55,16.13l-0.32,0.63h1.9l4.14-8.03
		l10.5,3.5l-1.95,4.54h1.85l1.72-4l10.44,3.48l-0.23,0.52h1.85l9.41-21.44l10.58,2.81c-2.61,6.12-5.28,12.37-7.95,18.63h14.8
		l-5.07-1.17c7.42-17.4,14.75-34.54,20.78-48.61l12.63,1.54l-18,48.24h1.81l17.93-48.03l10.74,1.31l-4.2,19.62
		c-0.1,0.46,0.19,0.91,0.65,1.01c0.46,0.1,0.91-0.19,1.01-0.65l4.23-19.77l8.77,1.07l-2.88,27.49c-0.05,0.41,0.22,0.8,0.62,0.91
		l37.09,9.96l-2.61,7.09h1.81l2.46-6.69l12.92,2.64v-1.73l-0.23-0.05l0.23-0.71v-5.44l-1.91,5.81l-11.36-2.32l-37.26-10.01
		l2.8-26.74l47.74,5.82v-1.71l-53.31-6.5l10.55-30.71c21.22,3.96,36.9,6.82,41.12,7.58c0.52,0.34,1.07,0.71,1.64,1.09v-9.79
		l-0.58,0.26c-16.79-3.05-41.25-7.57-67.84-12.61c2.47-9.46,7.04-26.32,13-45.53l15.2,6.17c0.09,0.04,0.18,0.06,0.28,0.06
		c0.15,0.01,14.77,0.69,23.76,0c1.56-0.12,5.64-1.52,11.38-3.77c0.01-0.01,0.03,0,0.04-0.01c0.01,0,0.01-0.01,0.02-0.02
		c1.47-0.58,3.05-1.21,4.73-1.89v-1.83c-1.63,0.67-3.18,1.3-4.62,1.87l-8.07-18.89c-0.18-0.43-0.68-0.63-1.11-0.45
		c-0.43,0.19-0.63,0.68-0.45,1.11l8.05,18.85c-5.11,1.99-8.73,3.23-10.1,3.34c-8.41,0.65-21.87,0.07-23.41,0l-15.2-6.17
		c1.94-6.2,4.02-12.62,6.21-19.11l48.7-20.68v-1.84l-47.96,20.36c7.71-22.54,16.8-45.56,26.3-62.06L296.85,96.83z M169.12,18.35
		l12.84-4.05c2.52,5.8,4.95,11.38,7.26,16.7l-13.28,4.44L169.12,18.35z M189.89,32.57c12.27,28.26,21.01,48.48,21.58,50.1
		c0.09,0.26,0.3,0.63,0.55,1.03l-40.68,12.66l-6.42-14.95l10.66-5.29c0.3-0.15,0.47-0.45,0.47-0.76c0-0.13-0.03-0.26-0.09-0.38
		c-0.21-0.42-0.72-0.59-1.14-0.38l-10.57,5.25L149.72,46L189.89,32.57z M200.73,122.97l-12.68-11.35l31.62-18.64
		c1.25,1.39,2.62,2.87,4.05,4.4L200.73,122.97z M224.87,98.63c3.85,4.1,8.14,8.56,12.36,12.89l-21.44,24.92L202,124.1L224.87,98.63z
		 M186.71,110.43l-14.17-12.67l40.49-12.6c1.25,1.67,3.15,3.92,5.47,6.53L186.71,110.43z M162.74,80.6L141.5,91.14
		c-0.21,0.1-0.36,0.29-0.43,0.51c-0.07,0.22-0.04,0.46,0.07,0.66l4.91,8.84l-17.24,10.3l-23.4-50.65l42.7-14.27L162.74,80.6z
		 M127.92-0.51l19.52,45.48L104.7,59.25l-20.63-44.7L127.92-0.51z M23.47-2.46l58.82,17.23l11.69,25.31L50.15,54.72L23.47-2.46z
		 M100.27,130.88c-1.47-1.67-9.8-28.34-14.71-44.75c-0.05-0.15-0.13-0.29-0.26-0.4L51.37,56.11l43.32-14.48l41.13,89.09
		C122.47,131.25,101.98,131.72,100.27,130.88z M218.16,155.91c-0.1-0.04-0.21-0.06-0.32-0.06h-29.03l-51.05-24.97l-8.25-17.87
		l18.1-10.82c0.39-0.23,0.53-0.74,0.31-1.14l-4.87-8.78l20.36-10.1l6.68,15.56c0.01,0.03,0.04,0.05,0.06,0.09
		c0.04,0.06,0.07,0.12,0.12,0.17c0.01,0.01,0.02,0.03,0.03,0.04l57.59,51.52l-1.43,9.61l-0.05,0.1L218.16,155.91z M196.42,217.43
		l-31.68,61.46l-52.56-24.48l19.3-50.07C150.69,208.42,173.6,212.99,196.42,217.43z M129.79,203.98l-11.06,28.7l-6.62-3.81
		c-0.41-0.23-0.93-0.09-1.16,0.31c-0.23,0.41-0.09,0.93,0.31,1.16l6.85,3.94l-7.45,19.32L73.2,232.12l2.41-5l16.25,4.53
		c0.45,0.13,0.92-0.14,1.05-0.59c0.02-0.08,0.03-0.15,0.03-0.23c0-0.37-0.25-0.71-0.62-0.82l-15.95-4.45l14.76-30.62
		C99.39,197.27,113.13,200.43,129.79,203.98z M73.95,226.65l-2.42,5.02l-11.46,1.27l1.77-9.67L73.95,226.65z M62.16,221.59
		l1.65-9.01l16.04,1.84L74.7,225.1L62.16,221.59z M71.91,233.34l38.13,21.87l-3.79,9.82l-14.93-4.55l-14.08-14.73
		c-0.19-0.2-0.46-0.29-0.73-0.25l-17.15,2.39l0.48-13.21L71.91,233.34z M78.17,190.08c1.8,0.73,3.66,1.48,5.79,2.47
		c1.14,0.53,3.02,1.18,5.51,1.92l-8.84,18.35l-10.04-1.15l3.73-23.22C75.53,188.99,76.81,189.52,78.17,190.08z M72.72,187.65
		l-3.82,23.81l-5.66-0.65L47.56,208l-9.04-6.93l1.69-14.61l24.53,0.34c0.16,0,0.32-0.04,0.46-0.13l3-1.88
		C69.64,185.91,71.13,186.83,72.72,187.65z M11.45,106.7l2.71-2.05c12.28,10.98,22.64,19.91,25.71,22.54
		c13.36,36.58,19.73,49.86,26.97,56.44l-2.33,1.46l-42.86-0.59l0.65-6.95l3.72-2.31c0.25-0.15,0.4-0.43,0.4-0.72v-12.65l0,0
		c0-0.03,0-0.06,0-0.09c0-0.02-0.01-0.03-0.01-0.04c0-0.03,0-0.06-0.01-0.09L11.45,106.7z M8.23,186.02l11.57,0.16l-3.57,38.34
		l-8.36-0.45C8.91,211.56,9.02,198.87,8.23,186.02z M21.5,186.2l17,0.23l-1.73,14.91l-3.36,24.11l-9.59-0.52
		c-0.14-0.21-0.37-0.35-0.64-0.37c-0.27-0.02-0.51,0.11-0.68,0.3l-4.58-0.25L21.5,186.2z M24.73,162.81v11.23l-3.68,2.29
		c-0.23,0.14-0.37,0.38-0.4,0.64l-0.7,7.51l-11.83-0.16C7.68,177.88,7,171.4,6.1,164.89L24.73,162.81z M29.11,269.39l-10.92-2.12
		l0,0l0,0l-16.91-3.29c3.13-12.53,5.28-25.28,6.44-38.21l14.5,0.78l-1.16,19.74c-0.02,0.24,0.07,0.46,0.23,0.63s0.38,0.27,0.62,0.27
		H30L29.11,269.39z M58.23,233.66c0,0.01,0,0.01,0,0.02l-0.04,0.2l-1.2,32.54l-26.18,3.04l0.92-23.08c0-0.01,0-0.02,0-0.03
		c0-0.22-0.08-0.43-0.24-0.59c-0.16-0.17-0.38-0.26-0.61-0.26H22.8l1.1-18.85l10.19,0.55c0.44,0.02,0.83-0.29,0.89-0.73l3.27-23.45
		l8.43,6.46c0.11,0.08,0.23,0.14,0.37,0.16l15.08,2.71l-1.76,9.64l0,0V222L58.23,233.66z M72.33,264.7
		c-0.11-0.03-0.22-0.04-0.33-0.03l-13.3,1.54l0.61-16.61l17.02-2.37l13.93,14.58c0.1,0.11,0.23,0.18,0.37,0.23l15.02,4.58
		l-2.64,6.84L72.33,264.7z M150.47,306.55l-49.18-22.31l3.03-9.46l7.24-18.78l52.4,24.4L150.47,306.55z M178.66,306.6l-22.46-7.48
		l9.34-18.13l21.8,5.8L178.66,306.6z M188.04,285.23l-21.7-5.77l31.81-61.7c6.03,1.17,12.05,2.33,17.98,3.47L188.04,285.23z
		 M200.26,288.48l-10.56-2.81l28.14-64.11c3.46,0.66,6.88,1.32,10.26,1.96C225.32,230,213.55,257.37,200.26,288.48z M262.69,230.03
		l-10.58,30.81l-11.05-1.35l10.78-31.5C255.57,228.7,259.21,229.38,262.69,230.03z M250.15,227.68l-10.82,31.6l-16.48-2.01
		c7.9-18.44,13.4-31.23,13.6-31.67c0.07-0.15,0.11-0.31,0.16-0.47C241.24,226.01,245.77,226.86,250.15,227.68z M230.35,215.3
		c-9.28-1.77-18.73-3.58-28.15-5.41l25-48.48l16.58,6.73C237.55,188.17,232.83,205.71,230.35,215.3z M244.29,166.51l-16.3-6.62
		l0.05-0.09c0.04-0.08,0.07-0.17,0.08-0.26l1.52-10.2c0.01-0.04,0.01-0.08,0.01-0.12c0-0.24-0.1-0.47-0.28-0.63l-12.31-11.01
		l21.37-24.84c7.26,7.43,14.14,14.29,17.97,18.09C251.96,142.81,247.88,155.04,244.29,166.51z M278.2,82.06
		c-7.51,13.02-14.7,29.71-21.16,47.02c-13.22-13.13-37.8-38.03-43.02-45.4c-0.01-0.02-0.03-0.04-0.04-0.06
		c-0.46-0.65-0.78-1.17-0.9-1.52c-0.59-1.66-9.32-21.86-21.57-50.06L239.5,16l22.81,49.08c0.02,0.03,0.04,0.06,0.06,0.09
		c0.03,0.05,0.06,0.09,0.1,0.13c0.01,0.02,0.02,0.04,0.04,0.05l16.57,15.19C278.78,81.04,278.49,81.54,278.2,82.06z M264.13,64.52
		l12.05-22.99l20.66,3.85c-4.62,10.75-10.23,21.85-16.91,33.64L264.13,64.52z"/>
</g>
</svg>
